<svg width="165" height="32" viewBox="0 0 165 32" fill="none" xmlns="http://www.w3.org/2000/svg">
<path d="M155.29 0H31V32H155.29C160.653 32 165 29.7614 165 27V5C165 2.23858 160.653 0 155.29 0Z" fill="#0F1418"/>
<path d="M41.46 20.126L38.16 12.218H38.112V19.472L39.174 19.712V20H36.528V19.712L37.596 19.472V11.378L36.528 11.15V10.862H39.174L42.06 17.774H42.12L45.024 10.862H47.586V11.15L46.536 11.378V19.472L47.586 19.712V20H44.118V19.712L45.18 19.472V12.302H45.132L41.82 20.126H41.46ZM48.4772 20V19.736L49.3892 19.55V14.66L48.4952 14.342V14.156L50.4872 13.586H50.6192V19.55L51.5192 19.736V20H48.4772ZM49.9952 12.326C49.7512 12.326 49.5572 12.248 49.4132 12.092C49.2692 11.936 49.1972 11.754 49.1972 11.546C49.1972 11.318 49.2692 11.126 49.4132 10.97C49.5572 10.814 49.7512 10.736 49.9952 10.736C50.2432 10.736 50.4392 10.814 50.5832 10.97C50.7312 11.126 50.8052 11.318 50.8052 11.546C50.8052 11.754 50.7312 11.936 50.5832 12.092C50.4392 12.248 50.2432 12.326 49.9952 12.326ZM55.1034 20.126C54.5594 20.126 54.0754 19.994 53.6514 19.73C53.2314 19.462 52.9014 19.092 52.6614 18.62C52.4254 18.144 52.3074 17.596 52.3074 16.976C52.3074 16.32 52.4374 15.738 52.6974 15.23C52.9614 14.718 53.3234 14.316 53.7834 14.024C54.2474 13.732 54.7774 13.586 55.3734 13.586C55.7934 13.586 56.1694 13.656 56.5014 13.796C56.8334 13.932 57.0954 14.114 57.2874 14.342C57.4834 14.566 57.5814 14.812 57.5814 15.08C57.5814 15.3 57.5254 15.47 57.4134 15.59C57.3014 15.71 57.1494 15.77 56.9574 15.77C56.7494 15.77 56.5934 15.708 56.4894 15.584C56.3854 15.46 56.3174 15.266 56.2854 15.002C56.2414 14.606 56.1554 14.34 56.0274 14.204C55.8994 14.068 55.6934 14 55.4094 14C54.8414 14 54.3994 14.244 54.0834 14.732C53.7714 15.216 53.6154 15.86 53.6154 16.664C53.6154 17.472 53.7794 18.092 54.1074 18.524C54.4354 18.956 54.9014 19.172 55.5054 19.172C55.9054 19.172 56.2634 19.098 56.5794 18.95C56.8954 18.802 57.1774 18.556 57.4254 18.212L57.6654 18.35C57.4454 18.918 57.1154 19.356 56.6754 19.664C56.2354 19.972 55.7114 20.126 55.1034 20.126ZM58.4501 20V19.736L59.3501 19.55V14.66L58.4741 14.33V14.156L60.3941 13.58H60.5261V14.876L60.5741 14.936V19.55L61.8101 19.736V20H58.4501ZM60.4841 15.428L60.4601 14.936C60.7561 14.5 61.0501 14.164 61.3421 13.928C61.6381 13.692 61.9141 13.574 62.1701 13.574C62.3901 13.574 62.5761 13.65 62.7281 13.802C62.8801 13.95 62.9561 14.13 62.9561 14.342C62.9561 14.538 62.8901 14.704 62.7581 14.84C62.6261 14.972 62.4621 15.038 62.2661 15.038C62.0661 15.038 61.9101 14.964 61.7981 14.816C61.7181 14.724 61.6501 14.662 61.5941 14.63C61.5381 14.594 61.4741 14.576 61.4021 14.576C61.2861 14.576 61.1401 14.654 60.9641 14.81C60.7921 14.962 60.6321 15.168 60.4841 15.428ZM66.6546 20.126C66.0386 20.126 65.4926 19.984 65.0166 19.7C64.5406 19.412 64.1666 19.022 63.8946 18.53C63.6266 18.034 63.4926 17.476 63.4926 16.856C63.4926 16.232 63.6266 15.674 63.8946 15.182C64.1666 14.69 64.5406 14.302 65.0166 14.018C65.4926 13.73 66.0386 13.586 66.6546 13.586C67.2706 13.586 67.8146 13.73 68.2866 14.018C68.7626 14.302 69.1366 14.69 69.4086 15.182C69.6806 15.674 69.8166 16.232 69.8166 16.856C69.8166 17.476 69.6806 18.034 69.4086 18.53C69.1366 19.022 68.7626 19.412 68.2866 19.7C67.8146 19.984 67.2706 20.126 66.6546 20.126ZM66.6426 19.574C66.9346 19.574 67.1926 19.51 67.4166 19.382C67.6406 19.25 67.8286 19.064 67.9806 18.824C68.1366 18.58 68.2546 18.292 68.3346 17.96C68.4146 17.624 68.4546 17.252 68.4546 16.844C68.4546 16.44 68.4146 16.072 68.3346 15.74C68.2586 15.408 68.1446 15.122 67.9926 14.882C67.8406 14.642 67.6526 14.458 67.4286 14.33C67.2046 14.198 66.9466 14.132 66.6546 14.132C66.3626 14.132 66.1046 14.198 65.8806 14.33C65.6566 14.458 65.4686 14.642 65.3166 14.882C65.1646 15.122 65.0486 15.41 64.9686 15.746C64.8926 16.078 64.8546 16.448 64.8546 16.856C64.8546 17.264 64.8926 17.634 64.9686 17.966C65.0486 18.298 65.1646 18.584 65.3166 18.824C65.4686 19.064 65.6546 19.25 65.8746 19.382C66.0986 19.51 66.3546 19.574 66.6426 19.574ZM72.7539 20.126C72.4979 20.126 72.2139 20.1 71.9019 20.048C71.5939 20 71.3239 19.938 71.0919 19.862L71.0139 17.936H71.3259C71.3779 18.528 71.5299 18.976 71.7819 19.28C72.0339 19.58 72.3839 19.73 72.8319 19.73C73.1799 19.73 73.4579 19.634 73.6659 19.442C73.8779 19.246 73.9839 18.99 73.9839 18.674C73.9839 18.41 73.9059 18.184 73.7499 17.996C73.5939 17.804 73.3239 17.61 72.9399 17.414L72.4419 17.168C71.9299 16.912 71.5639 16.644 71.3439 16.364C71.1239 16.08 71.0139 15.738 71.0139 15.338C71.0139 14.778 71.2079 14.346 71.5959 14.042C71.9879 13.738 72.5459 13.586 73.2699 13.586C73.5499 13.586 73.8199 13.606 74.0799 13.646C74.3439 13.682 74.5499 13.732 74.6979 13.796V15.44H74.4219C74.3059 14.464 73.8519 13.976 73.0599 13.976C72.7519 13.976 72.5039 14.06 72.3159 14.228C72.1319 14.392 72.0399 14.616 72.0399 14.9C72.0399 15.148 72.1199 15.36 72.2799 15.536C72.4439 15.712 72.7199 15.894 73.1079 16.082L73.6539 16.346C74.1259 16.578 74.4659 16.834 74.6739 17.114C74.8819 17.394 74.9859 17.748 74.9859 18.176C74.9859 18.772 74.7859 19.246 74.3859 19.598C73.9859 19.95 73.4419 20.126 72.7539 20.126ZM79.2405 20.126C78.6245 20.126 78.0785 19.984 77.6025 19.7C77.1265 19.412 76.7525 19.022 76.4805 18.53C76.2125 18.034 76.0785 17.476 76.0785 16.856C76.0785 16.232 76.2125 15.674 76.4805 15.182C76.7525 14.69 77.1265 14.302 77.6025 14.018C78.0785 13.73 78.6245 13.586 79.2405 13.586C79.8565 13.586 80.4005 13.73 80.8725 14.018C81.3485 14.302 81.7225 14.69 81.9945 15.182C82.2665 15.674 82.4025 16.232 82.4025 16.856C82.4025 17.476 82.2665 18.034 81.9945 18.53C81.7225 19.022 81.3485 19.412 80.8725 19.7C80.4005 19.984 79.8565 20.126 79.2405 20.126ZM79.2285 19.574C79.5205 19.574 79.7785 19.51 80.0025 19.382C80.2265 19.25 80.4145 19.064 80.5665 18.824C80.7225 18.58 80.8405 18.292 80.9205 17.96C81.0005 17.624 81.0405 17.252 81.0405 16.844C81.0405 16.44 81.0005 16.072 80.9205 15.74C80.8445 15.408 80.7305 15.122 80.5785 14.882C80.4265 14.642 80.2385 14.458 80.0145 14.33C79.7905 14.198 79.5325 14.132 79.2405 14.132C78.9485 14.132 78.6905 14.198 78.4665 14.33C78.2425 14.458 78.0545 14.642 77.9025 14.882C77.7505 15.122 77.6345 15.41 77.5545 15.746C77.4785 16.078 77.4405 16.448 77.4405 16.856C77.4405 17.264 77.4785 17.634 77.5545 17.966C77.6345 18.298 77.7505 18.584 77.9025 18.824C78.0545 19.064 78.2405 19.25 78.4605 19.382C78.6845 19.51 78.9405 19.574 79.2285 19.574ZM89.439 20.126C89.039 20.126 88.715 20.012 88.467 19.784C88.319 19.656 88.215 19.488 88.155 19.28C88.095 19.068 88.065 18.786 88.065 18.434V14.114H85.425V19.562L86.709 19.754V20H83.289V19.754L84.201 19.562V14.114H83.133L83.283 13.706H84.201C84.201 13.134 84.213 12.696 84.237 12.392C84.261 12.084 84.305 11.838 84.369 11.654C84.465 11.382 84.631 11.132 84.867 10.904C85.107 10.676 85.397 10.492 85.737 10.352C86.077 10.212 86.443 10.142 86.835 10.142C87.287 10.142 87.653 10.236 87.933 10.424C88.213 10.612 88.353 10.858 88.353 11.162C88.353 11.358 88.297 11.512 88.185 11.624C88.073 11.732 87.925 11.786 87.741 11.786C87.597 11.786 87.483 11.754 87.399 11.69C87.319 11.626 87.259 11.546 87.219 11.45C87.183 11.35 87.153 11.252 87.129 11.156C87.081 10.964 87.023 10.816 86.955 10.712C86.887 10.604 86.761 10.55 86.577 10.55C86.401 10.55 86.223 10.606 86.043 10.718C85.867 10.83 85.725 11.016 85.617 11.276C85.525 11.496 85.469 11.744 85.449 12.02C85.433 12.292 85.425 12.636 85.425 13.052V13.706H87.531L89.049 12.146L89.289 12.17V13.706H91.005L90.897 14.144H89.289V18.284C89.289 18.576 89.297 18.782 89.313 18.902C89.329 19.018 89.357 19.114 89.397 19.19C89.525 19.414 89.725 19.526 89.997 19.526C90.153 19.526 90.309 19.484 90.465 19.4C90.621 19.316 90.757 19.2 90.873 19.052L91.089 19.238C90.905 19.51 90.665 19.726 90.369 19.886C90.077 20.046 89.767 20.126 89.439 20.126ZM97.9831 20.108C97.6551 20.108 97.3351 20.06 97.0231 19.964C96.7151 19.868 96.3891 19.718 96.0451 19.514L95.5711 20H95.3251L95.1031 16.958L95.4271 16.892C95.6671 17.832 95.9831 18.514 96.3751 18.938C96.7711 19.362 97.2931 19.574 97.9411 19.574C98.4851 19.574 98.9151 19.444 99.2311 19.184C99.5471 18.92 99.7051 18.564 99.7051 18.116C99.7051 17.764 99.5951 17.45 99.3751 17.174C99.1591 16.894 98.8031 16.614 98.3071 16.334L97.3891 15.848C96.6411 15.444 96.1051 15.042 95.7811 14.642C95.4571 14.242 95.2951 13.776 95.2951 13.244C95.2951 12.764 95.4131 12.336 95.6491 11.96C95.8851 11.58 96.2071 11.282 96.6151 11.066C97.0271 10.846 97.4891 10.736 98.0011 10.736C98.7011 10.736 99.3111 10.982 99.8311 11.474L100.197 10.85H100.455L100.563 13.472H100.221C100.033 12.724 99.7611 12.172 99.4051 11.816C99.0531 11.456 98.6031 11.276 98.0551 11.276C97.6111 11.276 97.2591 11.394 96.9991 11.63C96.7431 11.866 96.6151 12.19 96.6151 12.602C96.6151 12.974 96.7371 13.306 96.9811 13.598C97.2291 13.89 97.6451 14.19 98.2291 14.498L99.1231 14.978C99.7351 15.302 100.177 15.662 100.449 16.058C100.725 16.454 100.863 16.908 100.863 17.42C100.863 17.928 100.735 18.386 100.479 18.794C100.227 19.198 99.8831 19.518 99.4471 19.754C99.0151 19.99 98.5271 20.108 97.9831 20.108ZM104.603 21.956C104.411 21.956 104.257 21.892 104.141 21.764C104.029 21.64 103.973 21.476 103.973 21.272C103.973 20.976 104.089 20.704 104.321 20.456C104.557 20.212 104.877 20.012 105.281 19.856V19.808C104.661 19.66 104.119 19.378 103.655 18.962C103.191 18.542 102.831 18.028 102.575 17.42C102.319 16.808 102.191 16.144 102.191 15.428C102.191 14.76 102.297 14.142 102.509 13.574C102.725 13.006 103.027 12.51 103.415 12.086C103.807 11.658 104.267 11.326 104.795 11.09C105.327 10.854 105.909 10.736 106.541 10.736C107.173 10.736 107.755 10.854 108.287 11.09C108.819 11.326 109.279 11.658 109.667 12.086C110.059 12.51 110.363 13.006 110.579 13.574C110.795 14.142 110.903 14.76 110.903 15.428C110.903 16.212 110.749 16.932 110.441 17.588C110.133 18.244 109.701 18.78 109.145 19.196C108.593 19.612 107.945 19.856 107.201 19.928V19.982C107.461 20.046 107.723 20.142 107.987 20.27C108.251 20.398 108.525 20.514 108.809 20.618C109.097 20.726 109.397 20.78 109.709 20.78C109.969 20.78 110.189 20.73 110.369 20.63C110.549 20.53 110.721 20.376 110.885 20.168L111.209 20.3C110.965 20.868 110.651 21.292 110.267 21.572C109.883 21.856 109.485 21.998 109.073 21.998C108.697 21.998 108.379 21.898 108.119 21.698C107.859 21.502 107.611 21.288 107.375 21.056C107.035 20.72 106.747 20.486 106.511 20.354C106.275 20.222 106.025 20.156 105.761 20.156C105.513 20.156 105.329 20.206 105.209 20.306C105.089 20.406 105.029 20.532 105.029 20.684C105.029 20.816 105.063 20.922 105.131 21.002C105.199 21.082 105.233 21.192 105.233 21.332C105.233 21.512 105.173 21.66 105.053 21.776C104.933 21.896 104.783 21.956 104.603 21.956ZM106.541 19.58C106.897 19.58 107.219 19.516 107.507 19.388C107.799 19.26 108.055 19.074 108.275 18.83C108.499 18.586 108.687 18.294 108.839 17.954C108.991 17.61 109.105 17.224 109.181 16.796C109.257 16.368 109.295 15.904 109.295 15.404C109.295 14.908 109.257 14.45 109.181 14.03C109.105 13.606 108.993 13.226 108.845 12.89C108.697 12.554 108.513 12.268 108.293 12.032C108.073 11.792 107.817 11.61 107.525 11.486C107.237 11.358 106.915 11.294 106.559 11.294C106.199 11.294 105.873 11.358 105.581 11.486C105.289 11.61 105.031 11.792 104.807 12.032C104.587 12.272 104.401 12.562 104.249 12.902C104.101 13.238 103.989 13.62 103.913 14.048C103.837 14.472 103.799 14.932 103.799 15.428C103.799 15.924 103.837 16.384 103.913 16.808C103.989 17.232 104.101 17.616 104.249 17.96C104.401 18.3 104.587 18.592 104.807 18.836C105.027 19.076 105.281 19.26 105.569 19.388C105.861 19.516 106.185 19.58 106.541 19.58ZM111.962 20V19.712L112.982 19.472V11.378L111.962 11.15V10.862H115.46V11.15L114.332 11.378V19.502H117.698C117.914 19.138 118.1 18.772 118.256 18.404C118.412 18.036 118.562 17.624 118.706 17.168H119.06L118.61 20H111.962ZM125.757 20.108C125.429 20.108 125.109 20.06 124.797 19.964C124.489 19.868 124.163 19.718 123.819 19.514L123.345 20H123.099L122.877 16.958L123.201 16.892C123.441 17.832 123.757 18.514 124.149 18.938C124.545 19.362 125.067 19.574 125.715 19.574C126.259 19.574 126.689 19.444 127.005 19.184C127.321 18.92 127.479 18.564 127.479 18.116C127.479 17.764 127.369 17.45 127.149 17.174C126.933 16.894 126.577 16.614 126.081 16.334L125.163 15.848C124.415 15.444 123.879 15.042 123.555 14.642C123.231 14.242 123.069 13.776 123.069 13.244C123.069 12.764 123.187 12.336 123.423 11.96C123.659 11.58 123.981 11.282 124.389 11.066C124.801 10.846 125.263 10.736 125.775 10.736C126.475 10.736 127.085 10.982 127.605 11.474L127.971 10.85H128.229L128.337 13.472H127.995C127.807 12.724 127.535 12.172 127.179 11.816C126.827 11.456 126.377 11.276 125.829 11.276C125.385 11.276 125.033 11.394 124.773 11.63C124.517 11.866 124.389 12.19 124.389 12.602C124.389 12.974 124.511 13.306 124.755 13.598C125.003 13.89 125.419 14.19 126.003 14.498L126.897 14.978C127.509 15.302 127.951 15.662 128.223 16.058C128.499 16.454 128.637 16.908 128.637 17.42C128.637 17.928 128.509 18.386 128.253 18.794C128.001 19.198 127.657 19.518 127.221 19.754C126.789 19.99 126.301 20.108 125.757 20.108ZM132.778 20.126C132.198 20.126 131.688 19.994 131.248 19.73C130.812 19.462 130.472 19.09 130.228 18.614C129.988 18.134 129.868 17.58 129.868 16.952C129.868 16.284 130.002 15.698 130.27 15.194C130.542 14.69 130.92 14.296 131.404 14.012C131.892 13.728 132.456 13.586 133.096 13.586C133.888 13.586 134.494 13.816 134.914 14.276C135.338 14.736 135.558 15.41 135.574 16.298L135.49 16.37H130.84V16.022L134.2 15.902C134.228 15.798 134.242 15.64 134.242 15.428C134.242 14.468 133.82 13.988 132.976 13.988C132.396 13.988 131.948 14.216 131.632 14.672C131.32 15.124 131.164 15.766 131.164 16.598C131.164 18.338 131.84 19.208 133.192 19.208C134.072 19.208 134.746 18.888 135.214 18.248L135.436 18.386C135.228 18.938 134.89 19.366 134.422 19.67C133.958 19.974 133.41 20.126 132.778 20.126ZM136.415 20V19.736L137.315 19.55V14.66L136.439 14.33V14.156L138.359 13.58H138.491V14.876L138.539 14.936V19.55L139.775 19.736V20H136.415ZM138.449 15.428L138.425 14.936C138.721 14.5 139.015 14.164 139.307 13.928C139.603 13.692 139.879 13.574 140.135 13.574C140.355 13.574 140.541 13.65 140.693 13.802C140.845 13.95 140.921 14.13 140.921 14.342C140.921 14.538 140.855 14.704 140.723 14.84C140.591 14.972 140.427 15.038 140.231 15.038C140.031 15.038 139.875 14.964 139.763 14.816C139.683 14.724 139.615 14.662 139.559 14.63C139.503 14.594 139.439 14.576 139.367 14.576C139.251 14.576 139.105 14.654 138.929 14.81C138.757 14.962 138.597 15.168 138.449 15.428ZM144.052 20.126L141.88 14.48C141.808 14.292 141.72 14.166 141.616 14.102C141.512 14.034 141.31 13.99 141.01 13.97V13.706H144.1V13.97C143.76 13.982 143.536 14.012 143.428 14.06C143.32 14.104 143.266 14.174 143.266 14.27C143.266 14.362 143.29 14.474 143.338 14.606L144.694 18.452H144.742L146.008 14.864C146.08 14.66 146.116 14.504 146.116 14.396C146.116 14.28 146.064 14.194 145.96 14.138C145.856 14.078 145.628 14.022 145.276 13.97V13.706H147.736V13.97C147.44 14.018 147.216 14.076 147.064 14.144C146.912 14.208 146.798 14.298 146.722 14.414C146.65 14.53 146.578 14.686 146.506 14.882L144.622 20.126H144.052ZM150.708 20.126C150.128 20.126 149.618 19.994 149.178 19.73C148.742 19.462 148.402 19.09 148.158 18.614C147.918 18.134 147.798 17.58 147.798 16.952C147.798 16.284 147.932 15.698 148.2 15.194C148.472 14.69 148.85 14.296 149.334 14.012C149.822 13.728 150.386 13.586 151.026 13.586C151.818 13.586 152.424 13.816 152.844 14.276C153.268 14.736 153.488 15.41 153.504 16.298L153.42 16.37H148.77V16.022L152.13 15.902C152.158 15.798 152.172 15.64 152.172 15.428C152.172 14.468 151.75 13.988 150.906 13.988C150.326 13.988 149.878 14.216 149.562 14.672C149.25 15.124 149.094 15.766 149.094 16.598C149.094 18.338 149.77 19.208 151.122 19.208C152.002 19.208 152.676 18.888 153.144 18.248L153.366 18.386C153.158 18.938 152.82 19.366 152.352 19.67C151.888 19.974 151.34 20.126 150.708 20.126ZM154.345 20V19.736L155.245 19.55V14.66L154.369 14.33V14.156L156.289 13.58H156.421V14.876L156.469 14.936V19.55L157.705 19.736V20H154.345ZM156.379 15.428L156.355 14.936C156.651 14.5 156.945 14.164 157.237 13.928C157.533 13.692 157.809 13.574 158.065 13.574C158.285 13.574 158.471 13.65 158.623 13.802C158.775 13.95 158.851 14.13 158.851 14.342C158.851 14.538 158.785 14.704 158.653 14.84C158.521 14.972 158.357 15.038 158.161 15.038C157.961 15.038 157.805 14.964 157.693 14.816C157.613 14.724 157.545 14.662 157.489 14.63C157.433 14.594 157.369 14.576 157.297 14.576C157.181 14.576 157.035 14.654 156.859 14.81C156.687 14.962 156.527 15.168 156.379 15.428Z" fill="white"/>
<path d="M31 0H5C2.23858 0 0 2.23858 0 5V27C0 29.7614 2.23858 32 5 32H31V0Z" fill="#CC2927"/>
<path d="M7.68824 6.50516C7.68824 6.50516 7.60824 6.63216 7.68424 6.82016C7.73024 6.93616 7.87024 7.07616 8.02424 7.22416C8.02424 7.22416 9.63924 8.80016 9.83724 9.02816C10.7322 10.0612 11.1212 11.0782 11.1572 12.4812C11.1792 13.3812 11.0062 14.1732 10.5842 15.0942C9.82824 16.7432 8.23424 18.5622 5.77424 20.5842L6.13424 20.4642C6.36724 20.2912 6.68224 20.1052 7.42624 19.6982C9.13924 18.7622 11.0622 17.9002 13.4252 17.0122C16.8242 15.7352 22.4152 14.2362 25.5972 13.7492L25.9282 13.6982L25.8782 13.6182C25.5862 13.1662 25.3882 12.8872 25.1482 12.5912C24.4512 11.7282 23.6062 11.0242 22.5712 10.4452C21.1492 9.64816 19.3042 9.02916 16.9712 8.56516C16.243 8.42822 15.5126 8.3032 14.7802 8.19016C13.4702 7.98925 12.1622 7.77591 10.8562 7.55016C10.4312 7.47516 9.79624 7.36916 9.37524 7.27816C9.05058 7.20918 8.7298 7.12306 8.41424 7.02016C8.14624 6.91516 7.76924 6.81316 7.68824 6.50516ZM8.62424 7.41416C8.62724 7.41216 8.68724 7.43116 8.76124 7.45616C8.89724 7.50216 9.07724 7.55616 9.28724 7.61516C9.43324 7.65516 9.59424 7.69916 9.76624 7.74216C9.98424 7.79816 10.1652 7.84616 10.1672 7.84916C10.1912 7.87616 10.5582 9.04716 10.6832 9.49616C10.7312 9.66816 10.7672 9.81116 10.7642 9.81416C10.7294 9.7708 10.6992 9.72387 10.6742 9.67416C10.2502 8.92816 9.57724 8.16916 8.80024 7.55816C8.73983 7.51232 8.68113 7.46429 8.62424 7.41416ZM10.4142 7.90816C10.4322 7.90716 10.5132 7.92016 10.6092 7.94216C11.2282 8.07816 12.3342 8.29216 13.0442 8.41216C13.1632 8.43216 13.2602 8.45216 13.2602 8.45916C13.2313 8.48516 13.1981 8.50612 13.1622 8.52116C13.0432 8.58116 12.5602 8.87016 12.3992 8.97816C11.9962 9.24816 11.6332 9.53716 11.3692 9.79916C11.3052 9.86482 11.2395 9.92884 11.1722 9.99116C11.1692 9.99116 11.1502 9.92916 11.1312 9.85416C10.9614 9.24507 10.7441 8.65025 10.4812 8.07516C10.4548 8.02137 10.4311 7.96631 10.4102 7.91016C10.4102 7.90916 10.4102 7.90816 10.4142 7.90816ZM13.5612 8.50616C13.5812 8.51316 13.6212 8.63616 13.6902 8.91016C13.8496 9.55626 13.9013 10.2242 13.8432 10.8872L13.8312 10.9252L13.6442 10.8652C13.2562 10.7412 12.6242 10.5552 12.0822 10.4052C11.8932 10.3568 11.7063 10.3 11.5222 10.2352C11.5222 10.2132 11.9712 9.76416 12.1642 9.59316C12.5332 9.26716 13.5262 8.49516 13.5612 8.50616ZM13.8112 8.54216C13.8222 8.53216 15.3152 8.79016 15.9932 8.92016C16.4992 9.01716 17.2302 9.17016 17.2742 9.18916C17.2962 9.19716 17.2202 9.23916 16.9772 9.34916C16.0172 9.78116 15.3052 10.1692 14.5972 10.6422C14.4112 10.7662 14.2562 10.8682 14.2532 10.8682C14.2492 10.8682 14.2472 10.7642 14.2472 10.6382C14.2472 9.94816 14.1082 9.25116 13.8562 8.66216C13.8375 8.62365 13.8225 8.58347 13.8112 8.54216ZM17.6712 9.30616C17.6822 9.31716 17.6332 9.61216 17.5912 9.78616C17.4592 10.3262 17.1092 11.1302 16.6772 11.8852C16.6319 11.9703 16.5811 12.0525 16.5252 12.1312C16.4492 12.0989 16.3759 12.0605 16.3062 12.0162C15.8842 11.7692 15.4062 11.5362 14.8812 11.3192C14.7873 11.2822 14.6946 11.2422 14.6032 11.1992C14.5792 11.1772 15.7462 10.4042 16.3652 10.0332C16.8602 9.73616 17.6572 9.29216 17.6712 9.30616ZM17.9472 9.34916C17.9802 9.34916 18.6422 9.52916 18.9842 9.63216C19.8372 9.88716 20.8212 10.2462 21.4592 10.5362L21.7242 10.6562L21.5372 10.6992C19.9762 11.0592 18.6372 11.4722 17.3492 11.9952C17.2422 12.0392 17.1492 12.0752 17.1422 12.0752C17.1604 12.0109 17.1855 11.9489 17.2172 11.8902C17.6052 11.0672 17.8552 10.2032 17.9202 9.47016C17.9262 9.40316 17.9382 9.34916 17.9472 9.34916ZM11.3672 10.8612C11.3772 10.8512 11.8812 10.9692 12.1562 11.0462C12.5692 11.1622 13.4482 11.4562 13.4482 11.4792C13.4482 11.4832 13.3512 11.5682 13.2332 11.6672C12.7582 12.0642 12.2992 12.4802 11.7502 13.0102C11.6514 13.1092 11.5486 13.2043 11.4422 13.2952C11.4352 13.2952 11.4322 13.2722 11.4362 13.2452C11.5192 12.6342 11.5012 11.8502 11.3862 11.0522C11.3749 10.9894 11.3682 10.9259 11.3662 10.8622L11.3672 10.8612ZM21.9772 10.8712C21.9842 10.8792 21.7432 11.2562 21.5932 11.4712C21.3732 11.7852 21.0562 12.1972 20.3322 13.1082L19.3782 14.3102C19.2911 14.4232 19.2014 14.5342 19.1092 14.6432C19.1062 14.6432 19.0592 14.5772 19.0062 14.4972C18.5975 13.8872 18.1023 13.3398 17.5362 12.8722C17.4476 12.7979 17.3575 12.7252 17.2662 12.6542C17.2393 12.636 17.2144 12.6149 17.1922 12.5912C17.1922 12.5812 17.8092 12.3172 18.2802 12.1252C19.1927 11.7584 20.1195 11.4281 21.0582 11.1352C21.5002 11.0002 21.9702 10.8652 21.9772 10.8712ZM22.2552 10.9442C22.3281 10.9688 22.3976 11.0024 22.4622 11.0442C23.344 11.5493 24.1595 12.162 24.8902 12.8682C25.0842 13.0582 25.5572 13.5512 25.5502 13.5552L25.1872 13.5842C23.6572 13.6992 21.7012 14.0242 19.8172 14.4772C19.6892 14.5072 19.5792 14.5332 19.5712 14.5332C19.5642 14.5332 19.7042 14.3932 19.8822 14.2212C20.9892 13.1582 21.4932 12.4872 22.0872 11.2872C22.1752 11.1092 22.2502 10.9542 22.2532 10.9452H22.2552V10.9442ZM14.1672 11.7742C14.2182 11.7842 14.6902 12.0042 15.0462 12.1822C15.3712 12.3452 15.8642 12.6082 15.8892 12.6312C15.8922 12.6342 15.7192 12.7242 15.5032 12.8322C14.8202 13.1742 14.2352 13.4962 13.6252 13.8692C13.4502 13.9762 13.3052 14.0632 13.3002 14.0632C13.2852 14.0632 13.2902 14.0502 13.3882 13.8722C13.7259 13.2423 13.9743 12.5685 14.1262 11.8702C14.1402 11.8082 14.1562 11.7702 14.1672 11.7732V11.7742ZM13.6922 11.8582C13.7022 11.8682 13.5802 12.3182 13.5022 12.5582C13.2909 13.1896 13.0109 13.7959 12.6672 14.3662L12.5772 14.5132L12.3742 14.3162C12.1767 14.1148 11.9486 13.9461 11.6982 13.8162C11.6363 13.7882 11.5773 13.754 11.5222 13.7142C11.5222 13.6842 12.1422 13.1212 12.6202 12.7162C12.9632 12.4262 13.6842 11.8492 13.6922 11.8582ZM16.5802 13.0462L16.7572 13.1612C17.1642 13.4252 17.6452 13.7802 18.0122 14.0852C18.2182 14.2572 18.6172 14.6152 18.6992 14.7012L18.7432 14.7482L18.4492 14.8302C16.946 15.2402 15.4613 15.7153 13.9992 16.2542C13.8322 16.3152 13.6892 16.3662 13.6792 16.3662C13.6582 16.3662 13.6372 16.3852 14.0122 16.0402C14.9722 15.1572 15.8192 14.1842 16.4522 13.2382L16.5802 13.0462ZM15.8212 13.2362C15.8302 13.2452 15.3292 13.9462 15.0322 14.3422C14.6762 14.8152 14.0422 15.6072 13.6062 16.1222C13.4949 16.2579 13.3795 16.3903 13.2602 16.5192C13.2502 16.5222 13.2452 16.4692 13.2442 16.3862C13.2442 15.9462 13.1322 15.4762 12.9362 15.0782C12.8532 14.9102 12.8392 14.8702 12.8562 14.8542C12.9242 14.7922 13.9832 14.1882 14.6502 13.8312C15.1092 13.5852 15.8132 13.2272 15.8212 13.2362ZM11.2312 14.3612C11.5218 14.5004 11.7945 14.6743 12.0432 14.8792C12.0512 14.8842 11.9562 14.9622 11.8332 15.0512C11.4882 15.3002 10.9632 15.6952 10.6602 15.9372C10.3402 16.1922 10.3292 16.2002 10.3652 16.1442C10.6052 15.7772 10.7252 15.5702 10.8512 15.3042C10.9642 15.0682 11.0752 14.7882 11.1552 14.5442C11.1717 14.4797 11.1967 14.418 11.2312 14.3612ZM12.4542 15.3212C12.4712 15.3182 12.4942 15.3492 12.5932 15.4962C12.8002 15.8062 12.9592 16.2182 13.0002 16.5542L13.0082 16.6272L12.5112 16.8192C11.6212 17.1652 10.8002 17.5062 10.2452 17.7592C10.0902 17.8312 9.81724 17.9612 9.63824 18.0512C9.45924 18.1412 9.31324 18.2112 9.31324 18.2072C9.31324 18.2032 9.42524 18.1182 9.56324 18.0192C10.6502 17.2292 11.5882 16.3652 12.2952 15.5002C12.3702 15.4082 12.4392 15.3282 12.4482 15.3222C12.4501 15.3211 12.4521 15.3204 12.4542 15.3202V15.3212ZM11.8902 15.4612C11.9052 15.4752 11.4892 15.9452 11.2092 16.2312C10.5092 16.9462 9.81324 17.5062 8.95324 18.0522C8.84524 18.1212 8.74724 18.1822 8.73324 18.1902C8.71024 18.2042 8.74124 18.1682 9.11924 17.7562C9.35724 17.4972 9.53924 17.2822 9.74724 17.0132C9.88324 16.8362 9.90924 16.8112 10.1092 16.6672C10.6462 16.2792 11.8762 15.4462 11.8902 15.4602V15.4612ZM12.8892 4.00016C12.8092 3.99016 11.5182 4.45516 10.6892 4.79116C9.56624 5.24816 8.69324 5.68516 8.15524 6.06316C7.95524 6.20316 7.70324 6.45616 7.66724 6.55316C7.65305 6.5926 7.64594 6.63424 7.64624 6.67616L8.13424 7.13616L9.29224 7.50616L12.0512 8.00016L15.2042 8.54216L15.2362 8.27216L15.2082 8.26716L14.7932 8.20116L14.7082 8.05316C14.2797 7.29705 13.8869 6.52119 13.5312 5.72816C13.3237 5.25155 13.1467 4.76223 13.0012 4.26316C12.9332 4.02016 12.9262 4.00516 12.8892 4.00016ZM12.8282 4.18616H12.8332C12.8362 4.18916 12.8502 4.29116 12.8652 4.41116C12.9272 4.91916 13.0412 5.41116 13.2192 5.94116C13.3532 6.34116 13.3552 6.31816 13.1952 6.27316C12.8252 6.17016 11.1632 5.88516 9.96124 5.71816C9.84189 5.70294 9.72287 5.68526 9.60424 5.66516C9.58924 5.65016 10.4712 5.18816 10.8622 5.00516C11.3632 4.77316 12.7292 4.20516 12.8282 4.18616ZM9.32624 5.81416L9.46724 5.86216C10.2392 6.12416 12.1732 6.49416 13.2422 6.58216C13.3622 6.59216 13.4642 6.60316 13.4672 6.60616C13.4702 6.60916 13.3672 6.66416 13.2392 6.72816C12.7242 6.98616 12.1562 7.30116 11.7632 7.54716C11.6482 7.61916 11.5432 7.67716 11.5282 7.67616C11.4714 7.66816 11.4147 7.65916 11.3582 7.64916L11.2142 7.62616L10.8492 7.27116C10.2082 6.65116 9.70824 6.17116 9.51424 5.99116L9.32624 5.81416ZM9.18324 5.92816L9.69424 6.56616C9.97624 6.91616 10.2582 7.26516 10.3202 7.34016C10.3832 7.41516 10.4312 7.47816 10.4282 7.48016C10.4142 7.49116 9.68824 7.35016 9.30324 7.26116C9.03229 7.20357 8.76431 7.13282 8.50024 7.04916L8.30024 6.98516L8.30124 6.93616C8.30424 6.69116 8.61324 6.32916 9.13724 5.96016L9.18324 5.92816ZM13.5352 6.79716C13.5502 6.79816 13.5672 6.82916 13.6122 6.92816C13.7362 7.20016 14.1222 7.93616 14.2152 8.07816C14.2452 8.12516 14.2952 8.12816 13.7822 8.04516C12.5522 7.84716 12.1532 7.78016 12.1532 7.77216C12.1783 7.75042 12.2062 7.73225 12.2362 7.71816C12.6286 7.49799 12.9993 7.24118 13.3432 6.95116L13.5182 6.80416C13.5242 6.79916 13.5302 6.79616 13.5352 6.79716ZM17.8442 15.2052L13.0362 16.7732L8.85624 18.6192L7.68624 18.9292C7.38824 19.2112 7.07324 19.4972 6.73824 19.7892C6.36824 20.1102 6.02224 20.4012 5.75824 20.6112C5.41283 20.8969 5.09387 21.2132 4.80524 21.5562C4.47324 21.9702 4.21324 22.4102 4.10124 22.7492C3.90124 23.3592 3.99824 23.9772 4.38624 24.5472C4.88124 25.2752 5.86624 26.0152 7.01124 26.5192C7.59624 26.7752 8.58124 27.1072 9.32124 27.2932C10.5542 27.6052 12.9352 27.9432 14.2472 27.9932C14.5132 28.0032 14.8672 28.0032 14.8842 27.9912C14.9122 27.9722 15.1172 27.5862 15.3542 27.1012C16.1602 25.4552 16.7432 23.9112 17.0572 22.5932C17.2472 21.7942 17.3952 20.7302 17.4912 19.4682C17.5182 19.1142 17.5282 17.9352 17.5072 17.5342C17.4823 16.9622 17.4212 16.3924 17.3242 15.8282C17.3116 15.7792 17.3075 15.7285 17.3122 15.6782C17.3262 15.6682 17.3712 15.6532 17.9622 15.4812L17.8442 15.2052ZM16.7442 15.8502C16.7892 15.8502 16.9042 16.9642 16.9352 17.6702C16.9412 17.8212 16.9402 17.9172 16.9312 17.9172C16.9032 17.9172 16.3162 17.5722 15.8992 17.3112C15.5057 17.0633 15.1183 16.8059 14.7372 16.5392C14.7022 16.5112 14.7062 16.5102 15.0032 16.4082C15.5082 16.2342 16.7072 15.8502 16.7452 15.8502H16.7442ZM14.2962 16.6532C14.3262 16.6532 14.4112 16.7002 14.6112 16.8252C15.3612 17.2952 16.3772 17.8602 16.8112 18.0502C16.9472 18.1102 16.9622 18.0862 16.6512 18.2972C15.9892 18.7472 15.1652 19.1892 14.1542 19.6392C14.045 19.6891 13.9347 19.7365 13.8232 19.7812C13.8306 19.7132 13.845 19.6462 13.8662 19.5812C14.1112 18.6762 14.2492 17.7612 14.2532 17.0272C14.2552 16.6652 14.2552 16.6632 14.2902 16.6542H14.2962V16.6532ZM13.7922 16.8462C13.8132 16.8682 13.7982 17.6802 13.7722 17.9022C13.6961 18.5272 13.556 19.1427 13.3542 19.7392C13.3402 19.7562 12.8432 19.2712 12.6782 19.0792C12.417 18.7829 12.1924 18.4562 12.0092 18.1062C11.9272 17.9442 11.7952 17.6222 11.8072 17.6132C11.8632 17.5732 13.7782 16.8332 13.7922 16.8462ZM11.4172 17.7822C11.4212 17.7822 11.4252 17.7832 11.4272 17.7862C11.4494 17.8282 11.4681 17.8721 11.4832 17.9172C11.5992 18.2322 11.8592 18.6992 12.0852 18.9972C12.3814 19.3893 12.7227 19.7451 13.1022 20.0572C13.1252 20.0772 13.1322 20.0732 12.5402 20.2972C11.7824 20.5829 11.0175 20.8497 10.2462 21.0972C9.91924 21.2032 9.64224 21.2922 9.63124 21.2972C9.59824 21.3082 9.60824 21.2882 9.70424 21.1392C10.1312 20.4732 10.7772 19.1692 11.1392 18.2472C11.2012 18.0872 11.2612 17.9272 11.2722 17.8912C11.2872 17.8392 11.3032 17.8212 11.3522 17.7992C11.3723 17.7886 11.3946 17.7828 11.4172 17.7822ZM10.6892 18.0822C10.6992 18.0912 10.5152 18.4802 10.3332 18.8332C9.98224 19.5192 9.59424 20.1942 9.08024 21.0182L8.89824 21.3062C8.88024 21.3332 8.87224 21.3242 8.81624 21.2122C8.68551 20.9453 8.59132 20.6621 8.53624 20.3702C8.48482 20.0104 8.49157 19.6448 8.55624 19.2872C8.60324 19.0602 8.60124 19.0652 8.70824 19.0112C9.17024 18.7742 10.6742 18.0692 10.6892 18.0822ZM16.9572 18.3372V18.4912C16.9469 19.4935 16.8617 20.4936 16.7022 21.4832C16.0428 21.2929 15.4063 21.0306 14.8042 20.7012C14.4502 20.5072 13.9392 20.1942 13.9542 20.1792C13.9572 20.1752 14.1082 20.0962 14.2882 20.0022C15.0022 19.6322 15.6832 19.2322 16.2762 18.8362C16.4982 18.6882 16.8312 18.4472 16.9052 18.3822L16.9572 18.3372ZM7.94524 19.4102C7.96024 19.4102 7.95624 19.4382 7.93324 19.5712C7.91342 19.7004 7.89973 19.8306 7.89224 19.9612C7.86224 20.4932 7.94924 20.8852 8.21224 21.4212C8.28624 21.5712 8.34424 21.6952 8.34124 21.6972C8.31424 21.7202 5.91124 22.4232 5.15524 22.6302L4.72024 22.7502C4.69324 22.7582 4.69124 22.7522 4.70024 22.6902C4.78324 22.1572 5.19024 21.4582 5.75824 20.8702C6.13624 20.4802 6.43824 20.2482 6.95324 19.9552C7.28054 19.7674 7.61126 19.5857 7.94524 19.4102ZM13.6142 20.4252C13.6162 20.4232 13.7052 20.4702 13.8112 20.5322C14.5882 20.9812 15.6712 21.4022 16.5942 21.6132L16.6782 21.6332L16.5632 21.6962C16.0812 21.9642 14.4922 22.6252 12.8692 23.2332C12.698 23.2971 12.527 23.3618 12.3562 23.4272C12.3303 23.4399 12.3027 23.449 12.2742 23.4542C12.2742 23.4502 12.3412 23.3222 12.4232 23.1682C12.8792 22.3162 13.3332 21.2812 13.5672 20.5632C13.5902 20.4902 13.6112 20.4282 13.6142 20.4252ZM13.0362 20.6152C13.0189 20.6728 12.9979 20.7292 12.9732 20.7842C12.6043 21.6554 12.1832 22.5036 11.7122 23.3242C11.6323 23.4708 11.5482 23.6152 11.4602 23.7572C11.4552 23.7572 11.3462 23.6912 11.2162 23.6122C10.4462 23.1402 9.76424 22.5602 9.31624 21.9952L9.25224 21.9152L9.58424 21.8242C10.6725 21.533 11.7386 21.1644 12.7742 20.7212C12.9162 20.6612 13.0342 20.6122 13.0362 20.6152ZM16.6262 21.8682C16.6272 21.8682 16.6282 21.8692 16.6282 21.8712C16.6282 21.9512 16.4452 22.6992 16.2922 23.2412C16.1642 23.6942 16.0562 24.0492 15.8572 24.6782C15.8065 24.8479 15.7505 25.0159 15.6892 25.1822C14.6628 25.0067 13.6573 24.7248 12.6892 24.3412C12.4722 24.2562 12.259 24.1618 12.0502 24.0582C12.0442 24.0512 12.2632 23.9482 12.5362 23.8282C14.1912 23.1072 15.9052 22.2852 16.4912 21.9322C16.5322 21.9031 16.5779 21.8815 16.6262 21.8682ZM8.33924 22.1512C8.34824 22.1602 7.88524 22.8222 7.23924 23.7272L6.65224 24.5502C6.55524 24.6892 6.40724 24.9082 6.32324 25.0382L6.17024 25.2742L6.00824 25.1372C5.81724 24.9772 5.48324 24.6362 5.33124 24.4472C5.01924 24.0582 4.80824 23.6492 4.72424 23.2732C4.68624 23.0992 4.68424 23.0112 4.72124 23.0002C5.36505 22.8449 6.00972 22.6932 6.65524 22.5452L7.95524 22.2402C8.16424 22.1902 8.33724 22.1502 8.33924 22.1512ZM8.80424 22.3292L8.92124 22.4602C9.40989 23.0149 9.9862 23.4859 10.6272 23.8542C10.7422 23.9202 10.8292 23.9782 10.8222 23.9822C9.38308 24.5039 7.9397 25.0139 6.49224 25.5122C6.46745 25.4974 6.44342 25.4814 6.42024 25.4642L6.35324 25.4162L6.45824 25.2642C6.79824 24.7712 7.22624 24.2292 8.16324 23.1022L8.80424 22.3292ZM11.7042 24.4022C11.7072 24.3992 11.8692 24.4562 12.0662 24.5302C12.5392 24.7072 12.9102 24.8222 13.4132 24.9482C14.0302 25.1032 14.9232 25.2582 15.4512 25.3022C15.5312 25.3082 15.5732 25.3182 15.5612 25.3262C15.5362 25.3422 15.0012 25.5202 14.6082 25.6442C13.0672 26.1129 11.5218 26.5673 9.97224 27.0072C9.93724 27.0142 9.81524 26.9822 9.81524 26.9672C9.81524 26.9582 9.90224 26.8482 10.0082 26.7212C10.537 26.088 11.0298 25.4256 11.4842 24.7372C11.5572 24.6252 11.6305 24.5136 11.7042 24.4022ZM11.0622 24.4202C11.0672 24.4252 10.8092 24.8382 10.3562 25.5522C10.1642 25.8532 9.94724 26.1972 9.87324 26.3142C9.79824 26.4322 9.68924 26.6122 9.63124 26.7142L9.52424 26.8992L9.47024 26.8852C9.34024 26.8502 8.42124 26.5252 8.17924 26.4292C7.87824 26.3092 7.56424 26.1652 7.33324 26.0402C7.04424 25.8842 6.67824 25.6522 6.70624 25.6432L7.81124 25.3412C9.40324 24.9072 10.2842 24.6582 10.8612 24.4772C10.9702 24.4442 11.0612 24.4182 11.0622 24.4202ZM15.5852 25.4812H15.5912C15.6062 25.5192 15.0162 27.1512 14.8012 27.6692C14.7522 27.7852 14.7352 27.8142 14.7092 27.8122C14.2307 27.7517 13.753 27.685 13.2762 27.6122C12.3702 27.4742 10.8532 27.2092 10.4702 27.1222L10.3812 27.1022L10.9242 26.9802C12.0882 26.7182 12.6472 26.5772 13.2142 26.4032C13.9451 26.1782 14.6595 25.9029 15.3522 25.5792C15.4652 25.5272 15.5622 25.4862 15.5852 25.4812Z" fill="white"/>
</svg>
