<svg width="100" height="32" viewBox="0 0 100 32" fill="none" xmlns="http://www.w3.org/2000/svg">
<path d="M95 0H31V32H95C97.7614 32 100 29.7614 100 27V5C100 2.23858 97.7614 0 95 0Z" fill="#0F1418"/>
<path d="M49.46 20.126L46.16 12.218H46.112V19.472L47.174 19.712V20H44.528V19.712L45.596 19.472V11.378L44.528 11.15V10.862H47.174L50.06 17.774H50.12L53.024 10.862H55.586V11.15L54.536 11.378V19.472L55.586 19.712V20H52.118V19.712L53.18 19.472V12.302H53.132L49.82 20.126H49.46ZM57.2822 23.09C56.9742 23.09 56.7242 23.014 56.5322 22.862C56.3402 22.714 56.2442 22.516 56.2442 22.268C56.2442 22.072 56.3062 21.916 56.4302 21.8C56.5582 21.684 56.7242 21.626 56.9282 21.626C57.0882 21.626 57.2142 21.668 57.3062 21.752C57.3982 21.84 57.4642 21.984 57.5042 22.184C57.5282 22.336 57.5562 22.434 57.5882 22.478C57.6242 22.526 57.6842 22.55 57.7682 22.55C57.8962 22.55 58.0162 22.474 58.1282 22.322C58.2442 22.174 58.3582 21.93 58.4702 21.59L58.9562 20.126L56.6102 14.444C56.5382 14.296 56.4382 14.186 56.3102 14.114C56.1822 14.042 55.9962 13.994 55.7522 13.97V13.706H58.8182V13.97C58.5422 13.986 58.3442 14.01 58.2242 14.042C58.1042 14.07 58.0402 14.122 58.0322 14.198C58.0242 14.274 58.0482 14.394 58.1042 14.558L59.5502 18.254H59.6042L60.7322 14.9C60.8482 14.584 60.8422 14.356 60.7142 14.216C60.5902 14.072 60.3182 13.99 59.8982 13.97V13.706H62.5922V13.97C62.2922 14.018 62.0582 14.076 61.8902 14.144C61.7262 14.208 61.6002 14.3 61.5122 14.42C61.4242 14.536 61.3422 14.7 61.2662 14.912L58.8962 21.674C58.8122 21.926 58.7202 22.134 58.6202 22.298C58.5202 22.466 58.4182 22.598 58.3142 22.694C58.0582 22.958 57.7142 23.09 57.2822 23.09ZM66.1159 20.108C65.7879 20.108 65.4679 20.06 65.1559 19.964C64.8479 19.868 64.5219 19.718 64.1779 19.514L63.7039 20H63.4579L63.2359 16.958L63.5599 16.892C63.7999 17.832 64.1159 18.514 64.5079 18.938C64.9039 19.362 65.4259 19.574 66.0739 19.574C66.6179 19.574 67.0479 19.444 67.3639 19.184C67.6799 18.92 67.8379 18.564 67.8379 18.116C67.8379 17.764 67.7279 17.45 67.5079 17.174C67.2919 16.894 66.9359 16.614 66.4399 16.334L65.5219 15.848C64.7739 15.444 64.2379 15.042 63.9139 14.642C63.5899 14.242 63.4279 13.776 63.4279 13.244C63.4279 12.764 63.5459 12.336 63.7819 11.96C64.0179 11.58 64.3399 11.282 64.7479 11.066C65.1599 10.846 65.6219 10.736 66.1339 10.736C66.8339 10.736 67.4439 10.982 67.9639 11.474L68.3299 10.85H68.5879L68.6959 13.472H68.3539C68.1659 12.724 67.8939 12.172 67.5379 11.816C67.1859 11.456 66.7359 11.276 66.1879 11.276C65.7439 11.276 65.3919 11.394 65.1319 11.63C64.8759 11.866 64.7479 12.19 64.7479 12.602C64.7479 12.974 64.8699 13.306 65.1139 13.598C65.3619 13.89 65.7779 14.19 66.3619 14.498L67.2559 14.978C67.8679 15.302 68.3099 15.662 68.5819 16.058C68.8579 16.454 68.9959 16.908 68.9959 17.42C68.9959 17.928 68.8679 18.386 68.6119 18.794C68.3599 19.198 68.0159 19.518 67.5799 19.754C67.1479 19.99 66.6599 20.108 66.1159 20.108ZM72.7355 21.956C72.5435 21.956 72.3895 21.892 72.2735 21.764C72.1615 21.64 72.1055 21.476 72.1055 21.272C72.1055 20.976 72.2215 20.704 72.4535 20.456C72.6895 20.212 73.0095 20.012 73.4135 19.856V19.808C72.7935 19.66 72.2515 19.378 71.7875 18.962C71.3235 18.542 70.9635 18.028 70.7075 17.42C70.4515 16.808 70.3235 16.144 70.3235 15.428C70.3235 14.76 70.4295 14.142 70.6415 13.574C70.8575 13.006 71.1595 12.51 71.5475 12.086C71.9395 11.658 72.3995 11.326 72.9275 11.09C73.4595 10.854 74.0415 10.736 74.6735 10.736C75.3055 10.736 75.8875 10.854 76.4195 11.09C76.9515 11.326 77.4115 11.658 77.7995 12.086C78.1915 12.51 78.4955 13.006 78.7115 13.574C78.9275 14.142 79.0355 14.76 79.0355 15.428C79.0355 16.212 78.8815 16.932 78.5735 17.588C78.2655 18.244 77.8335 18.78 77.2775 19.196C76.7255 19.612 76.0775 19.856 75.3335 19.928V19.982C75.5935 20.046 75.8555 20.142 76.1195 20.27C76.3835 20.398 76.6575 20.514 76.9415 20.618C77.2295 20.726 77.5295 20.78 77.8415 20.78C78.1015 20.78 78.3215 20.73 78.5015 20.63C78.6815 20.53 78.8535 20.376 79.0175 20.168L79.3415 20.3C79.0975 20.868 78.7835 21.292 78.3995 21.572C78.0155 21.856 77.6175 21.998 77.2055 21.998C76.8295 21.998 76.5115 21.898 76.2515 21.698C75.9915 21.502 75.7435 21.288 75.5075 21.056C75.1675 20.72 74.8795 20.486 74.6435 20.354C74.4075 20.222 74.1575 20.156 73.8935 20.156C73.6455 20.156 73.4615 20.206 73.3415 20.306C73.2215 20.406 73.1615 20.532 73.1615 20.684C73.1615 20.816 73.1955 20.922 73.2635 21.002C73.3315 21.082 73.3655 21.192 73.3655 21.332C73.3655 21.512 73.3055 21.66 73.1855 21.776C73.0655 21.896 72.9155 21.956 72.7355 21.956ZM74.6735 19.58C75.0295 19.58 75.3515 19.516 75.6395 19.388C75.9315 19.26 76.1875 19.074 76.4075 18.83C76.6315 18.586 76.8195 18.294 76.9715 17.954C77.1235 17.61 77.2375 17.224 77.3135 16.796C77.3895 16.368 77.4275 15.904 77.4275 15.404C77.4275 14.908 77.3895 14.45 77.3135 14.03C77.2375 13.606 77.1255 13.226 76.9775 12.89C76.8295 12.554 76.6455 12.268 76.4255 12.032C76.2055 11.792 75.9495 11.61 75.6575 11.486C75.3695 11.358 75.0475 11.294 74.6915 11.294C74.3315 11.294 74.0055 11.358 73.7135 11.486C73.4215 11.61 73.1635 11.792 72.9395 12.032C72.7195 12.272 72.5335 12.562 72.3815 12.902C72.2335 13.238 72.1215 13.62 72.0455 14.048C71.9695 14.472 71.9315 14.932 71.9315 15.428C71.9315 15.924 71.9695 16.384 72.0455 16.808C72.1215 17.232 72.2335 17.616 72.3815 17.96C72.5335 18.3 72.7195 18.592 72.9395 18.836C73.1595 19.076 73.4135 19.26 73.7015 19.388C73.9935 19.516 74.3175 19.58 74.6735 19.58ZM80.0953 20V19.712L81.1152 19.472V11.378L80.0953 11.15V10.862H83.5933V11.15L82.4653 11.378V19.502H85.8313C86.0473 19.138 86.2333 18.772 86.3893 18.404C86.5453 18.036 86.6953 17.624 86.8393 17.168H87.1933L86.7433 20H80.0953Z" fill="white"/>
<path d="M31 0H5C2.23858 0 0 2.23858 0 5V27C0 29.7614 2.23858 32 5 32H31V0Z" fill="#4479A1"/>
<path d="M8.45304 8.10476C8.17221 8.10476 7.98173 8.13959 7.78393 8.18686V8.2192H7.81812C7.94999 8.47794 8.17465 8.66701 8.3407 8.89838C8.47257 9.16458 8.58491 9.43078 8.71677 9.69449L8.75096 9.65717C8.98051 9.49298 9.09284 9.22927 9.09284 8.82872C8.99516 8.71179 8.98051 8.59487 8.89748 8.48043C8.7998 8.31374 8.58979 8.23164 8.45792 8.09979L8.45304 8.10476ZM25.105 22.5591C23.7985 22.5243 22.7851 22.6586 21.9377 23.0268C21.6935 23.1263 21.3028 23.1263 21.2686 23.4423C21.4029 23.5741 21.4225 23.7906 21.5373 23.9747C21.7326 24.3081 22.0696 24.7534 22.3822 24.9872C22.7241 25.2609 23.0659 25.5246 23.4249 25.7585C24.0598 26.1565 24.7802 26.3929 25.4029 26.7934C25.757 27.0273 26.1184 27.3233 26.4774 27.5721C26.6557 27.6965 26.7705 27.9204 27 28V27.9502C26.8877 27.801 26.8535 27.5845 26.7436 27.4178C26.58 27.2512 26.4164 27.1019 26.2552 26.9377C25.7757 26.294 25.2036 25.7278 24.558 25.2584C24.0354 24.8952 22.8926 24.3877 22.6777 23.7781L22.6459 23.7433C23.0025 23.711 23.4274 23.5791 23.7692 23.4796C24.3236 23.3303 24.8315 23.3627 25.4054 23.2159C25.6642 23.1487 25.9255 23.0666 26.1868 22.982V22.8328C25.8938 22.5342 25.674 22.1287 25.3712 21.8501C24.526 21.0974 23.6246 20.4128 22.6752 19.8026C22.1624 19.4692 21.5128 19.2553 20.9732 18.9716C20.7778 18.8721 20.4506 18.8224 20.3382 18.6557C20.0452 18.2925 19.8743 17.8098 19.6667 17.3769C19.1872 16.4293 18.7416 15.4642 18.3309 14.4836C18.0379 13.8318 17.8596 13.1824 17.5006 12.5854C15.8157 9.75669 13.9915 8.04257 11.1856 6.36576C10.5825 6.01747 9.85962 5.8682 9.09528 5.6841C8.68747 5.66419 8.27965 5.63434 7.87428 5.61692C7.60566 5.5 7.34681 5.18404 7.11726 5.03228C6.18931 4.4352 3.78638 3.14153 3.10262 4.85316C2.66306 5.93288 3.75463 6.99768 4.13314 7.545C4.41397 7.92564 4.76806 8.36101 4.96342 8.78892C5.0782 9.07751 5.10994 9.37356 5.22472 9.67459C5.48357 10.406 5.73021 11.222 6.07209 11.9062C6.25036 12.2545 6.44572 12.6202 6.67526 12.9337C6.80713 13.1153 7.03179 13.1999 7.08308 13.4984C6.85353 13.8367 6.83888 14.3293 6.70701 14.7423C6.12093 16.6256 6.35048 18.9542 7.18076 20.3399C7.44205 20.7529 8.06476 21.6685 8.89748 21.3177C9.63008 21.0191 9.46891 20.0738 9.67892 19.2403C9.72776 19.0413 9.69601 18.9094 9.79613 18.7751V18.8124C10.0257 19.2801 10.2552 19.7255 10.4652 20.1932C10.9683 21.0092 11.8474 21.855 12.5825 22.4198C12.9732 22.7183 13.2833 23.2358 13.7717 23.4199V23.3701H13.7351C13.6301 23.2258 13.4909 23.1562 13.359 23.0393C13.0494 22.7305 12.7636 22.3978 12.5043 22.0441C11.8163 21.0863 11.2062 20.0729 10.6801 19.0139C10.4115 18.4915 10.1869 17.9292 9.97196 17.4143C9.87428 17.2152 9.87428 16.9167 9.71067 16.8172C9.46647 17.1804 9.10749 17.4964 8.92923 17.9442C8.61909 18.6607 8.58735 19.5414 8.47013 20.4569C8.4042 20.4743 8.43594 20.4569 8.4042 20.4917C7.88161 20.3623 7.70334 19.81 7.50798 19.3473C7.01958 18.1656 6.939 16.2674 7.36146 14.9065C7.47624 14.5582 7.96464 13.4586 7.76928 13.1252C7.66671 12.8093 7.34437 12.6277 7.16611 12.3714C6.93679 12.0379 6.74047 11.6821 6.58002 11.3091C6.1893 10.3786 5.99395 9.34868 5.56904 8.41823C5.37368 7.98783 5.0318 7.53754 4.75341 7.14197C4.44328 6.69416 4.1014 6.3782 3.85476 5.84829C3.77417 5.66668 3.6594 5.36565 3.78882 5.16663C3.82301 5.03228 3.89139 4.98004 4.01837 4.94272C4.23327 4.7636 4.83644 4.99745 5.04889 5.09697C5.65207 5.34575 6.16 5.57961 6.6655 5.9279C6.89504 6.0921 7.14168 6.40806 7.43472 6.49016H7.7766C8.29919 6.60708 8.88771 6.52499 9.37611 6.67177C10.243 6.95538 11.0245 7.36836 11.7253 7.81617C13.8849 9.22159 15.6414 11.1836 16.8169 13.5034C17.0122 13.8865 17.0977 14.2373 17.276 14.6353C17.6178 15.4563 18.0403 16.2848 18.3871 17.0784C18.729 17.8621 19.0586 18.6607 19.5495 19.31C19.7937 19.6583 20.7754 19.8399 21.2149 20.0215C21.5397 20.1708 22.0452 20.3076 22.3382 20.4892C22.8999 20.8375 23.4469 21.2356 23.9744 21.6187C24.243 21.8078 25.0562 22.2232 25.105 22.5591Z" fill="white"/>
</svg>
