<svg width="139" height="32" viewBox="0 0 139 32" fill="none" xmlns="http://www.w3.org/2000/svg">
<path d="M131.174 0H31V32H131.174C135.496 32 139 29.7614 139 27V5C139 2.23858 135.496 0 131.174 0Z" fill="#0F1418"/>
<path d="M36.724 20V19.712C37.136 19.644 37.446 19.562 37.654 19.466C37.862 19.366 38.018 19.232 38.122 19.064C38.226 18.892 38.328 18.666 38.428 18.386L40.726 12.032L40.39 11.27L41.638 10.622L44.806 18.98C44.874 19.164 44.948 19.304 45.028 19.4C45.112 19.496 45.23 19.566 45.382 19.61C45.534 19.654 45.748 19.688 46.024 19.712V20H42.1V19.712C42.488 19.688 42.778 19.66 42.97 19.628C43.162 19.592 43.272 19.514 43.3 19.394C43.328 19.27 43.292 19.068 43.192 18.788L41.032 12.866H40.996L38.962 18.524C38.874 18.768 38.85 18.968 38.89 19.124C38.93 19.276 39.048 19.398 39.244 19.49C39.44 19.578 39.726 19.652 40.102 19.712V20H36.724ZM39.412 16.736V16.232H42.7V16.736H39.412ZM50.1665 20V19.736L51.0425 19.562V15.71C51.0425 15.234 50.9465 14.88 50.7545 14.648C50.5625 14.412 50.2525 14.294 49.8245 14.294C49.1965 14.294 48.6745 14.58 48.2585 15.152V14.654C48.5945 14.318 48.9625 14.056 49.3625 13.868C49.7625 13.68 50.1605 13.586 50.5565 13.586C51.6965 13.586 52.2665 14.124 52.2665 15.2V19.562L53.1545 19.736V20H50.1665ZM46.2605 20V19.736L47.1605 19.55V14.672L46.2725 14.342V14.168L48.1925 13.586H48.3245V14.648L48.3845 14.708V19.55L49.2665 19.736V20H46.2605ZM57.8103 14.03C57.8783 13.834 57.9683 13.634 58.0803 13.43C58.1923 13.222 58.3323 13.046 58.5003 12.902C58.6683 12.758 58.8663 12.686 59.0943 12.686C59.2823 12.686 59.4463 12.74 59.5863 12.848C59.7263 12.956 59.7963 13.104 59.7963 13.292C59.7963 13.452 59.7423 13.59 59.6343 13.706C59.5263 13.818 59.3923 13.874 59.2323 13.874C59.1163 13.874 59.0303 13.848 58.9743 13.796C58.9183 13.744 58.8663 13.692 58.8183 13.64C58.7743 13.588 58.7023 13.562 58.6023 13.562C58.4943 13.562 58.3963 13.632 58.3083 13.772C58.2203 13.908 58.1583 14.064 58.1223 14.24L57.8103 14.03ZM56.5203 17.594C56.8243 17.594 57.0603 17.496 57.2283 17.3C57.4003 17.104 57.5203 16.862 57.5883 16.574C57.6563 16.282 57.6903 16 57.6903 15.728C57.6903 15.556 57.6743 15.37 57.6423 15.17C57.6143 14.966 57.5603 14.774 57.4803 14.594C57.4043 14.41 57.2923 14.26 57.1443 14.144C57.0003 14.024 56.8143 13.964 56.5863 13.964C56.3463 13.964 56.1503 14.028 55.9983 14.156C55.8463 14.28 55.7283 14.442 55.6443 14.642C55.5603 14.838 55.5023 15.044 55.4703 15.26C55.4383 15.476 55.4223 15.674 55.4223 15.854C55.4223 16.082 55.4503 16.332 55.5063 16.604C55.5623 16.872 55.6683 17.104 55.8243 17.3C55.9843 17.496 56.2163 17.594 56.5203 17.594ZM56.5263 17.99C56.1023 17.99 55.7783 18.04 55.5543 18.14C55.3303 18.236 55.2183 18.386 55.2183 18.59C55.2183 18.734 55.3183 18.854 55.5183 18.95C55.7223 19.042 56.1163 19.132 56.7003 19.22L57.5583 19.37C58.2543 19.478 58.7663 19.662 59.0943 19.922C59.4263 20.178 59.5923 20.526 59.5923 20.966C59.5923 21.33 59.4903 21.646 59.2863 21.914C59.0823 22.182 58.8083 22.402 58.4643 22.574C58.1243 22.75 57.7443 22.88 57.3243 22.964C56.9043 23.048 56.4783 23.09 56.0463 23.09C55.7303 23.09 55.4203 23.06 55.1163 23C54.8123 22.944 54.5363 22.854 54.2882 22.73C54.0443 22.606 53.8483 22.446 53.7003 22.25C53.5523 22.054 53.4783 21.816 53.4783 21.536C53.4783 21.208 53.6003 20.912 53.8443 20.648C54.0883 20.388 54.5083 20.138 55.1043 19.898L55.4703 20.048C55.1663 20.164 54.9283 20.344 54.7563 20.588C54.5843 20.836 54.4983 21.102 54.4983 21.386C54.4983 21.678 54.5803 21.918 54.7443 22.106C54.9083 22.298 55.1263 22.44 55.3983 22.532C55.6743 22.628 55.9723 22.676 56.2923 22.676C56.6803 22.676 57.0503 22.632 57.4023 22.544C57.7583 22.456 58.0483 22.32 58.2723 22.136C58.5003 21.952 58.6143 21.716 58.6143 21.428C58.6143 21.28 58.5663 21.146 58.4703 21.026C58.3743 20.906 58.1883 20.792 57.9123 20.684C57.6403 20.58 57.2383 20.478 56.7063 20.378L55.7163 20.192C55.1923 20.092 54.7983 19.936 54.5343 19.724C54.2743 19.512 54.1443 19.258 54.1443 18.962C54.1443 18.826 54.1863 18.68 54.2703 18.524C54.3583 18.368 54.5263 18.222 54.7743 18.086C55.0223 17.946 55.3883 17.842 55.8723 17.774L56.5263 17.99ZM56.5263 17.99C56.0583 17.99 55.6443 17.9 55.2843 17.72C54.9243 17.536 54.6423 17.28 54.4383 16.952C54.2343 16.62 54.1323 16.234 54.1323 15.794C54.1323 15.37 54.2363 14.992 54.4443 14.66C54.6563 14.328 54.9443 14.066 55.3083 13.874C55.6723 13.682 56.0843 13.586 56.5443 13.586C57.0003 13.586 57.4123 13.68 57.7803 13.868C58.1483 14.052 58.4403 14.308 58.6563 14.636C58.8723 14.964 58.9803 15.338 58.9803 15.758C58.9803 16.154 58.8783 16.522 58.6743 16.862C58.4703 17.198 58.1843 17.47 57.8163 17.678C57.4483 17.886 57.0183 17.99 56.5263 17.99ZM62.6204 20.126C62.0204 20.126 61.5824 19.988 61.3064 19.712C61.0304 19.432 60.8924 19.028 60.8924 18.5V14.156L60.0044 13.97V13.706H62.1164V18.02C62.1164 18.544 62.2084 18.904 62.3924 19.1C62.5804 19.296 62.8764 19.394 63.2804 19.394C63.5564 19.394 63.8264 19.322 64.0904 19.178C64.3544 19.034 64.5984 18.808 64.8224 18.5V18.98C64.5184 19.352 64.1764 19.636 63.7964 19.832C63.4164 20.028 63.0244 20.126 62.6204 20.126ZM64.7804 20.126V18.944L64.7144 18.92V14.156L63.8324 13.97V13.706H65.9384V19.088L66.7544 19.376V19.538L64.8824 20.126H64.7804ZM67.3929 20V19.736L68.3049 19.55V11.21L67.4049 10.892V10.706L69.4029 10.142H69.5289V19.55L70.4289 19.736V20H67.3929ZM72.6954 20.126C72.2674 20.126 71.9194 19.992 71.6514 19.724C71.3874 19.456 71.2554 19.108 71.2554 18.68C71.2554 18.328 71.3634 18.024 71.5794 17.768C71.7954 17.512 72.1434 17.288 72.6234 17.096C73.1074 16.9 73.7454 16.722 74.5374 16.562V15.44C74.5374 14.932 74.4674 14.576 74.3274 14.372C74.1914 14.168 73.9554 14.066 73.6194 14.066C73.2874 14.066 73.0234 14.146 72.8274 14.306C72.6314 14.466 72.5334 14.682 72.5334 14.954C72.5334 15.03 72.5374 15.106 72.5454 15.182C72.5574 15.254 72.5634 15.324 72.5634 15.392C72.5634 15.596 72.5014 15.764 72.3774 15.896C72.2574 16.028 72.1034 16.094 71.9154 16.094C71.7434 16.094 71.6034 16.038 71.4954 15.926C71.3914 15.814 71.3394 15.668 71.3394 15.488C71.3394 15.228 71.4514 14.962 71.6754 14.69C71.9034 14.414 72.2034 14.178 72.5754 13.982C73.0714 13.718 73.6094 13.586 74.1894 13.586C74.5374 13.586 74.8314 13.64 75.0714 13.748C75.3154 13.856 75.4914 14.01 75.5994 14.21C75.6634 14.346 75.7054 14.518 75.7254 14.726C75.7494 14.934 75.7614 15.282 75.7614 15.77V18.452C75.7614 18.84 75.7914 19.104 75.8514 19.244C75.9154 19.384 76.0334 19.454 76.2054 19.454C76.4014 19.454 76.5914 19.342 76.7754 19.118L76.9914 19.322C76.7954 19.606 76.5954 19.812 76.3914 19.94C76.1914 20.064 75.9574 20.126 75.6894 20.126C75.3654 20.126 75.1134 20.038 74.9334 19.862C74.7534 19.686 74.6334 19.418 74.5734 19.058H74.5374C74.3094 19.386 74.0334 19.646 73.7094 19.838C73.3854 20.03 73.0474 20.126 72.6954 20.126ZM73.2954 19.364C73.5434 19.364 73.7754 19.3 73.9914 19.172C74.2074 19.04 74.3894 18.858 74.5374 18.626V16.934C74.0014 17.038 73.5794 17.152 73.2714 17.276C72.9674 17.4 72.7514 17.552 72.6234 17.732C72.4994 17.908 72.4374 18.13 72.4374 18.398C72.4374 18.706 72.5094 18.944 72.6534 19.112C72.8014 19.28 73.0154 19.364 73.2954 19.364ZM77.3915 20V19.736L78.2915 19.55V14.66L77.4155 14.33V14.156L79.3355 13.58H79.4675V14.876L79.5155 14.936V19.55L80.7515 19.736V20H77.3915ZM79.4255 15.428L79.4015 14.936C79.6975 14.5 79.9915 14.164 80.2835 13.928C80.5795 13.692 80.8555 13.574 81.1115 13.574C81.3315 13.574 81.5175 13.65 81.6695 13.802C81.8215 13.95 81.8975 14.13 81.8975 14.342C81.8975 14.538 81.8315 14.704 81.6995 14.84C81.5675 14.972 81.4035 15.038 81.2075 15.038C81.0075 15.038 80.8515 14.964 80.7395 14.816C80.6595 14.724 80.5915 14.662 80.5355 14.63C80.4795 14.594 80.4155 14.576 80.3435 14.576C80.2275 14.576 80.0815 14.654 79.9055 14.81C79.7335 14.962 79.5735 15.168 79.4255 15.428ZM90.4952 20.126L87.1952 12.218H87.1472V19.472L88.2092 19.712V20H85.5632V19.712L86.6312 19.472V11.378L85.5632 11.15V10.862H88.2092L91.0952 17.774H91.1552L94.0592 10.862H96.6212V11.15L95.5712 11.378V19.472L96.6212 19.712V20H93.1532V19.712L94.2152 19.472V12.302H94.1672L90.8552 20.126H90.4952ZM99.0626 20.126C98.6346 20.126 98.2866 19.992 98.0186 19.724C97.7546 19.456 97.6226 19.108 97.6226 18.68C97.6226 18.328 97.7306 18.024 97.9466 17.768C98.1626 17.512 98.5106 17.288 98.9906 17.096C99.4746 16.9 100.113 16.722 100.905 16.562V15.44C100.905 14.932 100.835 14.576 100.695 14.372C100.559 14.168 100.323 14.066 99.9866 14.066C99.6546 14.066 99.3906 14.146 99.1946 14.306C98.9986 14.466 98.9006 14.682 98.9006 14.954C98.9006 15.03 98.9046 15.106 98.9126 15.182C98.9246 15.254 98.9306 15.324 98.9306 15.392C98.9306 15.596 98.8686 15.764 98.7446 15.896C98.6246 16.028 98.4706 16.094 98.2826 16.094C98.1106 16.094 97.9706 16.038 97.8626 15.926C97.7586 15.814 97.7066 15.668 97.7066 15.488C97.7066 15.228 97.8186 14.962 98.0426 14.69C98.2706 14.414 98.5706 14.178 98.9426 13.982C99.4386 13.718 99.9766 13.586 100.557 13.586C100.905 13.586 101.199 13.64 101.439 13.748C101.683 13.856 101.859 14.01 101.967 14.21C102.031 14.346 102.073 14.518 102.093 14.726C102.117 14.934 102.129 15.282 102.129 15.77V18.452C102.129 18.84 102.159 19.104 102.219 19.244C102.283 19.384 102.401 19.454 102.573 19.454C102.769 19.454 102.959 19.342 103.143 19.118L103.359 19.322C103.163 19.606 102.963 19.812 102.759 19.94C102.559 20.064 102.325 20.126 102.057 20.126C101.733 20.126 101.481 20.038 101.301 19.862C101.121 19.686 101.001 19.418 100.941 19.058H100.905C100.677 19.386 100.401 19.646 100.077 19.838C99.7526 20.03 99.4146 20.126 99.0626 20.126ZM99.6626 19.364C99.9106 19.364 100.143 19.3 100.359 19.172C100.575 19.04 100.757 18.858 100.905 18.626V16.934C100.369 17.038 99.9466 17.152 99.6386 17.276C99.3346 17.4 99.1186 17.552 98.9906 17.732C98.8666 17.908 98.8046 18.13 98.8046 18.398C98.8046 18.706 98.8766 18.944 99.0206 19.112C99.1686 19.28 99.3826 19.364 99.6626 19.364ZM105.889 20.126C105.445 20.126 105.107 20 104.875 19.748C104.643 19.496 104.527 19.134 104.527 18.662V14.15H103.747L103.711 13.934L105.511 12.146L105.745 12.17V13.706H107.461L107.359 14.15H105.745V18.542C105.745 19.198 105.981 19.526 106.453 19.526C106.613 19.526 106.771 19.484 106.927 19.4C107.087 19.316 107.223 19.2 107.335 19.052L107.545 19.238C107.361 19.51 107.121 19.726 106.825 19.886C106.533 20.046 106.221 20.126 105.889 20.126ZM111.079 20.126C110.499 20.126 109.989 19.994 109.549 19.73C109.113 19.462 108.773 19.09 108.529 18.614C108.289 18.134 108.169 17.58 108.169 16.952C108.169 16.284 108.303 15.698 108.571 15.194C108.843 14.69 109.221 14.296 109.705 14.012C110.193 13.728 110.757 13.586 111.397 13.586C112.189 13.586 112.795 13.816 113.215 14.276C113.639 14.736 113.859 15.41 113.875 16.298L113.791 16.37H109.141V16.022L112.501 15.902C112.529 15.798 112.543 15.64 112.543 15.428C112.543 14.468 112.121 13.988 111.277 13.988C110.697 13.988 110.249 14.216 109.933 14.672C109.621 15.124 109.465 15.766 109.465 16.598C109.465 18.338 110.141 19.208 111.493 19.208C112.373 19.208 113.047 18.888 113.515 18.248L113.737 18.386C113.529 18.938 113.191 19.366 112.723 19.67C112.259 19.974 111.711 20.126 111.079 20.126ZM114.716 20V19.736L115.616 19.55V14.66L114.74 14.33V14.156L116.66 13.58H116.792V14.876L116.84 14.936V19.55L118.076 19.736V20H114.716ZM116.75 15.428L116.726 14.936C117.022 14.5 117.316 14.164 117.608 13.928C117.904 13.692 118.18 13.574 118.436 13.574C118.656 13.574 118.842 13.65 118.994 13.802C119.146 13.95 119.222 14.13 119.222 14.342C119.222 14.538 119.156 14.704 119.024 14.84C118.892 14.972 118.728 15.038 118.532 15.038C118.332 15.038 118.176 14.964 118.064 14.816C117.984 14.724 117.916 14.662 117.86 14.63C117.804 14.594 117.74 14.576 117.668 14.576C117.552 14.576 117.406 14.654 117.23 14.81C117.058 14.962 116.898 15.168 116.75 15.428ZM119.755 20V19.736L120.667 19.55V14.66L119.773 14.342V14.156L121.765 13.586H121.897V19.55L122.797 19.736V20H119.755ZM121.273 12.326C121.029 12.326 120.835 12.248 120.691 12.092C120.547 11.936 120.475 11.754 120.475 11.546C120.475 11.318 120.547 11.126 120.691 10.97C120.835 10.814 121.029 10.736 121.273 10.736C121.521 10.736 121.717 10.814 121.861 10.97C122.009 11.126 122.083 11.318 122.083 11.546C122.083 11.754 122.009 11.936 121.861 12.092C121.717 12.248 121.521 12.326 121.273 12.326ZM125.055 20.126C124.627 20.126 124.279 19.992 124.011 19.724C123.747 19.456 123.615 19.108 123.615 18.68C123.615 18.328 123.723 18.024 123.939 17.768C124.155 17.512 124.503 17.288 124.983 17.096C125.467 16.9 126.105 16.722 126.897 16.562V15.44C126.897 14.932 126.827 14.576 126.687 14.372C126.551 14.168 126.315 14.066 125.979 14.066C125.647 14.066 125.383 14.146 125.187 14.306C124.991 14.466 124.893 14.682 124.893 14.954C124.893 15.03 124.897 15.106 124.905 15.182C124.917 15.254 124.923 15.324 124.923 15.392C124.923 15.596 124.861 15.764 124.737 15.896C124.617 16.028 124.463 16.094 124.275 16.094C124.103 16.094 123.963 16.038 123.855 15.926C123.751 15.814 123.699 15.668 123.699 15.488C123.699 15.228 123.811 14.962 124.035 14.69C124.263 14.414 124.563 14.178 124.935 13.982C125.431 13.718 125.969 13.586 126.549 13.586C126.897 13.586 127.191 13.64 127.431 13.748C127.675 13.856 127.851 14.01 127.959 14.21C128.023 14.346 128.065 14.518 128.085 14.726C128.109 14.934 128.121 15.282 128.121 15.77V18.452C128.121 18.84 128.151 19.104 128.211 19.244C128.275 19.384 128.393 19.454 128.565 19.454C128.761 19.454 128.951 19.342 129.135 19.118L129.351 19.322C129.155 19.606 128.955 19.812 128.751 19.94C128.551 20.064 128.317 20.126 128.049 20.126C127.725 20.126 127.473 20.038 127.293 19.862C127.113 19.686 126.993 19.418 126.933 19.058H126.897C126.669 19.386 126.393 19.646 126.069 19.838C125.745 20.03 125.407 20.126 125.055 20.126ZM125.655 19.364C125.903 19.364 126.135 19.3 126.351 19.172C126.567 19.04 126.749 18.858 126.897 18.626V16.934C126.361 17.038 125.939 17.152 125.631 17.276C125.327 17.4 125.111 17.552 124.983 17.732C124.859 17.908 124.797 18.13 124.797 18.398C124.797 18.706 124.869 18.944 125.013 19.112C125.161 19.28 125.375 19.364 125.655 19.364ZM129.643 20V19.736L130.555 19.55V11.21L129.655 10.892V10.706L131.653 10.142H131.779V19.55L132.679 19.736V20H129.643Z" fill="white"/>
<path d="M31 0H5C2.23858 0 0 2.23858 0 5V27C0 29.7614 2.23858 32 5 32H31V0Z" fill="#3F51B5"/>
<path d="M12.8067 16.645H17.1933L14.9989 11.737M14.9989 4L3 7.982L4.82968 22.753L15 28L25.1724 22.758L27 7.984L14.9989 4.001V4ZM22.4873 22.31H19.6908L18.1834 18.807H11.8155L10.3081 22.311H7.50954L15 6.65L22.4873 22.31Z" fill="white"/>
</svg>
