<svg width="100" height="32" viewBox="0 0 100 32" fill="none" xmlns="http://www.w3.org/2000/svg">
<path d="M95 0H31V32H95C97.7614 32 100 29.7614 100 27V5C100 2.23858 97.7614 0 95 0Z" fill="#0F1418"/>
<path d="M45.564 20V19.712L46.584 19.472V11.378L45.564 11.15V10.862H49.062V11.15L47.934 11.378V19.502H51.3C51.516 19.138 51.702 18.772 51.858 18.404C52.014 18.036 52.164 17.624 52.308 17.168H52.662L52.212 20H45.564ZM54.8673 20.126C54.4393 20.126 54.0913 19.992 53.8233 19.724C53.5593 19.456 53.4273 19.108 53.4273 18.68C53.4273 18.328 53.5353 18.024 53.7513 17.768C53.9673 17.512 54.3153 17.288 54.7953 17.096C55.2793 16.9 55.9173 16.722 56.7093 16.562V15.44C56.7093 14.932 56.6393 14.576 56.4993 14.372C56.3633 14.168 56.1273 14.066 55.7913 14.066C55.4593 14.066 55.1953 14.146 54.9993 14.306C54.8033 14.466 54.7053 14.682 54.7053 14.954C54.7053 15.03 54.7093 15.106 54.7173 15.182C54.7293 15.254 54.7353 15.324 54.7353 15.392C54.7353 15.596 54.6733 15.764 54.5493 15.896C54.4293 16.028 54.2753 16.094 54.0873 16.094C53.9153 16.094 53.7753 16.038 53.6673 15.926C53.5633 15.814 53.5113 15.668 53.5113 15.488C53.5113 15.228 53.6233 14.962 53.8473 14.69C54.0753 14.414 54.3753 14.178 54.7473 13.982C55.2433 13.718 55.7813 13.586 56.3613 13.586C56.7093 13.586 57.0033 13.64 57.2433 13.748C57.4873 13.856 57.6633 14.01 57.7713 14.21C57.8353 14.346 57.8773 14.518 57.8973 14.726C57.9213 14.934 57.9333 15.282 57.9333 15.77V18.452C57.9333 18.84 57.9633 19.104 58.0233 19.244C58.0873 19.384 58.2053 19.454 58.3773 19.454C58.5733 19.454 58.7633 19.342 58.9473 19.118L59.1633 19.322C58.9673 19.606 58.7673 19.812 58.5633 19.94C58.3633 20.064 58.1293 20.126 57.8613 20.126C57.5373 20.126 57.2853 20.038 57.1053 19.862C56.9253 19.686 56.8053 19.418 56.7453 19.058H56.7093C56.4813 19.386 56.2053 19.646 55.8813 19.838C55.5573 20.03 55.2193 20.126 54.8673 20.126ZM55.4673 19.364C55.7153 19.364 55.9473 19.3 56.1633 19.172C56.3793 19.04 56.5613 18.858 56.7093 18.626V16.934C56.1733 17.038 55.7513 17.152 55.4433 17.276C55.1393 17.4 54.9233 17.552 54.7953 17.732C54.6713 17.908 54.6093 18.13 54.6093 18.398C54.6093 18.706 54.6813 18.944 54.8253 19.112C54.9733 19.28 55.1873 19.364 55.4673 19.364ZM59.5634 20V19.736L60.4634 19.55V14.66L59.5874 14.33V14.156L61.5074 13.58H61.6394V14.876L61.6874 14.936V19.55L62.9234 19.736V20H59.5634ZM61.5974 15.428L61.5734 14.936C61.8694 14.5 62.1634 14.164 62.4554 13.928C62.7514 13.692 63.0274 13.574 63.2834 13.574C63.5034 13.574 63.6894 13.65 63.8414 13.802C63.9934 13.95 64.0694 14.13 64.0694 14.342C64.0694 14.538 64.0034 14.704 63.8714 14.84C63.7394 14.972 63.5754 15.038 63.3794 15.038C63.1794 15.038 63.0234 14.964 62.9114 14.816C62.8314 14.724 62.7634 14.662 62.7074 14.63C62.6514 14.594 62.5874 14.576 62.5154 14.576C62.3994 14.576 62.2534 14.654 62.0774 14.81C61.9054 14.962 61.7454 15.168 61.5974 15.428ZM66.1876 20.126C65.7596 20.126 65.4116 19.992 65.1436 19.724C64.8796 19.456 64.7476 19.108 64.7476 18.68C64.7476 18.328 64.8556 18.024 65.0716 17.768C65.2876 17.512 65.6356 17.288 66.1156 17.096C66.5996 16.9 67.2376 16.722 68.0296 16.562V15.44C68.0296 14.932 67.9596 14.576 67.8196 14.372C67.6836 14.168 67.4476 14.066 67.1116 14.066C66.7796 14.066 66.5156 14.146 66.3196 14.306C66.1236 14.466 66.0256 14.682 66.0256 14.954C66.0256 15.03 66.0296 15.106 66.0376 15.182C66.0496 15.254 66.0556 15.324 66.0556 15.392C66.0556 15.596 65.9936 15.764 65.8696 15.896C65.7496 16.028 65.5956 16.094 65.4076 16.094C65.2356 16.094 65.0956 16.038 64.9876 15.926C64.8836 15.814 64.8316 15.668 64.8316 15.488C64.8316 15.228 64.9436 14.962 65.1676 14.69C65.3956 14.414 65.6956 14.178 66.0676 13.982C66.5636 13.718 67.1016 13.586 67.6816 13.586C68.0296 13.586 68.3236 13.64 68.5636 13.748C68.8076 13.856 68.9836 14.01 69.0916 14.21C69.1556 14.346 69.1976 14.518 69.2176 14.726C69.2416 14.934 69.2536 15.282 69.2536 15.77V18.452C69.2536 18.84 69.2836 19.104 69.3436 19.244C69.4076 19.384 69.5256 19.454 69.6976 19.454C69.8936 19.454 70.0836 19.342 70.2676 19.118L70.4836 19.322C70.2876 19.606 70.0876 19.812 69.8836 19.94C69.6836 20.064 69.4496 20.126 69.1816 20.126C68.8576 20.126 68.6056 20.038 68.4256 19.862C68.2456 19.686 68.1256 19.418 68.0656 19.058H68.0296C67.8016 19.386 67.5256 19.646 67.2016 19.838C66.8776 20.03 66.5396 20.126 66.1876 20.126ZM66.7876 19.364C67.0356 19.364 67.2676 19.3 67.4836 19.172C67.6996 19.04 67.8816 18.858 68.0296 18.626V16.934C67.4936 17.038 67.0716 17.152 66.7636 17.276C66.4596 17.4 66.2436 17.552 66.1156 17.732C65.9916 17.908 65.9296 18.13 65.9296 18.398C65.9296 18.706 66.0016 18.944 66.1456 19.112C66.2936 19.28 66.5076 19.364 66.7876 19.364ZM73.1533 20.126L70.9813 14.48C70.9093 14.292 70.8213 14.166 70.7173 14.102C70.6133 14.034 70.4113 13.99 70.1113 13.97V13.706H73.2013V13.97C72.8613 13.982 72.6373 14.012 72.5293 14.06C72.4213 14.104 72.3673 14.174 72.3673 14.27C72.3673 14.362 72.3913 14.474 72.4393 14.606L73.7953 18.452H73.8433L75.1093 14.864C75.1813 14.66 75.2173 14.504 75.2173 14.396C75.2173 14.28 75.1653 14.194 75.0613 14.138C74.9573 14.078 74.7293 14.022 74.3773 13.97V13.706H76.8373V13.97C76.5413 14.018 76.3173 14.076 76.1653 14.144C76.0133 14.208 75.8993 14.298 75.8233 14.414C75.7513 14.53 75.6793 14.686 75.6073 14.882L73.7233 20.126H73.1533ZM79.8094 20.126C79.2294 20.126 78.7194 19.994 78.2794 19.73C77.8434 19.462 77.5034 19.09 77.2594 18.614C77.0194 18.134 76.8994 17.58 76.8994 16.952C76.8994 16.284 77.0334 15.698 77.3014 15.194C77.5734 14.69 77.9514 14.296 78.4354 14.012C78.9234 13.728 79.4874 13.586 80.1274 13.586C80.9194 13.586 81.5254 13.816 81.9454 14.276C82.3694 14.736 82.5894 15.41 82.6054 16.298L82.5214 16.37H77.8714V16.022L81.2314 15.902C81.2594 15.798 81.2734 15.64 81.2734 15.428C81.2734 14.468 80.8514 13.988 80.0074 13.988C79.4274 13.988 78.9794 14.216 78.6634 14.672C78.3514 15.124 78.1954 15.766 78.1954 16.598C78.1954 18.338 78.8714 19.208 80.2234 19.208C81.1034 19.208 81.7774 18.888 82.2454 18.248L82.4674 18.386C82.2594 18.938 81.9214 19.366 81.4534 19.67C80.9894 19.974 80.4414 20.126 79.8094 20.126ZM83.3382 20V19.736L84.2502 19.55V11.21L83.3502 10.892V10.706L85.3482 10.142H85.4742V19.55L86.3742 19.736V20H83.3382Z" fill="white"/>
<path d="M31 0H5C2.23858 0 0 2.23858 0 5V27C0 29.7614 2.23858 32 5 32H31V0Z" fill="#FF2D20"/>
<path d="M26.9856 9.43024C26.9951 9.46276 27 9.49642 27 9.53024V14.6792C27 14.8142 26.9248 14.9392 26.8054 15.0052L22.3548 17.4952V22.4292C22.3547 22.4953 22.3368 22.5601 22.3028 22.6173C22.2688 22.6745 22.2201 22.7221 22.1613 22.7552L12.8689 27.9492C12.8474 27.9607 12.8246 27.9698 12.801 27.9762C12.7927 27.9782 12.7845 27.9842 12.7763 27.9862C12.7117 28.0042 12.6432 28.0042 12.5786 27.9862C12.5673 27.9842 12.558 27.9782 12.5477 27.9742C12.5271 27.9662 12.5045 27.9602 12.4839 27.9492L3.19458 22.7552C3.13548 22.7223 3.08637 22.6749 3.05221 22.6176C3.01805 22.5604 3.00004 22.4954 3 22.4292V6.97424C3 6.94124 3.00515 6.90824 3.01441 6.87624C3.0175 6.86424 3.02471 6.85624 3.02883 6.84424C3.03502 6.82429 3.04294 6.80489 3.05251 6.78624C3.05662 6.77324 3.06795 6.76424 3.07618 6.75324L3.11016 6.70824C3.12251 6.69824 3.1359 6.69024 3.14825 6.68124C3.16266 6.66924 3.17605 6.65724 3.19046 6.64724L7.83768 4.05024C7.89637 4.01733 7.96294 4 8.03071 4C8.09848 4 8.16506 4.01733 8.22375 4.05024L12.8689 6.64724H12.871C12.8864 6.65724 12.8988 6.66824 12.9121 6.68024L12.9513 6.70724C12.9647 6.72124 12.9719 6.73724 12.9852 6.75224C12.9935 6.76324 13.0058 6.77324 13.011 6.78524C13.0213 6.80524 13.0285 6.82324 13.0357 6.84324C13.0388 6.85424 13.046 6.86424 13.0491 6.87524C13.0594 6.90624 13.0635 6.93924 13.0635 6.97324V16.6252L16.9345 14.4612V9.52724C16.9345 9.49424 16.9386 9.46124 16.9478 9.42924C16.9509 9.41924 16.9581 9.40924 16.9612 9.39724C16.9681 9.37707 16.9764 9.35736 16.9859 9.33824C16.9931 9.32624 17.0045 9.31824 17.0117 9.30524C17.024 9.29024 17.0333 9.27524 17.0456 9.26224C17.058 9.25024 17.0714 9.24224 17.0837 9.23424C17.0981 9.22424 17.1105 9.21124 17.1259 9.20224H17.127L21.7732 6.60424C21.8319 6.57133 21.8984 6.554 21.9662 6.554C22.034 6.554 22.1005 6.57133 22.1592 6.60424L26.8054 9.20224C26.8219 9.21224 26.8332 9.22324 26.8487 9.23324C26.861 9.24324 26.8744 9.25124 26.8857 9.26124C26.8991 9.27524 26.9084 9.29124 26.9207 9.30524C26.929 9.31724 26.9403 9.32624 26.9454 9.33824C26.9568 9.35824 26.964 9.37824 26.9701 9.39824C26.9763 9.40824 26.9825 9.41924 26.9856 9.43024ZM26.2237 14.4622V10.1792L24.5992 11.0872L22.3528 12.3432V16.6262L26.2237 14.4622ZM21.5806 22.2122V17.9252L19.3703 19.1502L13.0635 22.6482V26.9732L21.5806 22.2122ZM3.77111 7.62424V22.2122L12.2883 26.9732V22.6482L7.83871 20.2032L7.83665 20.2002H7.83459C7.82018 20.1902 7.80885 20.1792 7.79341 20.1692C7.78209 20.1592 7.7687 20.1512 7.75738 20.1422L7.75635 20.1402C7.74297 20.1282 7.73473 20.1152 7.72443 20.1002C7.71414 20.0892 7.70281 20.0782 7.69561 20.0642H7.69355C7.68531 20.0502 7.68016 20.0332 7.67296 20.0172C7.66678 20.0012 7.65854 19.9902 7.65443 19.9742C7.65053 19.9554 7.64778 19.9364 7.64619 19.9172C7.64413 19.9032 7.64001 19.8902 7.64001 19.8762V9.78924L5.39568 8.53224L3.77111 7.62424ZM8.0302 4.81024L4.15923 6.97424L8.0302 9.13824L11.8991 6.97424L8.0302 4.81024ZM10.0439 18.3152L12.2903 17.0592V7.62424L10.6637 8.53424L8.4173 9.78924V19.2242L10.0439 18.3152ZM21.9667 7.36524L18.0957 9.52824L21.9667 11.6912L25.8366 9.52724L21.9667 7.36524ZM21.5796 12.3432L19.3342 11.0872L17.7076 10.1802V14.4632L19.954 15.7192L21.5806 16.6272L21.5796 12.3432ZM12.6743 21.9972L18.3511 18.8492L21.1884 17.2772L17.3205 15.1142L12.8699 17.6032L8.81263 19.8732L12.6743 21.9972Z" fill="white"/>
</svg>
