<svg width="110" height="32" viewBox="0 0 110 32" fill="none" xmlns="http://www.w3.org/2000/svg">
<path d="M104.275 0H31V32H104.275C107.437 32 110 29.7614 110 27V5C110 2.23858 107.437 0 104.275 0Z" fill="#0F1418"/>
<path d="M40.612 20.108C40.284 20.108 39.964 20.06 39.652 19.964C39.344 19.868 39.018 19.718 38.674 19.514L38.2 20H37.954L37.732 16.958L38.056 16.892C38.296 17.832 38.612 18.514 39.004 18.938C39.4 19.362 39.922 19.574 40.57 19.574C41.114 19.574 41.544 19.444 41.86 19.184C42.176 18.92 42.334 18.564 42.334 18.116C42.334 17.764 42.224 17.45 42.004 17.174C41.788 16.894 41.432 16.614 40.936 16.334L40.018 15.848C39.27 15.444 38.734 15.042 38.41 14.642C38.086 14.242 37.924 13.776 37.924 13.244C37.924 12.764 38.042 12.336 38.278 11.96C38.514 11.58 38.836 11.282 39.244 11.066C39.656 10.846 40.118 10.736 40.63 10.736C41.33 10.736 41.94 10.982 42.46 11.474L42.826 10.85H43.084L43.192 13.472H42.85C42.662 12.724 42.39 12.172 42.034 11.816C41.682 11.456 41.232 11.276 40.684 11.276C40.24 11.276 39.888 11.394 39.628 11.63C39.372 11.866 39.244 12.19 39.244 12.602C39.244 12.974 39.366 13.306 39.61 13.598C39.858 13.89 40.274 14.19 40.858 14.498L41.752 14.978C42.364 15.302 42.806 15.662 43.078 16.058C43.354 16.454 43.492 16.908 43.492 17.42C43.492 17.928 43.364 18.386 43.108 18.794C42.856 19.198 42.512 19.518 42.076 19.754C41.644 19.99 41.156 20.108 40.612 20.108ZM44.3827 22.97V22.736L45.2947 22.538V14.66L44.4127 14.342V14.156L46.3267 13.586H46.4707V14.612H46.5187C46.7587 14.256 47.0527 13.996 47.4007 13.832C47.7527 13.668 48.1087 13.586 48.4687 13.586C48.9687 13.586 49.4067 13.724 49.7827 14C50.1627 14.272 50.4587 14.646 50.6707 15.122C50.8867 15.598 50.9947 16.142 50.9947 16.754C50.9947 17.414 50.8547 17.998 50.5747 18.506C50.2947 19.014 49.9047 19.412 49.4047 19.7C48.9087 19.984 48.3287 20.126 47.6647 20.126C47.4727 20.126 47.2827 20.11 47.0947 20.078C46.9067 20.05 46.7167 20.004 46.5247 19.94V22.538L47.7487 22.736V22.97H44.3827ZM47.7127 19.724C48.1007 19.724 48.4407 19.606 48.7327 19.37C49.0247 19.134 49.2507 18.808 49.4107 18.392C49.5747 17.972 49.6567 17.49 49.6567 16.946C49.6567 16.15 49.4947 15.524 49.1707 15.068C48.8507 14.612 48.4127 14.384 47.8567 14.384C47.6127 14.384 47.3627 14.45 47.1067 14.582C46.8507 14.71 46.6707 14.872 46.5667 15.068V18.542C46.5667 18.886 46.6767 19.17 46.8967 19.394C47.1207 19.614 47.3927 19.724 47.7127 19.724ZM51.9033 20V19.736L52.8033 19.55V14.66L51.9272 14.33V14.156L53.8473 13.58H53.9793V14.876L54.0273 14.936V19.55L55.2633 19.736V20H51.9033ZM53.9373 15.428L53.9133 14.936C54.2093 14.5 54.5033 14.164 54.7953 13.928C55.0913 13.692 55.3673 13.574 55.6233 13.574C55.8433 13.574 56.0293 13.65 56.1813 13.802C56.3333 13.95 56.4093 14.13 56.4093 14.342C56.4093 14.538 56.3433 14.704 56.2113 14.84C56.0793 14.972 55.9153 15.038 55.7193 15.038C55.5193 15.038 55.3633 14.964 55.2513 14.816C55.1713 14.724 55.1033 14.662 55.0473 14.63C54.9913 14.594 54.9273 14.576 54.8553 14.576C54.7393 14.576 54.5933 14.654 54.4173 14.81C54.2453 14.962 54.0853 15.168 53.9373 15.428ZM56.942 20V19.736L57.854 19.55V14.66L56.96 14.342V14.156L58.952 13.586H59.084V19.55L59.984 19.736V20H56.942ZM58.46 12.326C58.216 12.326 58.022 12.248 57.878 12.092C57.734 11.936 57.662 11.754 57.662 11.546C57.662 11.318 57.734 11.126 57.878 10.97C58.022 10.814 58.216 10.736 58.46 10.736C58.708 10.736 58.904 10.814 59.048 10.97C59.196 11.126 59.27 11.318 59.27 11.546C59.27 11.754 59.196 11.936 59.048 12.092C58.904 12.248 58.708 12.326 58.46 12.326ZM64.5103 20V19.736L65.3863 19.562V15.71C65.3863 15.234 65.2903 14.88 65.0983 14.648C64.9063 14.412 64.5963 14.294 64.1683 14.294C63.5403 14.294 63.0183 14.58 62.6023 15.152V14.654C62.9383 14.318 63.3063 14.056 63.7063 13.868C64.1063 13.68 64.5043 13.586 64.9003 13.586C66.0403 13.586 66.6103 14.124 66.6103 15.2V19.562L67.4983 19.736V20H64.5103ZM60.6043 20V19.736L61.5043 19.55V14.672L60.6163 14.342V14.168L62.5363 13.586H62.6683V14.648L62.7283 14.708V19.55L63.6103 19.736V20H60.6043ZM72.154 14.03C72.222 13.834 72.312 13.634 72.424 13.43C72.536 13.222 72.676 13.046 72.844 12.902C73.012 12.758 73.21 12.686 73.438 12.686C73.626 12.686 73.79 12.74 73.93 12.848C74.07 12.956 74.14 13.104 74.14 13.292C74.14 13.452 74.086 13.59 73.978 13.706C73.87 13.818 73.736 13.874 73.576 13.874C73.46 13.874 73.374 13.848 73.318 13.796C73.262 13.744 73.21 13.692 73.162 13.64C73.118 13.588 73.046 13.562 72.946 13.562C72.838 13.562 72.74 13.632 72.652 13.772C72.564 13.908 72.502 14.064 72.466 14.24L72.154 14.03ZM70.864 17.594C71.168 17.594 71.404 17.496 71.572 17.3C71.744 17.104 71.864 16.862 71.932 16.574C72 16.282 72.034 16 72.034 15.728C72.034 15.556 72.018 15.37 71.986 15.17C71.958 14.966 71.904 14.774 71.824 14.594C71.748 14.41 71.636 14.26 71.488 14.144C71.344 14.024 71.158 13.964 70.93 13.964C70.69 13.964 70.494 14.028 70.342 14.156C70.19 14.28 70.072 14.442 69.988 14.642C69.904 14.838 69.846 15.044 69.814 15.26C69.782 15.476 69.766 15.674 69.766 15.854C69.766 16.082 69.794 16.332 69.85 16.604C69.906 16.872 70.012 17.104 70.168 17.3C70.328 17.496 70.56 17.594 70.864 17.594ZM70.87 17.99C70.446 17.99 70.122 18.04 69.898 18.14C69.674 18.236 69.562 18.386 69.562 18.59C69.562 18.734 69.662 18.854 69.862 18.95C70.066 19.042 70.46 19.132 71.044 19.22L71.902 19.37C72.598 19.478 73.11 19.662 73.438 19.922C73.77 20.178 73.936 20.526 73.936 20.966C73.936 21.33 73.834 21.646 73.63 21.914C73.426 22.182 73.152 22.402 72.808 22.574C72.468 22.75 72.088 22.88 71.668 22.964C71.248 23.048 70.822 23.09 70.39 23.09C70.074 23.09 69.764 23.06 69.46 23C69.156 22.944 68.88 22.854 68.632 22.73C68.388 22.606 68.192 22.446 68.044 22.25C67.896 22.054 67.822 21.816 67.822 21.536C67.822 21.208 67.944 20.912 68.188 20.648C68.432 20.388 68.852 20.138 69.448 19.898L69.814 20.048C69.51 20.164 69.272 20.344 69.1 20.588C68.928 20.836 68.842 21.102 68.842 21.386C68.842 21.678 68.924 21.918 69.088 22.106C69.252 22.298 69.47 22.44 69.742 22.532C70.018 22.628 70.316 22.676 70.636 22.676C71.024 22.676 71.394 22.632 71.746 22.544C72.102 22.456 72.392 22.32 72.616 22.136C72.844 21.952 72.958 21.716 72.958 21.428C72.958 21.28 72.91 21.146 72.814 21.026C72.718 20.906 72.532 20.792 72.256 20.684C71.984 20.58 71.582 20.478 71.05 20.378L70.06 20.192C69.536 20.092 69.142 19.936 68.878 19.724C68.618 19.512 68.488 19.258 68.488 18.962C68.488 18.826 68.53 18.68 68.614 18.524C68.702 18.368 68.87 18.222 69.118 18.086C69.366 17.946 69.732 17.842 70.216 17.774L70.87 17.99ZM70.87 17.99C70.402 17.99 69.988 17.9 69.628 17.72C69.268 17.536 68.986 17.28 68.782 16.952C68.578 16.62 68.476 16.234 68.476 15.794C68.476 15.37 68.58 14.992 68.788 14.66C69 14.328 69.288 14.066 69.652 13.874C70.016 13.682 70.428 13.586 70.888 13.586C71.344 13.586 71.756 13.68 72.124 13.868C72.492 14.052 72.784 14.308 73 14.636C73.216 14.964 73.324 15.338 73.324 15.758C73.324 16.154 73.222 16.522 73.018 16.862C72.814 17.198 72.528 17.47 72.16 17.678C71.792 17.886 71.362 17.99 70.87 17.99ZM77.8413 20V19.712L78.8613 19.472V11.384L77.8413 11.15V10.862H81.4293C81.9813 10.862 82.4393 10.902 82.8033 10.982C83.1713 11.058 83.4773 11.178 83.7213 11.342C84.0053 11.538 84.2273 11.788 84.3873 12.092C84.5473 12.396 84.6273 12.724 84.6273 13.076C84.6273 13.588 84.4553 14.02 84.1113 14.372C83.7713 14.724 83.2813 14.964 82.6413 15.092V15.134C83.1213 15.186 83.5413 15.324 83.9013 15.548C84.2613 15.768 84.5393 16.052 84.7353 16.4C84.9353 16.748 85.0353 17.14 85.0353 17.576C85.0353 17.94 84.9633 18.28 84.8193 18.596C84.6753 18.912 84.4773 19.172 84.2253 19.376C83.9493 19.6 83.6113 19.76 83.2113 19.856C82.8113 19.952 82.2833 20 81.6273 20H77.8413ZM81.2433 19.526C82.0273 19.526 82.6053 19.36 82.9773 19.028C83.3533 18.692 83.5413 18.174 83.5413 17.474C83.5413 16.758 83.3473 16.232 82.9593 15.896C82.5713 15.556 81.9653 15.386 81.1413 15.386H80.2113V18.818C80.2113 19.094 80.2833 19.282 80.4273 19.382C80.5753 19.478 80.8473 19.526 81.2433 19.526ZM80.2113 14.894H80.8713C81.0873 14.894 81.2673 14.892 81.4113 14.888C81.5593 14.88 81.6953 14.87 81.8193 14.858C82.2593 14.81 82.5973 14.632 82.8333 14.324C83.0693 14.012 83.1873 13.59 83.1873 13.058C83.1873 12.774 83.1513 12.536 83.0793 12.344C83.0073 12.148 82.8933 11.974 82.7373 11.822C82.5653 11.646 82.3573 11.524 82.1133 11.456C81.8733 11.384 81.5433 11.348 81.1233 11.348H80.2113V14.894ZM89.3343 20.126C88.7183 20.126 88.1723 19.984 87.6963 19.7C87.2203 19.412 86.8463 19.022 86.5743 18.53C86.3063 18.034 86.1723 17.476 86.1723 16.856C86.1723 16.232 86.3063 15.674 86.5743 15.182C86.8463 14.69 87.2203 14.302 87.6963 14.018C88.1723 13.73 88.7183 13.586 89.3343 13.586C89.9503 13.586 90.4943 13.73 90.9663 14.018C91.4423 14.302 91.8163 14.69 92.0883 15.182C92.3603 15.674 92.4963 16.232 92.4963 16.856C92.4963 17.476 92.3603 18.034 92.0883 18.53C91.8163 19.022 91.4423 19.412 90.9663 19.7C90.4943 19.984 89.9503 20.126 89.3343 20.126ZM89.3223 19.574C89.6143 19.574 89.8723 19.51 90.0963 19.382C90.3203 19.25 90.5083 19.064 90.6603 18.824C90.8163 18.58 90.9343 18.292 91.0143 17.96C91.0943 17.624 91.1343 17.252 91.1343 16.844C91.1343 16.44 91.0943 16.072 91.0143 15.74C90.9383 15.408 90.8243 15.122 90.6723 14.882C90.5203 14.642 90.3323 14.458 90.1083 14.33C89.8843 14.198 89.6263 14.132 89.3343 14.132C89.0423 14.132 88.7843 14.198 88.5603 14.33C88.3363 14.458 88.1483 14.642 87.9963 14.882C87.8443 15.122 87.7283 15.41 87.6483 15.746C87.5723 16.078 87.5343 16.448 87.5343 16.856C87.5343 17.264 87.5723 17.634 87.6483 17.966C87.7283 18.298 87.8443 18.584 87.9963 18.824C88.1483 19.064 88.3343 19.25 88.5543 19.382C88.7783 19.51 89.0343 19.574 89.3223 19.574ZM96.6936 20.126C96.0776 20.126 95.5316 19.984 95.0556 19.7C94.5796 19.412 94.2056 19.022 93.9336 18.53C93.6656 18.034 93.5316 17.476 93.5316 16.856C93.5316 16.232 93.6656 15.674 93.9336 15.182C94.2056 14.69 94.5796 14.302 95.0556 14.018C95.5316 13.73 96.0776 13.586 96.6936 13.586C97.3096 13.586 97.8536 13.73 98.3256 14.018C98.8016 14.302 99.1756 14.69 99.4476 15.182C99.7196 15.674 99.8556 16.232 99.8556 16.856C99.8556 17.476 99.7196 18.034 99.4476 18.53C99.1756 19.022 98.8016 19.412 98.3256 19.7C97.8536 19.984 97.3096 20.126 96.6936 20.126ZM96.6816 19.574C96.9736 19.574 97.2316 19.51 97.4556 19.382C97.6796 19.25 97.8676 19.064 98.0196 18.824C98.1756 18.58 98.2936 18.292 98.3736 17.96C98.4536 17.624 98.4936 17.252 98.4936 16.844C98.4936 16.44 98.4536 16.072 98.3736 15.74C98.2976 15.408 98.1836 15.122 98.0316 14.882C97.8796 14.642 97.6916 14.458 97.4676 14.33C97.2436 14.198 96.9856 14.132 96.6936 14.132C96.4016 14.132 96.1436 14.198 95.9196 14.33C95.6956 14.458 95.5076 14.642 95.3556 14.882C95.2036 15.122 95.0876 15.41 95.0076 15.746C94.9316 16.078 94.8936 16.448 94.8936 16.856C94.8936 17.264 94.9316 17.634 95.0076 17.966C95.0876 18.298 95.2036 18.584 95.3556 18.824C95.5076 19.064 95.6936 19.25 95.9136 19.382C96.1376 19.51 96.3936 19.574 96.6816 19.574ZM102.877 20.126C102.433 20.126 102.095 20 101.863 19.748C101.631 19.496 101.515 19.134 101.515 18.662V14.15H100.735L100.699 13.934L102.499 12.146L102.733 12.17V13.706H104.449L104.347 14.15H102.733V18.542C102.733 19.198 102.969 19.526 103.441 19.526C103.601 19.526 103.759 19.484 103.915 19.4C104.075 19.316 104.211 19.2 104.323 19.052L104.533 19.238C104.349 19.51 104.109 19.726 103.813 19.886C103.521 20.046 103.209 20.126 102.877 20.126Z" fill="white"/>
<path d="M31 0H5C2.23858 0 0 2.23858 0 5V27C0 29.7614 2.23858 32 5 32H31V0Z" fill="#68BD45"/>
<path d="M26.338 14.22L22.618 7.92C22.282 7.35 21.808 6.882 21.256 6.558L21.16 6.39H20.956C20.434 6.138 19.852 6 19.258 6H11.68C11.08 6 10.504 6.138 9.982 6.39H9.718L9.586 6.61201C9.076 6.93601 8.638 7.38 8.32 7.92L4.6 14.22C4.258 14.802 4.078 15.444 4.06 16.092L4 16.2L4.06 16.308C4.078 16.956 4.258 17.598 4.6 18.18L8.32 24.48C8.638 25.02 9.076 25.464 9.592 25.788L9.718 26.004H9.97C10.498 26.262 11.074 26.4 11.68 26.4H19.258C19.858 26.4 20.44 26.262 20.968 26.004H21.16L21.25 25.848C21.808 25.518 22.282 25.056 22.618 24.48L26.338 18.18C26.698 17.568 26.878 16.884 26.878 16.2C26.878 15.516 26.698 14.832 26.338 14.22ZM12.874 19.242C14.47 20.682 16.942 20.55 18.376 18.954C19.816 17.358 19.684 14.886 18.088 13.452C17.716 13.116 17.686 12.546 18.022 12.18C18.352 11.808 18.922 11.778 19.294 12.114C21.628 14.214 21.814 17.826 19.714 20.16C18.592 21.408 17.038 22.044 15.478 22.044C14.116 22.044 12.754 21.558 11.668 20.58C9.334 18.48 9.142 14.868 11.248 12.534C11.41 12.354 11.584 12.18 11.764 12.024C12.142 11.7 12.712 11.748 13.036 12.12C13.36 12.498 13.318 13.068 12.94 13.392C12.814 13.5 12.694 13.614 12.58 13.74C11.146 15.336 11.278 17.808 12.874 19.242ZM14.578 15.3V11.1C14.578 10.602 14.986 10.2 15.478 10.2C15.976 10.2 16.378 10.602 16.378 11.1V15.3C16.378 15.798 15.976 16.2 15.478 16.2C14.986 16.2 14.578 15.798 14.578 15.3Z" fill="white"/>
<path d="M26.338 14.22L22.618 7.92C22.282 7.35 21.808 6.882 21.256 6.558C21.16 6.492 21.058 6.438 20.956 6.39C20.434 6.138 19.852 6 19.258 6H11.68C11.08 6 10.504 6.138 9.982 6.39C9.844 6.456 9.712 6.528 9.586 6.612C9.076 6.936 8.638 7.38 8.32 7.92L4.6 14.22C4.258 14.802 4.078 15.444 4.06 16.092V16.308C4.078 16.956 4.258 17.598 4.6 18.18L8.32 24.48C8.638 25.02 9.076 25.464 9.592 25.788C9.712 25.872 9.838 25.938 9.97 26.004C10.498 26.262 11.074 26.4 11.68 26.4H19.258C19.858 26.4 20.44 26.262 20.968 26.004C21.064 25.956 21.16 25.908 21.25 25.848C21.808 25.518 22.282 25.056 22.618 24.48L26.338 18.18C26.698 17.568 26.878 16.884 26.878 16.2C26.878 15.516 26.698 14.832 26.338 14.22ZM19.258 25.8H11.68C10.516 25.8 9.43 25.176 8.836 24.18L5.116 17.88C4.504 16.842 4.504 15.558 5.116 14.52L8.836 8.22C9.43 7.224 10.516 6.6 11.68 6.6H19.258C20.422 6.6 21.508 7.224 22.102 8.22L25.822 14.52C26.428 15.558 26.428 16.842 25.822 17.88L22.102 24.18C21.508 25.176 20.422 25.8 19.258 25.8Z" fill="white"/>
</svg>
