<svg width="100" height="32" viewBox="0 0 100 32" fill="none" xmlns="http://www.w3.org/2000/svg">
<path d="M95 0H31V32H95C97.7614 32 100 29.7614 100 27V5C100 2.23858 97.7614 0 95 0Z" fill="#0F1418"/>
<path d="M53.928 23.09C53.464 23.09 53.1 22.994 52.836 22.802C52.568 22.614 52.434 22.352 52.434 22.016C52.434 21.776 52.5 21.586 52.632 21.446C52.76 21.306 52.932 21.236 53.148 21.236C53.324 21.236 53.466 21.284 53.574 21.38C53.678 21.48 53.764 21.622 53.832 21.806C53.916 22.038 54.018 22.204 54.138 22.304C54.258 22.408 54.394 22.46 54.546 22.46C54.818 22.46 55.046 22.302 55.23 21.986C55.414 21.674 55.506 21.198 55.506 20.558V11.378L54.45 11.15V10.862H57.912V11.15L56.862 11.378V18.158C56.862 18.738 56.856 19.214 56.844 19.586C56.836 19.958 56.816 20.26 56.784 20.492C56.756 20.724 56.714 20.92 56.658 21.08C56.606 21.24 56.538 21.4 56.454 21.56C56.174 22.056 55.806 22.434 55.35 22.694C54.898 22.958 54.424 23.09 53.928 23.09ZM60.0821 20.126C59.6541 20.126 59.3061 19.992 59.0381 19.724C58.7741 19.456 58.6421 19.108 58.6421 18.68C58.6421 18.328 58.7501 18.024 58.9661 17.768C59.1821 17.512 59.5301 17.288 60.0101 17.096C60.4941 16.9 61.1321 16.722 61.9241 16.562V15.44C61.9241 14.932 61.8541 14.576 61.7141 14.372C61.5781 14.168 61.3421 14.066 61.0061 14.066C60.6741 14.066 60.4101 14.146 60.2141 14.306C60.0181 14.466 59.9201 14.682 59.9201 14.954C59.9201 15.03 59.9241 15.106 59.9321 15.182C59.9441 15.254 59.9501 15.324 59.9501 15.392C59.9501 15.596 59.8881 15.764 59.7641 15.896C59.6441 16.028 59.4901 16.094 59.3021 16.094C59.1301 16.094 58.9901 16.038 58.8821 15.926C58.7781 15.814 58.7261 15.668 58.7261 15.488C58.7261 15.228 58.8381 14.962 59.0621 14.69C59.2901 14.414 59.5901 14.178 59.9621 13.982C60.4581 13.718 60.9961 13.586 61.5761 13.586C61.9241 13.586 62.2181 13.64 62.4581 13.748C62.7021 13.856 62.8781 14.01 62.9861 14.21C63.0501 14.346 63.0921 14.518 63.1121 14.726C63.1361 14.934 63.1481 15.282 63.1481 15.77V18.452C63.1481 18.84 63.1781 19.104 63.2381 19.244C63.3021 19.384 63.4201 19.454 63.5921 19.454C63.7881 19.454 63.9781 19.342 64.1621 19.118L64.3781 19.322C64.1821 19.606 63.9821 19.812 63.7781 19.94C63.5781 20.064 63.3441 20.126 63.0761 20.126C62.7521 20.126 62.5001 20.038 62.3201 19.862C62.1401 19.686 62.0201 19.418 61.9601 19.058H61.9241C61.6961 19.386 61.4201 19.646 61.0961 19.838C60.7721 20.03 60.4341 20.126 60.0821 20.126ZM60.6821 19.364C60.9301 19.364 61.1621 19.3 61.3781 19.172C61.5941 19.04 61.7761 18.858 61.9241 18.626V16.934C61.3881 17.038 60.9661 17.152 60.6581 17.276C60.3541 17.4 60.1381 17.552 60.0101 17.732C59.8861 17.908 59.8241 18.13 59.8241 18.398C59.8241 18.706 59.8961 18.944 60.0401 19.112C60.1881 19.28 60.4021 19.364 60.6821 19.364ZM67.0478 20.126L64.8758 14.48C64.8038 14.292 64.7158 14.166 64.6118 14.102C64.5078 14.034 64.3058 13.99 64.0058 13.97V13.706H67.0958V13.97C66.7558 13.982 66.5318 14.012 66.4238 14.06C66.3158 14.104 66.2618 14.174 66.2618 14.27C66.2618 14.362 66.2858 14.474 66.3338 14.606L67.6898 18.452H67.7378L69.0038 14.864C69.0758 14.66 69.1118 14.504 69.1118 14.396C69.1118 14.28 69.0598 14.194 68.9558 14.138C68.8518 14.078 68.6238 14.022 68.2718 13.97V13.706H70.7318V13.97C70.4358 14.018 70.2118 14.076 70.0598 14.144C69.9078 14.208 69.7938 14.298 69.7178 14.414C69.6458 14.53 69.5738 14.686 69.5018 14.882L67.6178 20.126H67.0478ZM72.2462 20.126C71.8182 20.126 71.4702 19.992 71.2022 19.724C70.9382 19.456 70.8062 19.108 70.8062 18.68C70.8062 18.328 70.9142 18.024 71.1302 17.768C71.3462 17.512 71.6942 17.288 72.1742 17.096C72.6582 16.9 73.2962 16.722 74.0882 16.562V15.44C74.0882 14.932 74.0182 14.576 73.8782 14.372C73.7422 14.168 73.5062 14.066 73.1702 14.066C72.8382 14.066 72.5742 14.146 72.3782 14.306C72.1822 14.466 72.0842 14.682 72.0842 14.954C72.0842 15.03 72.0882 15.106 72.0962 15.182C72.1082 15.254 72.1142 15.324 72.1142 15.392C72.1142 15.596 72.0522 15.764 71.9282 15.896C71.8082 16.028 71.6542 16.094 71.4662 16.094C71.2942 16.094 71.1542 16.038 71.0462 15.926C70.9422 15.814 70.8902 15.668 70.8902 15.488C70.8902 15.228 71.0022 14.962 71.2262 14.69C71.4542 14.414 71.7542 14.178 72.1262 13.982C72.6222 13.718 73.1602 13.586 73.7402 13.586C74.0882 13.586 74.3822 13.64 74.6222 13.748C74.8662 13.856 75.0422 14.01 75.1502 14.21C75.2142 14.346 75.2562 14.518 75.2762 14.726C75.3002 14.934 75.3122 15.282 75.3122 15.77V18.452C75.3122 18.84 75.3422 19.104 75.4022 19.244C75.4662 19.384 75.5842 19.454 75.7562 19.454C75.9522 19.454 76.1422 19.342 76.3262 19.118L76.5422 19.322C76.3462 19.606 76.1462 19.812 75.9422 19.94C75.7422 20.064 75.5082 20.126 75.2402 20.126C74.9162 20.126 74.6642 20.038 74.4842 19.862C74.3042 19.686 74.1842 19.418 74.1242 19.058H74.0882C73.8602 19.386 73.5842 19.646 73.2602 19.838C72.9362 20.03 72.5982 20.126 72.2462 20.126ZM72.8462 19.364C73.0942 19.364 73.3262 19.3 73.5422 19.172C73.7582 19.04 73.9402 18.858 74.0882 18.626V16.934C73.5522 17.038 73.1302 17.152 72.8222 17.276C72.5182 17.4 72.3022 17.552 72.1742 17.732C72.0502 17.908 71.9882 18.13 71.9882 18.398C71.9882 18.706 72.0602 18.944 72.2042 19.112C72.3522 19.28 72.5662 19.364 72.8462 19.364Z" fill="white"/>
<path d="M31 0H5C2.23858 0 0 2.23858 0 5V27C0 29.7614 2.23858 32 5 32H31V0Z" fill="#E76F00"/>
<path d="M11.7971 22.5605C11.7971 22.5605 10.8645 23.0939 12.4609 23.2743C14.3949 23.4913 15.3833 23.4602 17.5146 23.0635C17.5146 23.0635 18.0749 23.409 18.8575 23.7083C14.0797 25.7219 8.04443 23.5916 11.7971 22.5605ZM11.2133 19.9329C11.2133 19.9329 10.1672 20.6943 11.7648 20.8568C13.8308 21.0664 15.4623 21.0836 18.2855 20.549C18.2855 20.549 18.676 20.9383 19.2901 21.1512C13.5134 22.8122 7.07927 21.2822 11.2133 19.9329Z" fill="white"/>
<path d="M16.1351 15.4756C17.3123 16.8084 15.8258 18.0079 15.8258 18.0079C15.8258 18.0079 18.8149 16.4904 17.4422 14.5902C16.16 12.8181 15.1767 11.9377 20.4997 8.90197C20.4997 8.90197 12.1444 10.9539 16.1351 15.4756Z" fill="white"/>
<path d="M22.4541 24.5041C22.4541 24.5041 23.1442 25.0634 21.6939 25.4959C18.9361 26.3175 10.2157 26.5655 7.79321 25.5287C6.92238 25.1561 8.55543 24.6391 9.06912 24.5307C9.60486 24.4164 9.91101 24.4377 9.91101 24.4377C8.94256 23.7668 3.65136 25.7549 7.22334 26.3244C16.9646 27.8779 24.9809 25.6248 22.4541 24.5041ZM12.2456 17.2104C12.2456 17.2104 7.80985 18.2464 10.6748 18.6227C11.8845 18.7819 14.2959 18.7459 16.5421 18.5608C18.3778 18.4085 20.2211 18.0848 20.2211 18.0848C20.2211 18.0848 19.5738 18.3574 19.1055 18.6718C14.6011 19.8368 5.89934 19.2948 8.40446 18.1032C10.523 17.0962 12.2456 17.2104 12.2456 17.2104ZM20.2028 21.5842C24.7818 19.2444 22.6648 16.9958 21.187 17.2988C20.8248 17.3729 20.6633 17.4371 20.6633 17.4371C20.6633 17.4371 20.7978 17.23 21.0545 17.1403C23.9779 16.1297 26.2262 20.1212 20.1108 21.7022C20.1108 21.7022 20.1817 21.64 20.2028 21.5842Z" fill="white"/>
<path d="M17.4422 4C17.4422 4 19.9781 6.49449 15.037 10.3305C11.0747 13.4075 14.1334 15.1619 15.0353 17.1665C12.7226 15.1144 11.0252 13.3081 12.1639 11.6269C13.8352 9.15897 18.4653 7.96245 17.4422 4Z" fill="white"/>
<path d="M12.6956 27.9246C17.0908 28.2012 23.8402 27.7711 24 25.726C24 25.726 23.6928 26.5012 20.3676 27.117C16.6162 27.8112 11.9893 27.7302 9.24503 27.2852C9.24516 27.2851 9.80687 27.7424 12.6956 27.9246Z" fill="white"/>
</svg>
