<svg width="100" height="32" viewBox="0 0 100 32" fill="none" xmlns="http://www.w3.org/2000/svg">
<path d="M95 0H31V32H95C97.7614 32 100 29.7614 100 27V5C100 2.23858 97.7614 0 95 0Z" fill="#0F1418"/>
<path d="M36.928 23.09C36.464 23.09 36.1 22.994 35.836 22.802C35.568 22.614 35.434 22.352 35.434 22.016C35.434 21.776 35.5 21.586 35.632 21.446C35.76 21.306 35.932 21.236 36.148 21.236C36.324 21.236 36.466 21.284 36.574 21.38C36.678 21.48 36.764 21.622 36.832 21.806C36.916 22.038 37.018 22.204 37.138 22.304C37.258 22.408 37.394 22.46 37.546 22.46C37.818 22.46 38.046 22.302 38.23 21.986C38.414 21.674 38.506 21.198 38.506 20.558V11.378L37.45 11.15V10.862H40.912V11.15L39.862 11.378V18.158C39.862 18.738 39.856 19.214 39.844 19.586C39.836 19.958 39.816 20.26 39.784 20.492C39.756 20.724 39.714 20.92 39.658 21.08C39.606 21.24 39.538 21.4 39.454 21.56C39.174 22.056 38.806 22.434 38.35 22.694C37.898 22.958 37.424 23.09 36.928 23.09ZM43.0821 20.126C42.6541 20.126 42.3061 19.992 42.0381 19.724C41.7741 19.456 41.6421 19.108 41.6421 18.68C41.6421 18.328 41.7501 18.024 41.9661 17.768C42.1821 17.512 42.5301 17.288 43.0101 17.096C43.4941 16.9 44.1321 16.722 44.9241 16.562V15.44C44.9241 14.932 44.8541 14.576 44.7141 14.372C44.5781 14.168 44.3421 14.066 44.0061 14.066C43.6741 14.066 43.4101 14.146 43.2141 14.306C43.0181 14.466 42.9201 14.682 42.9201 14.954C42.9201 15.03 42.9241 15.106 42.9321 15.182C42.9441 15.254 42.9501 15.324 42.9501 15.392C42.9501 15.596 42.8881 15.764 42.7641 15.896C42.6441 16.028 42.4901 16.094 42.3021 16.094C42.1301 16.094 41.9901 16.038 41.8821 15.926C41.7781 15.814 41.7261 15.668 41.7261 15.488C41.7261 15.228 41.8381 14.962 42.0621 14.69C42.2901 14.414 42.5901 14.178 42.9621 13.982C43.4581 13.718 43.9961 13.586 44.5761 13.586C44.9241 13.586 45.2181 13.64 45.4581 13.748C45.7021 13.856 45.8781 14.01 45.9861 14.21C46.0501 14.346 46.0921 14.518 46.1121 14.726C46.1361 14.934 46.1481 15.282 46.1481 15.77V18.452C46.1481 18.84 46.1781 19.104 46.2381 19.244C46.3021 19.384 46.4201 19.454 46.5921 19.454C46.7881 19.454 46.9781 19.342 47.1621 19.118L47.3781 19.322C47.1821 19.606 46.9821 19.812 46.7781 19.94C46.5781 20.064 46.3441 20.126 46.0761 20.126C45.7521 20.126 45.5001 20.038 45.3201 19.862C45.1401 19.686 45.0201 19.418 44.9601 19.058H44.9241C44.6961 19.386 44.4201 19.646 44.0961 19.838C43.7721 20.03 43.4341 20.126 43.0821 20.126ZM43.6821 19.364C43.9301 19.364 44.1621 19.3 44.3781 19.172C44.5941 19.04 44.7761 18.858 44.9241 18.626V16.934C44.3881 17.038 43.9661 17.152 43.6581 17.276C43.3541 17.4 43.1381 17.552 43.0101 17.732C42.8861 17.908 42.8241 18.13 42.8241 18.398C42.8241 18.706 42.8961 18.944 43.0401 19.112C43.1881 19.28 43.4021 19.364 43.6821 19.364ZM50.0478 20.126L47.8758 14.48C47.8038 14.292 47.7158 14.166 47.6118 14.102C47.5078 14.034 47.3058 13.99 47.0058 13.97V13.706H50.0958V13.97C49.7558 13.982 49.5318 14.012 49.4238 14.06C49.3158 14.104 49.2618 14.174 49.2618 14.27C49.2618 14.362 49.2858 14.474 49.3338 14.606L50.6898 18.452H50.7378L52.0038 14.864C52.0758 14.66 52.1118 14.504 52.1118 14.396C52.1118 14.28 52.0598 14.194 51.9558 14.138C51.8518 14.078 51.6238 14.022 51.2718 13.97V13.706H53.7318V13.97C53.4358 14.018 53.2118 14.076 53.0598 14.144C52.9078 14.208 52.7938 14.298 52.7178 14.414C52.6458 14.53 52.5738 14.686 52.5018 14.882L50.6178 20.126H50.0478ZM55.2462 20.126C54.8182 20.126 54.4702 19.992 54.2022 19.724C53.9382 19.456 53.8062 19.108 53.8062 18.68C53.8062 18.328 53.9142 18.024 54.1302 17.768C54.3462 17.512 54.6942 17.288 55.1742 17.096C55.6582 16.9 56.2962 16.722 57.0882 16.562V15.44C57.0882 14.932 57.0182 14.576 56.8782 14.372C56.7422 14.168 56.5062 14.066 56.1702 14.066C55.8382 14.066 55.5742 14.146 55.3782 14.306C55.1822 14.466 55.0842 14.682 55.0842 14.954C55.0842 15.03 55.0882 15.106 55.0962 15.182C55.1082 15.254 55.1142 15.324 55.1142 15.392C55.1142 15.596 55.0522 15.764 54.9282 15.896C54.8082 16.028 54.6542 16.094 54.4662 16.094C54.2942 16.094 54.1542 16.038 54.0462 15.926C53.9422 15.814 53.8902 15.668 53.8902 15.488C53.8902 15.228 54.0022 14.962 54.2262 14.69C54.4542 14.414 54.7542 14.178 55.1262 13.982C55.6222 13.718 56.1602 13.586 56.7402 13.586C57.0882 13.586 57.3822 13.64 57.6222 13.748C57.8662 13.856 58.0422 14.01 58.1502 14.21C58.2142 14.346 58.2562 14.518 58.2762 14.726C58.3002 14.934 58.3122 15.282 58.3122 15.77V18.452C58.3122 18.84 58.3422 19.104 58.4022 19.244C58.4662 19.384 58.5842 19.454 58.7562 19.454C58.9522 19.454 59.1422 19.342 59.3262 19.118L59.5422 19.322C59.3462 19.606 59.1462 19.812 58.9422 19.94C58.7422 20.064 58.5082 20.126 58.2402 20.126C57.9162 20.126 57.6642 20.038 57.4842 19.862C57.3042 19.686 57.1842 19.418 57.1242 19.058H57.0882C56.8602 19.386 56.5842 19.646 56.2602 19.838C55.9362 20.03 55.5982 20.126 55.2462 20.126ZM55.8462 19.364C56.0942 19.364 56.3262 19.3 56.5422 19.172C56.7582 19.04 56.9402 18.858 57.0882 18.626V16.934C56.5522 17.038 56.1302 17.152 55.8222 17.276C55.5182 17.4 55.3022 17.552 55.1742 17.732C55.0502 17.908 54.9882 18.13 54.9882 18.398C54.9882 18.706 55.0602 18.944 55.2042 19.112C55.3522 19.28 55.5662 19.364 55.8462 19.364ZM63.1823 20.108C62.8543 20.108 62.5343 20.06 62.2223 19.964C61.9143 19.868 61.5883 19.718 61.2443 19.514L60.7703 20H60.5243L60.3023 16.958L60.6263 16.892C60.8663 17.832 61.1823 18.514 61.5743 18.938C61.9703 19.362 62.4923 19.574 63.1403 19.574C63.6843 19.574 64.1143 19.444 64.4303 19.184C64.7463 18.92 64.9043 18.564 64.9043 18.116C64.9043 17.764 64.7943 17.45 64.5743 17.174C64.3583 16.894 64.0023 16.614 63.5063 16.334L62.5883 15.848C61.8403 15.444 61.3043 15.042 60.9803 14.642C60.6563 14.242 60.4943 13.776 60.4943 13.244C60.4943 12.764 60.6123 12.336 60.8483 11.96C61.0843 11.58 61.4063 11.282 61.8143 11.066C62.2263 10.846 62.6883 10.736 63.2003 10.736C63.9003 10.736 64.5103 10.982 65.0303 11.474L65.3963 10.85H65.6543L65.7623 13.472H65.4203C65.2323 12.724 64.9603 12.172 64.6043 11.816C64.2523 11.456 63.8023 11.276 63.2543 11.276C62.8103 11.276 62.4583 11.394 62.1983 11.63C61.9423 11.866 61.8143 12.19 61.8143 12.602C61.8143 12.974 61.9363 13.306 62.1803 13.598C62.4283 13.89 62.8443 14.19 63.4283 14.498L64.3223 14.978C64.9343 15.302 65.3763 15.662 65.6483 16.058C65.9243 16.454 66.0623 16.908 66.0623 17.42C66.0623 17.928 65.9343 18.386 65.6783 18.794C65.4263 19.198 65.0823 19.518 64.6463 19.754C64.2143 19.99 63.7263 20.108 63.1823 20.108ZM70.0839 20.126C69.5399 20.126 69.0559 19.994 68.6319 19.73C68.2119 19.462 67.8819 19.092 67.6419 18.62C67.4059 18.144 67.2879 17.596 67.2879 16.976C67.2879 16.32 67.4179 15.738 67.6779 15.23C67.9419 14.718 68.3039 14.316 68.7639 14.024C69.2279 13.732 69.7579 13.586 70.3539 13.586C70.7739 13.586 71.1499 13.656 71.4819 13.796C71.8139 13.932 72.0759 14.114 72.2679 14.342C72.4639 14.566 72.5619 14.812 72.5619 15.08C72.5619 15.3 72.5059 15.47 72.3939 15.59C72.2819 15.71 72.1299 15.77 71.9379 15.77C71.7299 15.77 71.5739 15.708 71.4699 15.584C71.3659 15.46 71.2979 15.266 71.2659 15.002C71.2219 14.606 71.1359 14.34 71.0079 14.204C70.8799 14.068 70.6739 14 70.3899 14C69.8219 14 69.3799 14.244 69.0639 14.732C68.7519 15.216 68.5959 15.86 68.5959 16.664C68.5959 17.472 68.7599 18.092 69.0879 18.524C69.4159 18.956 69.8819 19.172 70.4859 19.172C70.8859 19.172 71.2439 19.098 71.5599 18.95C71.8759 18.802 72.1579 18.556 72.4059 18.212L72.6459 18.35C72.4259 18.918 72.0959 19.356 71.6559 19.664C71.2159 19.972 70.6919 20.126 70.0839 20.126ZM73.4306 20V19.736L74.3306 19.55V14.66L73.4546 14.33V14.156L75.3746 13.58H75.5066V14.876L75.5546 14.936V19.55L76.7906 19.736V20H73.4306ZM75.4646 15.428L75.4406 14.936C75.7366 14.5 76.0306 14.164 76.3226 13.928C76.6186 13.692 76.8946 13.574 77.1506 13.574C77.3706 13.574 77.5566 13.65 77.7086 13.802C77.8606 13.95 77.9366 14.13 77.9366 14.342C77.9366 14.538 77.8706 14.704 77.7386 14.84C77.6066 14.972 77.4426 15.038 77.2466 15.038C77.0466 15.038 76.8906 14.964 76.7786 14.816C76.6986 14.724 76.6306 14.662 76.5746 14.63C76.5186 14.594 76.4546 14.576 76.3826 14.576C76.2666 14.576 76.1206 14.654 75.9446 14.81C75.7726 14.962 75.6126 15.168 75.4646 15.428ZM78.4694 20V19.736L79.3814 19.55V14.66L78.4874 14.342V14.156L80.4794 13.586H80.6114V19.55L81.5114 19.736V20H78.4694ZM79.9874 12.326C79.7434 12.326 79.5494 12.248 79.4054 12.092C79.2614 11.936 79.1894 11.754 79.1894 11.546C79.1894 11.318 79.2614 11.126 79.4054 10.97C79.5494 10.814 79.7434 10.736 79.9874 10.736C80.2354 10.736 80.4314 10.814 80.5754 10.97C80.7234 11.126 80.7974 11.318 80.7974 11.546C80.7974 11.754 80.7234 11.936 80.5754 12.092C80.4314 12.248 80.2354 12.326 79.9874 12.326ZM82.0116 22.97V22.736L82.9236 22.538V14.66L82.0416 14.342V14.156L83.9556 13.586H84.0996V14.612H84.1476C84.3876 14.256 84.6816 13.996 85.0296 13.832C85.3816 13.668 85.7376 13.586 86.0976 13.586C86.5976 13.586 87.0356 13.724 87.4116 14C87.7916 14.272 88.0876 14.646 88.2996 15.122C88.5156 15.598 88.6236 16.142 88.6236 16.754C88.6236 17.414 88.4836 17.998 88.2036 18.506C87.9236 19.014 87.5336 19.412 87.0336 19.7C86.5376 19.984 85.9576 20.126 85.2936 20.126C85.1016 20.126 84.9116 20.11 84.7236 20.078C84.5356 20.05 84.3456 20.004 84.1536 19.94V22.538L85.3776 22.736V22.97H82.0116ZM85.3416 19.724C85.7296 19.724 86.0696 19.606 86.3616 19.37C86.6536 19.134 86.8796 18.808 87.0396 18.392C87.2036 17.972 87.2856 17.49 87.2856 16.946C87.2856 16.15 87.1236 15.524 86.7996 15.068C86.4796 14.612 86.0416 14.384 85.4856 14.384C85.2416 14.384 84.9916 14.45 84.7356 14.582C84.4796 14.71 84.2996 14.872 84.1956 15.068V18.542C84.1956 18.886 84.3056 19.17 84.5256 19.394C84.7496 19.614 85.0216 19.724 85.3416 19.724ZM91.6622 20.126C91.2182 20.126 90.8802 20 90.6482 19.748C90.4162 19.496 90.3002 19.134 90.3002 18.662V14.15H89.5202L89.4842 13.934L91.2842 12.146L91.5182 12.17V13.706H93.2342L93.1322 14.15H91.5182V18.542C91.5182 19.198 91.7542 19.526 92.2262 19.526C92.3862 19.526 92.5442 19.484 92.7002 19.4C92.8602 19.316 92.9962 19.2 93.1082 19.052L93.3182 19.238C93.1342 19.51 92.8942 19.726 92.5982 19.886C92.3062 20.046 91.9942 20.126 91.6622 20.126Z" fill="white"/>
<path d="M31 0H5C2.23858 0 0 2.23858 0 5V27C0 29.7614 2.23858 32 5 32H31V0Z" fill="#F7DF1E"/>
<path d="M3 4H27V28H3V4ZM25.034 22.276C24.859 21.181 24.146 20.261 22.031 19.403C21.295 19.058 20.477 18.818 20.234 18.263C20.143 17.933 20.129 17.753 20.188 17.558C20.338 16.912 21.103 16.718 21.703 16.898C22.093 17.018 22.453 17.318 22.679 17.798C23.713 17.122 23.713 17.122 24.434 16.673C24.164 16.253 24.03 16.072 23.848 15.893C23.218 15.188 22.379 14.828 21.014 14.859L20.309 14.948C19.633 15.113 18.989 15.473 18.599 15.953C17.459 17.244 17.788 19.494 19.168 20.424C20.533 21.444 22.529 21.668 22.784 22.629C23.024 23.799 21.914 24.174 20.818 24.039C20.007 23.859 19.558 23.453 19.063 22.703L17.233 23.754C17.443 24.234 17.683 24.443 18.043 24.863C19.783 26.619 24.133 26.529 24.914 23.859C24.943 23.769 25.154 23.154 24.988 22.209L25.034 22.276ZM16.051 15.031H13.803C13.803 16.969 13.794 18.895 13.794 20.836C13.794 22.068 13.857 23.199 13.656 23.547C13.326 24.236 12.476 24.148 12.09 24.027C11.694 23.831 11.493 23.561 11.26 23.172C11.197 23.067 11.15 22.976 11.133 22.976L9.308 24.101C9.613 24.731 10.058 25.273 10.632 25.618C11.487 26.128 12.636 26.293 13.839 26.023C14.622 25.797 15.297 25.332 15.65 24.612C16.16 23.682 16.052 22.542 16.047 21.266C16.059 19.212 16.047 17.157 16.047 15.087L16.051 15.031Z" fill="white"/>
</svg>
