<svg width="100" height="32" viewBox="0 0 100 32" fill="none" xmlns="http://www.w3.org/2000/svg">
<path d="M95 0H31V32H95C97.7614 32 100 29.7614 100 27V5C100 2.23858 97.7614 0 95 0Z" fill="#0F1418"/>
<path d="M52.564 20V19.712L53.584 19.472V11.384L52.564 11.15V10.862H56.302C56.934 10.862 57.492 10.968 57.976 11.18C58.46 11.388 58.838 11.694 59.11 12.098C59.382 12.498 59.518 12.99 59.518 13.574C59.518 14.39 59.214 15.014 58.606 15.446C57.998 15.878 57.168 16.094 56.116 16.094H54.934V19.472L56.302 19.712V20H52.564ZM54.934 15.614H55.72C56.2 15.614 56.582 15.56 56.866 15.452C57.154 15.34 57.384 15.186 57.556 14.99C57.736 14.786 57.86 14.554 57.928 14.294C58 14.03 58.036 13.752 58.036 13.46C58.036 12.968 57.948 12.558 57.772 12.23C57.596 11.902 57.348 11.668 57.028 11.528C56.784 11.408 56.416 11.348 55.924 11.348H54.934V15.614ZM66.1278 20V19.712L67.1898 19.472V11.378L66.1278 11.15V10.862H69.5898V11.168L68.5398 11.378V19.472L69.5898 19.724V20H66.1278ZM60.3678 20V19.712L61.4358 19.472V11.378L60.3678 11.15V10.862H63.8358V11.15L62.7858 11.378V19.472L63.8358 19.712V20H60.3678ZM62.2158 15.44V14.936H67.7838V15.44H62.2158ZM70.6812 20V19.712L71.7012 19.472V11.384L70.6812 11.15V10.862H74.4192C75.0512 10.862 75.6092 10.968 76.0932 11.18C76.5772 11.388 76.9552 11.694 77.2272 12.098C77.4992 12.498 77.6352 12.99 77.6352 13.574C77.6352 14.39 77.3312 15.014 76.7232 15.446C76.1152 15.878 75.2852 16.094 74.2332 16.094H73.0512V19.472L74.4192 19.712V20H70.6812ZM73.0512 15.614H73.8372C74.3172 15.614 74.6992 15.56 74.9832 15.452C75.2712 15.34 75.5012 15.186 75.6732 14.99C75.8532 14.786 75.9772 14.554 76.0452 14.294C76.1172 14.03 76.1532 13.752 76.1532 13.46C76.1532 12.968 76.0652 12.558 75.8892 12.23C75.7132 11.902 75.4652 11.668 75.1452 11.528C74.9012 11.408 74.5332 11.348 74.0412 11.348H73.0512V15.614Z" fill="white"/>
<path d="M31 0H5C2.23858 0 0 2.23858 0 5V27C0 29.7614 2.23858 32 5 32H31V0Z" fill="#777BB4"/>
<path d="M10.01 14.2953H9.066L8.551 16.8122H9.389C9.945 16.8122 10.359 16.7124 10.631 16.5137C10.903 16.3141 11.086 15.9824 11.181 15.5167C11.273 15.0699 11.231 14.7544 11.057 14.5709C10.882 14.3875 10.534 14.2953 10.01 14.2953ZM15 10C8.373 10 3 12.6861 3 15.9995C3 19.313 8.373 22 15 22C21.627 22 27 19.313 27 15.9995C27 12.6861 21.627 10 15 10ZM11.74 17.0821C11.479 17.3198 11.165 17.4985 10.823 17.6059C10.487 17.7085 10.058 17.7617 9.538 17.7617H8.357L8.03 19.3595H6.652L7.882 13.3467H10.532C11.329 13.3467 11.91 13.5453 12.276 13.9436C12.642 14.3409 12.752 14.896 12.606 15.6089C12.5501 15.891 12.4471 16.1627 12.301 16.4139C12.158 16.6563 11.971 16.8797 11.74 17.0821ZM15.764 17.7617L16.307 15.1013C16.37 14.799 16.346 14.5918 16.239 14.4825C16.132 14.3723 15.903 14.3171 15.552 14.3171H14.46L13.756 17.7627H12.388L13.618 11.7489H14.985L14.658 13.3476H15.876C16.643 13.3476 17.171 13.475 17.462 13.7288C17.753 13.9826 17.84 14.3941 17.725 14.9635L17.153 17.7617H15.764ZM23.361 15.6089C23.306 15.8912 23.203 16.1631 23.056 16.4139C22.913 16.6563 22.726 16.8797 22.495 17.0821C22.2339 17.319 21.9207 17.4979 21.578 17.6059C21.242 17.7085 20.813 17.7617 20.292 17.7617H19.112L18.785 19.3605H17.407L18.637 13.3476H21.286C22.083 13.3476 22.664 13.5463 23.03 13.9446C23.396 14.3409 23.507 14.896 23.361 15.6089ZM20.766 14.2953H19.823L19.307 16.8122H20.145C20.702 16.8122 21.116 16.7124 21.387 16.5137C21.659 16.3141 21.842 15.9824 21.938 15.5167C22.03 15.0699 21.987 14.7544 21.813 14.5709C21.639 14.3875 21.289 14.2953 20.766 14.2953Z" fill="white"/>
</svg>
