<svg width="100" height="32" viewBox="0 0 100 32" fill="none" xmlns="http://www.w3.org/2000/svg">
<path d="M95 0H31V32H95C97.7614 32 100 29.7614 100 27V5C100 2.23858 97.7614 0 95 0Z" fill="#0F1418"/>
<path d="M56.612 20.108C56.284 20.108 55.964 20.06 55.652 19.964C55.344 19.868 55.018 19.718 54.674 19.514L54.2 20H53.954L53.732 16.958L54.056 16.892C54.296 17.832 54.612 18.514 55.004 18.938C55.4 19.362 55.922 19.574 56.57 19.574C57.114 19.574 57.544 19.444 57.86 19.184C58.176 18.92 58.334 18.564 58.334 18.116C58.334 17.764 58.224 17.45 58.004 17.174C57.788 16.894 57.432 16.614 56.936 16.334L56.018 15.848C55.27 15.444 54.734 15.042 54.41 14.642C54.086 14.242 53.924 13.776 53.924 13.244C53.924 12.764 54.042 12.336 54.278 11.96C54.514 11.58 54.836 11.282 55.244 11.066C55.656 10.846 56.118 10.736 56.63 10.736C57.33 10.736 57.94 10.982 58.46 11.474L58.826 10.85H59.084L59.192 13.472H58.85C58.662 12.724 58.39 12.172 58.034 11.816C57.682 11.456 57.232 11.276 56.684 11.276C56.24 11.276 55.888 11.394 55.628 11.63C55.372 11.866 55.244 12.19 55.244 12.602C55.244 12.974 55.366 13.306 55.61 13.598C55.858 13.89 56.274 14.19 56.858 14.498L57.752 14.978C58.364 15.302 58.806 15.662 59.078 16.058C59.354 16.454 59.492 16.908 59.492 17.42C59.492 17.928 59.364 18.386 59.108 18.794C58.856 19.198 58.512 19.518 58.076 19.754C57.644 19.99 57.156 20.108 56.612 20.108ZM63.2316 21.956C63.0396 21.956 62.8856 21.892 62.7696 21.764C62.6576 21.64 62.6016 21.476 62.6016 21.272C62.6016 20.976 62.7176 20.704 62.9496 20.456C63.1856 20.212 63.5056 20.012 63.9096 19.856V19.808C63.2896 19.66 62.7476 19.378 62.2836 18.962C61.8196 18.542 61.4596 18.028 61.2036 17.42C60.9476 16.808 60.8196 16.144 60.8196 15.428C60.8196 14.76 60.9256 14.142 61.1376 13.574C61.3536 13.006 61.6556 12.51 62.0436 12.086C62.4356 11.658 62.8956 11.326 63.4236 11.09C63.9556 10.854 64.5376 10.736 65.1696 10.736C65.8016 10.736 66.3836 10.854 66.9156 11.09C67.4476 11.326 67.9076 11.658 68.2956 12.086C68.6876 12.51 68.9916 13.006 69.2076 13.574C69.4236 14.142 69.5316 14.76 69.5316 15.428C69.5316 16.212 69.3776 16.932 69.0696 17.588C68.7616 18.244 68.3296 18.78 67.7736 19.196C67.2216 19.612 66.5736 19.856 65.8296 19.928V19.982C66.0896 20.046 66.3516 20.142 66.6156 20.27C66.8796 20.398 67.1536 20.514 67.4376 20.618C67.7256 20.726 68.0256 20.78 68.3376 20.78C68.5976 20.78 68.8176 20.73 68.9976 20.63C69.1776 20.53 69.3496 20.376 69.5136 20.168L69.8376 20.3C69.5936 20.868 69.2796 21.292 68.8956 21.572C68.5116 21.856 68.1136 21.998 67.7016 21.998C67.3256 21.998 67.0076 21.898 66.7476 21.698C66.4876 21.502 66.2396 21.288 66.0036 21.056C65.6636 20.72 65.3756 20.486 65.1396 20.354C64.9036 20.222 64.6536 20.156 64.3896 20.156C64.1416 20.156 63.9576 20.206 63.8376 20.306C63.7176 20.406 63.6576 20.532 63.6576 20.684C63.6576 20.816 63.6916 20.922 63.7596 21.002C63.8276 21.082 63.8616 21.192 63.8616 21.332C63.8616 21.512 63.8016 21.66 63.6816 21.776C63.5616 21.896 63.4116 21.956 63.2316 21.956ZM65.1696 19.58C65.5256 19.58 65.8476 19.516 66.1356 19.388C66.4276 19.26 66.6836 19.074 66.9036 18.83C67.1276 18.586 67.3156 18.294 67.4676 17.954C67.6196 17.61 67.7336 17.224 67.8096 16.796C67.8856 16.368 67.9236 15.904 67.9236 15.404C67.9236 14.908 67.8856 14.45 67.8096 14.03C67.7336 13.606 67.6216 13.226 67.4736 12.89C67.3256 12.554 67.1416 12.268 66.9216 12.032C66.7016 11.792 66.4456 11.61 66.1536 11.486C65.8656 11.358 65.5436 11.294 65.1876 11.294C64.8276 11.294 64.5016 11.358 64.2096 11.486C63.9176 11.61 63.6596 11.792 63.4356 12.032C63.2156 12.272 63.0296 12.562 62.8776 12.902C62.7296 13.238 62.6176 13.62 62.5416 14.048C62.4656 14.472 62.4276 14.932 62.4276 15.428C62.4276 15.924 62.4656 16.384 62.5416 16.808C62.6176 17.232 62.7296 17.616 62.8776 17.96C63.0296 18.3 63.2156 18.592 63.4356 18.836C63.6556 19.076 63.9096 19.26 64.1976 19.388C64.4896 19.516 64.8136 19.58 65.1696 19.58ZM70.5913 20V19.712L71.6113 19.472V11.378L70.5913 11.15V10.862H74.0893V11.15L72.9613 11.378V19.502H76.3273C76.5433 19.138 76.7293 18.772 76.8853 18.404C77.0413 18.036 77.1913 17.624 77.3353 17.168H77.6893L77.2393 20H70.5913Z" fill="white"/>
<path d="M31 0H5C2.23858 0 0 2.23858 0 5V27C0 29.7614 2.23858 32 5 32H31V0Z" fill="#9D9D9D"/>
<path d="M14.7104 14.6899C13.6347 14.6899 13.0146 15.7443 13.0146 17.0476C13.004 18.3707 13.6452 19.3842 14.6998 19.3842C15.7645 19.3842 16.3856 18.381 16.3856 17.0165C16.3855 15.7443 15.7855 14.6899 14.7104 14.6899Z" fill="white"/>
<path d="M23.9095 12.5845H23.3332V9.80378C23.3332 9.78631 23.3304 9.76898 23.3282 9.75125C23.3272 9.64095 23.2921 9.53252 23.2165 9.4466L18.5892 4.16095C18.5878 4.15959 18.5864 4.15903 18.5855 4.15767C18.5579 4.12685 18.5258 4.1012 18.4917 4.07905C18.4816 4.07231 18.4715 4.06667 18.4609 4.06071C18.4315 4.04474 18.4003 4.0313 18.3681 4.02162C18.3594 4.01935 18.3516 4.01576 18.3429 4.01348C18.3079 4.00517 18.2716 4 18.2349 4H6.86259C6.34327 4 5.92144 4.42236 5.92144 4.94119V12.5844H5.34526C4.60257 12.5844 4 13.1866 4 13.9297V20.925C4 21.6674 4.60257 22.2702 5.34526 22.2702H5.92144V27.0588C5.92144 27.5777 6.34327 28 6.86259 28H22.392C22.9109 28 23.3332 27.5777 23.3332 27.0588V22.2702H23.9095C24.6526 22.2702 25.2545 21.6674 25.2545 20.9251V13.9297C25.2546 13.1866 24.6526 12.5845 23.9095 12.5845ZM6.86259 4.94119H17.7642V9.75642C17.7642 10.0166 17.9751 10.227 18.2348 10.227H22.392V12.5846H6.86259V4.94119ZM18.0804 20.5004L17.6254 21.721C16.6333 21.4313 15.806 21.131 14.8753 20.7385C14.7209 20.6764 14.555 20.6452 14.3897 20.6351C12.8179 20.5322 11.3497 19.3736 11.3497 17.0993C11.3497 15.0109 12.6732 13.4389 14.7513 13.4389C16.8819 13.4389 18.0496 15.0521 18.0496 16.9546C18.0496 18.5366 17.3157 19.6526 16.3957 20.0664V20.1078C16.9334 20.2627 17.5326 20.3869 18.0804 20.5004ZM5.81883 20.2009L6.1396 18.898C6.56375 19.1151 7.21439 19.332 7.88686 19.332C8.6102 19.332 8.99304 19.0326 8.99304 18.5779C8.99304 18.1433 8.66212 17.8952 7.82471 17.5956C6.66662 17.1921 5.91202 16.5512 5.91202 15.5377C5.91202 14.3487 6.90478 13.4389 8.54848 13.4389C9.33437 13.4389 9.91348 13.6048 10.3267 13.7903L9.97555 15.0624C9.6965 14.9278 9.2003 14.7313 8.51793 14.7313C7.83512 14.7313 7.50403 15.0412 7.50403 15.4035C7.50403 15.8478 7.89697 16.0446 8.79676 16.3861C10.0271 16.8411 10.606 17.4814 10.606 18.4637C10.606 19.6324 9.70613 20.6245 7.79345 20.6245C6.99771 20.6241 6.21222 20.4173 5.81883 20.2009ZM22.392 26.8037H6.86259V22.2702H22.392V26.8037ZM23.4362 20.5209H19.0828V13.5525H20.6655V19.1978H23.4362V20.5209Z" fill="white"/>
</svg>
