<svg width="100" height="32" viewBox="0 0 100 32" fill="none" xmlns="http://www.w3.org/2000/svg">
<path d="M95 0H31V32H95C97.7614 32 100 29.7614 100 27V5C100 2.23858 97.7614 0 95 0Z" fill="#0F1418"/>
<path d="M36.514 20V19.712L37.84 19.472V11.354H35.512C35.256 11.694 35.038 12.05 34.858 12.422C34.682 12.794 34.536 13.148 34.42 13.484H34.108L34.546 10.862H42.442L42.88 13.484H42.574C42.458 13.148 42.31 12.794 42.13 12.422C41.954 12.05 41.738 11.694 41.482 11.354H39.19V19.472L40.492 19.712V20H36.514ZM44.0244 23.09C43.7164 23.09 43.4664 23.014 43.2744 22.862C43.0824 22.714 42.9864 22.516 42.9864 22.268C42.9864 22.072 43.0484 21.916 43.1724 21.8C43.3004 21.684 43.4664 21.626 43.6704 21.626C43.8304 21.626 43.9564 21.668 44.0484 21.752C44.1404 21.84 44.2064 21.984 44.2464 22.184C44.2704 22.336 44.2984 22.434 44.3304 22.478C44.3664 22.526 44.4264 22.55 44.5104 22.55C44.6384 22.55 44.7584 22.474 44.8704 22.322C44.9864 22.174 45.1004 21.93 45.2124 21.59L45.6984 20.126L43.3524 14.444C43.2804 14.296 43.1804 14.186 43.0524 14.114C42.9244 14.042 42.7384 13.994 42.4944 13.97V13.706H45.5604V13.97C45.2844 13.986 45.0864 14.01 44.9664 14.042C44.8464 14.07 44.7824 14.122 44.7744 14.198C44.7664 14.274 44.7904 14.394 44.8464 14.558L46.2924 18.254H46.3464L47.4744 14.9C47.5904 14.584 47.5844 14.356 47.4564 14.216C47.3324 14.072 47.0604 13.99 46.6404 13.97V13.706H49.3344V13.97C49.0344 14.018 48.8004 14.076 48.6324 14.144C48.4684 14.208 48.3424 14.3 48.2544 14.42C48.1664 14.536 48.0844 14.7 48.0084 14.912L45.6384 21.674C45.5544 21.926 45.4624 22.134 45.3624 22.298C45.2624 22.466 45.1604 22.598 45.0564 22.694C44.8004 22.958 44.4564 23.09 44.0244 23.09ZM49.4921 22.97V22.736L50.4041 22.538V14.66L49.5221 14.342V14.156L51.4361 13.586H51.5801V14.612H51.6281C51.8681 14.256 52.1621 13.996 52.5101 13.832C52.8621 13.668 53.2181 13.586 53.5781 13.586C54.0781 13.586 54.5161 13.724 54.8921 14C55.2721 14.272 55.5681 14.646 55.7801 15.122C55.9961 15.598 56.1041 16.142 56.1041 16.754C56.1041 17.414 55.9641 17.998 55.6841 18.506C55.4041 19.014 55.0141 19.412 54.5141 19.7C54.0181 19.984 53.4381 20.126 52.7741 20.126C52.5821 20.126 52.3921 20.11 52.2041 20.078C52.0161 20.05 51.8261 20.004 51.6341 19.94V22.538L52.8581 22.736V22.97H49.4921ZM52.8221 19.724C53.2101 19.724 53.5501 19.606 53.8421 19.37C54.1341 19.134 54.3601 18.808 54.5201 18.392C54.6841 17.972 54.7661 17.49 54.7661 16.946C54.7661 16.15 54.6041 15.524 54.2801 15.068C53.9601 14.612 53.5221 14.384 52.9661 14.384C52.7221 14.384 52.4721 14.45 52.2161 14.582C51.9601 14.71 51.7801 14.872 51.6761 15.068V18.542C51.6761 18.886 51.7861 19.17 52.0061 19.394C52.2301 19.614 52.5021 19.724 52.8221 19.724ZM60.0906 20.126C59.5106 20.126 59.0006 19.994 58.5606 19.73C58.1246 19.462 57.7846 19.09 57.5406 18.614C57.3006 18.134 57.1806 17.58 57.1806 16.952C57.1806 16.284 57.3146 15.698 57.5826 15.194C57.8546 14.69 58.2326 14.296 58.7166 14.012C59.2046 13.728 59.7686 13.586 60.4086 13.586C61.2006 13.586 61.8066 13.816 62.2266 14.276C62.6506 14.736 62.8706 15.41 62.8866 16.298L62.8026 16.37H58.1526V16.022L61.5126 15.902C61.5406 15.798 61.5546 15.64 61.5546 15.428C61.5546 14.468 61.1326 13.988 60.2886 13.988C59.7086 13.988 59.2606 14.216 58.9446 14.672C58.6326 15.124 58.4766 15.766 58.4766 16.598C58.4766 18.338 59.1526 19.208 60.5046 19.208C61.3846 19.208 62.0586 18.888 62.5266 18.248L62.7486 18.386C62.5406 18.938 62.2026 19.366 61.7346 19.67C61.2706 19.974 60.7226 20.126 60.0906 20.126ZM66.9675 20.108C66.6395 20.108 66.3195 20.06 66.0075 19.964C65.6995 19.868 65.3735 19.718 65.0295 19.514L64.5555 20H64.3095L64.0875 16.958L64.4115 16.892C64.6515 17.832 64.9675 18.514 65.3595 18.938C65.7555 19.362 66.2775 19.574 66.9255 19.574C67.4695 19.574 67.8995 19.444 68.2155 19.184C68.5315 18.92 68.6895 18.564 68.6895 18.116C68.6895 17.764 68.5795 17.45 68.3595 17.174C68.1435 16.894 67.7875 16.614 67.2915 16.334L66.3735 15.848C65.6255 15.444 65.0895 15.042 64.7655 14.642C64.4415 14.242 64.2795 13.776 64.2795 13.244C64.2795 12.764 64.3975 12.336 64.6335 11.96C64.8695 11.58 65.1915 11.282 65.5995 11.066C66.0115 10.846 66.4735 10.736 66.9855 10.736C67.6855 10.736 68.2955 10.982 68.8155 11.474L69.1815 10.85H69.4395L69.5475 13.472H69.2055C69.0175 12.724 68.7455 12.172 68.3895 11.816C68.0375 11.456 67.5875 11.276 67.0395 11.276C66.5955 11.276 66.2435 11.394 65.9835 11.63C65.7275 11.866 65.5995 12.19 65.5995 12.602C65.5995 12.974 65.7215 13.306 65.9655 13.598C66.2135 13.89 66.6295 14.19 67.2135 14.498L68.1075 14.978C68.7195 15.302 69.1615 15.662 69.4335 16.058C69.7095 16.454 69.8475 16.908 69.8475 17.42C69.8475 17.928 69.7195 18.386 69.4635 18.794C69.2115 19.198 68.8675 19.518 68.4315 19.754C67.9995 19.99 67.5115 20.108 66.9675 20.108ZM73.8691 20.126C73.3251 20.126 72.8411 19.994 72.4171 19.73C71.9971 19.462 71.6671 19.092 71.4271 18.62C71.1911 18.144 71.0731 17.596 71.0731 16.976C71.0731 16.32 71.2031 15.738 71.4631 15.23C71.7271 14.718 72.0891 14.316 72.5491 14.024C73.0131 13.732 73.5431 13.586 74.1391 13.586C74.5591 13.586 74.9351 13.656 75.2671 13.796C75.5991 13.932 75.8611 14.114 76.0531 14.342C76.2491 14.566 76.3471 14.812 76.3471 15.08C76.3471 15.3 76.2911 15.47 76.1791 15.59C76.0671 15.71 75.9151 15.77 75.7231 15.77C75.5151 15.77 75.3591 15.708 75.2551 15.584C75.1511 15.46 75.0831 15.266 75.0511 15.002C75.0071 14.606 74.9211 14.34 74.7931 14.204C74.6651 14.068 74.4591 14 74.1751 14C73.6071 14 73.1651 14.244 72.8491 14.732C72.5371 15.216 72.3811 15.86 72.3811 16.664C72.3811 17.472 72.5451 18.092 72.8731 18.524C73.2011 18.956 73.6671 19.172 74.2711 19.172C74.6711 19.172 75.0291 19.098 75.3451 18.95C75.6611 18.802 75.9431 18.556 76.1911 18.212L76.4311 18.35C76.2111 18.918 75.8811 19.356 75.4411 19.664C75.0011 19.972 74.4771 20.126 73.8691 20.126ZM77.2158 20V19.736L78.1158 19.55V14.66L77.2397 14.33V14.156L79.1598 13.58H79.2918V14.876L79.3398 14.936V19.55L80.5758 19.736V20H77.2158ZM79.2498 15.428L79.2258 14.936C79.5218 14.5 79.8158 14.164 80.1078 13.928C80.4038 13.692 80.6798 13.574 80.9358 13.574C81.1558 13.574 81.3418 13.65 81.4938 13.802C81.6458 13.95 81.7218 14.13 81.7218 14.342C81.7218 14.538 81.6558 14.704 81.5238 14.84C81.3918 14.972 81.2278 15.038 81.0318 15.038C80.8318 15.038 80.6758 14.964 80.5638 14.816C80.4838 14.724 80.4158 14.662 80.3598 14.63C80.3038 14.594 80.2398 14.576 80.1678 14.576C80.0518 14.576 79.9058 14.654 79.7298 14.81C79.5578 14.962 79.3978 15.168 79.2498 15.428ZM82.2545 20V19.736L83.1665 19.55V14.66L82.2725 14.342V14.156L84.2645 13.586H84.3965V19.55L85.2965 19.736V20H82.2545ZM83.7725 12.326C83.5285 12.326 83.3345 12.248 83.1905 12.092C83.0465 11.936 82.9745 11.754 82.9745 11.546C82.9745 11.318 83.0465 11.126 83.1905 10.97C83.3345 10.814 83.5285 10.736 83.7725 10.736C84.0205 10.736 84.2165 10.814 84.3605 10.97C84.5085 11.126 84.5825 11.318 84.5825 11.546C84.5825 11.754 84.5085 11.936 84.3605 12.092C84.2165 12.248 84.0205 12.326 83.7725 12.326ZM85.7968 22.97V22.736L86.7088 22.538V14.66L85.8268 14.342V14.156L87.7408 13.586H87.8848V14.612H87.9328C88.1728 14.256 88.4668 13.996 88.8148 13.832C89.1668 13.668 89.5228 13.586 89.8828 13.586C90.3828 13.586 90.8208 13.724 91.1968 14C91.5768 14.272 91.8728 14.646 92.0848 15.122C92.3008 15.598 92.4088 16.142 92.4088 16.754C92.4088 17.414 92.2688 17.998 91.9888 18.506C91.7088 19.014 91.3188 19.412 90.8188 19.7C90.3228 19.984 89.7428 20.126 89.0788 20.126C88.8868 20.126 88.6968 20.11 88.5088 20.078C88.3208 20.05 88.1308 20.004 87.9388 19.94V22.538L89.1628 22.736V22.97H85.7968ZM89.1268 19.724C89.5148 19.724 89.8548 19.606 90.1468 19.37C90.4388 19.134 90.6648 18.808 90.8248 18.392C90.9888 17.972 91.0708 17.49 91.0708 16.946C91.0708 16.15 90.9088 15.524 90.5848 15.068C90.2648 14.612 89.8268 14.384 89.2708 14.384C89.0268 14.384 88.7768 14.45 88.5208 14.582C88.2648 14.71 88.0848 14.872 87.9808 15.068V18.542C87.9808 18.886 88.0908 19.17 88.3108 19.394C88.5348 19.614 88.8068 19.724 89.1268 19.724ZM95.4473 20.126C95.0033 20.126 94.6653 20 94.4333 19.748C94.2013 19.496 94.0853 19.134 94.0853 18.662V14.15H93.3053L93.2693 13.934L95.0693 12.146L95.3033 12.17V13.706H97.0193L96.9173 14.15H95.3033V18.542C95.3033 19.198 95.5393 19.526 96.0113 19.526C96.1713 19.526 96.3293 19.484 96.4853 19.4C96.6453 19.316 96.7813 19.2 96.8933 19.052L97.1033 19.238C96.9193 19.51 96.6793 19.726 96.3833 19.886C96.0913 20.046 95.7793 20.126 95.4473 20.126Z" fill="white"/>
<path d="M31 0H5C2.23858 0 0 2.23858 0 5V27C0 29.7614 2.23858 32 5 32H31V0Z" fill="#3178C6"/>
<path d="M25.016 5H5.984C5.44055 5 5 5.44055 5 5.984V25.016C5 25.5594 5.44055 26 5.984 26H25.016C25.5594 26 26 25.5594 26 25.016V5.984C26 5.44055 25.5594 5 25.016 5Z" fill="white"/>
<path fill-rule="evenodd" clip-rule="evenodd" d="M17.1838 21.3192V23.6202C17.6018 23.8266 18.0474 23.9718 18.5068 24.0515C19.0376 24.1495 19.5764 24.1977 20.1162 24.1955C20.6424 24.198 21.1673 24.145 21.6822 24.0372C22.1446 23.9438 22.5858 23.7658 22.9835 23.5122C23.3527 23.2739 23.6571 22.9476 23.8692 22.5627C24.2492 21.7657 24.2993 20.851 24.0087 20.0172C23.8861 19.7055 23.7034 19.4208 23.471 19.1795C23.2215 18.9229 22.9382 18.7016 22.6287 18.5217C22.2725 18.3131 21.9024 18.1292 21.521 17.9712C21.221 17.8467 20.951 17.7257 20.711 17.6082C20.4978 17.5062 20.2938 17.386 20.1012 17.249C19.9504 17.1433 19.8194 17.0117 19.7142 16.8605C19.6234 16.7232 19.5761 16.5616 19.5785 16.397C19.5765 16.2455 19.6187 16.0966 19.7 15.9687C19.7883 15.8349 19.906 15.723 20.0442 15.6417C20.2132 15.5423 20.397 15.4706 20.5887 15.4295C20.8241 15.3772 21.0647 15.352 21.3057 15.3545C21.5085 15.3552 21.711 15.3697 21.9117 15.398C22.1286 15.4273 22.3431 15.4717 22.5537 15.5307C22.768 15.5901 22.9776 15.6653 23.1807 15.7557C23.3779 15.8436 23.5664 15.9496 23.744 16.0722V13.925C23.3743 13.7851 22.991 13.6846 22.6002 13.625C22.1284 13.5563 21.652 13.524 21.1752 13.5282C20.6541 13.5254 20.1344 13.5846 19.6272 13.7045C19.1688 13.8093 18.7329 13.9955 18.3403 14.2542C17.9755 14.4972 17.6743 14.8241 17.462 15.2075C17.237 15.6332 17.1256 16.1099 17.1387 16.5912C17.1221 17.2278 17.3318 17.8497 17.7305 18.3462C18.2196 18.8968 18.8364 19.3189 19.5267 19.5755C19.8417 19.7055 20.1355 19.8327 20.408 19.9572C20.6539 20.0666 20.8902 20.1963 21.1145 20.345C21.2954 20.4627 21.4543 20.6112 21.584 20.7837C21.698 20.9403 21.7585 21.1294 21.7565 21.323C21.7575 21.4681 21.7203 21.6109 21.6485 21.737C21.5687 21.8725 21.4567 21.9861 21.3222 22.0677C21.1541 22.1703 20.9701 22.2443 20.7778 22.2867C20.5272 22.3428 20.271 22.3692 20.0142 22.3655C19.5105 22.3646 19.0107 22.2757 18.5375 22.103C18.0431 21.9246 17.5846 21.6592 17.1838 21.3192ZM13.3182 15.5907H16.3182V13.6955H7.9535V15.5907H10.94V24.0312H13.3182V15.5907Z" fill="#3178C6"/>
</svg>
