<svg width="100" height="32" viewBox="0 0 100 32" fill="none" xmlns="http://www.w3.org/2000/svg">
<path d="M95 0H31V32H95C97.7614 32 100 29.7614 100 27V5C100 2.23858 97.7614 0 95 0Z" fill="#0F1418"/>
<path d="M49.564 20V19.712L50.584 19.472V11.378L49.564 11.15V10.862H53.062V11.15L51.934 11.378V19.502H55.3C55.516 19.138 55.702 18.772 55.858 18.404C56.014 18.036 56.164 17.624 56.308 17.168H56.662L56.212 20H49.564ZM57.2233 20V19.736L58.1353 19.55V14.66L57.2413 14.342V14.156L59.2333 13.586H59.3653V19.55L60.2653 19.736V20H57.2233ZM58.7413 12.326C58.4973 12.326 58.3033 12.248 58.1593 12.092C58.0153 11.936 57.9433 11.754 57.9433 11.546C57.9433 11.318 58.0153 11.126 58.1593 10.97C58.3033 10.814 58.4973 10.736 58.7413 10.736C58.9893 10.736 59.1853 10.814 59.3293 10.97C59.4773 11.126 59.5513 11.318 59.5513 11.546C59.5513 11.754 59.4773 11.936 59.3293 12.092C59.1853 12.248 58.9893 12.326 58.7413 12.326ZM64.7915 20V19.736L65.6675 19.562V15.71C65.6675 15.234 65.5715 14.88 65.3795 14.648C65.1875 14.412 64.8775 14.294 64.4495 14.294C63.8215 14.294 63.2995 14.58 62.8835 15.152V14.654C63.2195 14.318 63.5875 14.056 63.9875 13.868C64.3875 13.68 64.7855 13.586 65.1815 13.586C66.3215 13.586 66.8915 14.124 66.8915 15.2V19.562L67.7795 19.736V20H64.7915ZM60.8855 20V19.736L61.7855 19.55V14.672L60.8975 14.342V14.168L62.8175 13.586H62.9495V14.648L63.0095 14.708V19.55L63.8915 19.736V20H60.8855ZM70.9173 20.126C70.3173 20.126 69.8793 19.988 69.6033 19.712C69.3273 19.432 69.1893 19.028 69.1893 18.5V14.156L68.3013 13.97V13.706H70.4133V18.02C70.4133 18.544 70.5053 18.904 70.6893 19.1C70.8773 19.296 71.1733 19.394 71.5773 19.394C71.8533 19.394 72.1233 19.322 72.3873 19.178C72.6513 19.034 72.8953 18.808 73.1193 18.5V18.98C72.8153 19.352 72.4733 19.636 72.0933 19.832C71.7133 20.028 71.3213 20.126 70.9173 20.126ZM73.0773 20.126V18.944L73.0113 18.92V14.156L72.1293 13.97V13.706H74.2353V19.088L75.0513 19.376V19.538L73.1793 20.126H73.0773ZM79.3378 20V19.736C79.7378 19.704 79.9658 19.652 80.0218 19.58C80.0818 19.508 80.0278 19.348 79.8598 19.1L76.7878 14.48C76.6758 14.316 76.5478 14.202 76.4038 14.138C76.2598 14.07 76.0218 14.014 75.6898 13.97V13.706H78.7978V13.97C78.4538 13.994 78.2498 14.048 78.1858 14.132C78.1258 14.216 78.1758 14.374 78.3358 14.606L81.4078 19.226C81.5198 19.386 81.6418 19.504 81.7738 19.58C81.9098 19.656 82.1238 19.708 82.4158 19.736V20H79.3378ZM75.4318 20V19.736C75.8358 19.68 76.1498 19.59 76.3738 19.466C76.5978 19.342 76.8078 19.152 77.0038 18.896L78.6538 16.688L79.0858 16.91L77.5498 18.878C77.3498 19.138 77.2918 19.334 77.3758 19.466C77.4638 19.594 77.7118 19.684 78.1198 19.736V20H75.4318ZM79.2298 16.73L78.7978 16.58L80.1838 14.828C80.3838 14.568 80.4478 14.376 80.3758 14.252C80.3038 14.128 80.0798 14.034 79.7038 13.97V13.706H82.2118V13.97C81.9558 14.018 81.7478 14.072 81.5878 14.132C81.4318 14.192 81.2958 14.272 81.1798 14.372C81.0638 14.468 80.9358 14.602 80.7958 14.774L79.2298 16.73Z" fill="white"/>
<path d="M31 0H5C2.23858 0 0 2.23858 0 5V27C0 29.7614 2.23858 32 5 32H31V0Z" fill="#FCC624"/>
<path d="M15.5099 4C15.3531 4 15.1913 4.008 15.0244 4.021C10.7495 4.354 11.8835 8.828 11.8177 10.319C11.7408 11.411 11.5142 12.272 10.7556 13.339C9.86035 14.39 8.60399 16.089 8.00817 17.86C7.72696 18.692 7.59343 19.544 7.71786 20.349C7.67172 20.3859 7.63383 20.4319 7.60659 20.484C7.34358 20.752 7.15138 21.084 6.93592 21.323C6.73462 21.522 6.44531 21.59 6.1297 21.723C5.81309 21.859 5.4641 21.992 5.25571 22.403C5.16467 22.592 5.11814 22.797 5.12219 23.005C5.12219 23.204 5.1495 23.405 5.17782 23.541C5.23649 23.94 5.29517 24.269 5.21829 24.511C4.96641 25.191 4.93505 25.656 5.11106 25.995C5.28707 26.329 5.65225 26.465 6.06193 26.596C6.88129 26.796 7.99401 26.731 8.868 27.196C9.80471 27.662 10.7556 27.866 11.5142 27.666C12.0463 27.55 12.4955 27.202 12.7362 26.72C13.33 26.717 13.9804 26.451 15.0223 26.386C15.7294 26.328 16.6145 26.653 17.6291 26.586C17.6544 26.72 17.6929 26.784 17.7445 26.919L17.7475 26.922C18.143 27.7 18.8734 28.054 19.6533 27.993C20.4332 27.933 21.2637 27.457 21.9364 26.687C22.5747 25.922 23.6388 25.603 24.3419 25.184C24.6939 24.985 24.9781 24.715 24.9984 24.331C25.0216 23.931 24.7961 23.52 24.2761 22.955V22.858L24.2731 22.855C24.1011 22.655 24.0202 22.32 23.9312 21.929C23.8452 21.528 23.7471 21.143 23.4335 20.883H23.4305C23.3708 20.829 23.306 20.816 23.2403 20.748C23.1837 20.709 23.117 20.6867 23.0481 20.684C23.4841 19.406 23.3151 18.134 22.8731 16.99C22.3339 15.58 21.3911 14.352 20.6729 13.507C19.8677 12.502 19.0787 11.55 19.0949 10.139C19.1212 7.987 19.3336 4.006 15.5099 4ZM16.045 7.405H16.0582C16.2736 7.405 16.4588 7.467 16.6489 7.603C16.8411 7.738 16.9828 7.935 17.092 8.136C17.1982 8.395 17.2518 8.595 17.2599 8.86C17.2599 8.84 17.266 8.82 17.266 8.8V8.905C17.2638 8.89819 17.2624 8.89114 17.2619 8.884L17.2579 8.86C17.2559 9.10303 17.2043 9.34315 17.1062 9.566C17.0589 9.69138 16.9855 9.80552 16.8907 9.901C16.862 9.885 16.8323 9.87097 16.8017 9.859C16.6965 9.814 16.6014 9.795 16.5144 9.726C16.4423 9.69761 16.3678 9.67553 16.2919 9.66C16.3424 9.6 16.4395 9.527 16.477 9.462C16.5306 9.334 16.5599 9.198 16.566 9.06V9.04C16.5683 8.90419 16.5474 8.76896 16.5043 8.64C16.4588 8.506 16.4021 8.44 16.3192 8.307C16.2342 8.241 16.1502 8.175 16.0491 8.175H16.0329C15.9388 8.175 15.8549 8.205 15.7679 8.307C15.6718 8.39962 15.6005 8.51439 15.5605 8.641C15.5068 8.76806 15.476 8.90344 15.4695 9.041V9.06C15.4715 9.149 15.4775 9.239 15.4897 9.327C15.2945 9.26 15.0466 9.192 14.8757 9.125C14.8655 9.05876 14.8594 8.99197 14.8575 8.925V8.905C14.8495 8.64102 14.9014 8.37862 15.0092 8.137C15.0921 7.917 15.2439 7.731 15.4442 7.604C15.6171 7.47444 15.8281 7.40521 16.045 7.405ZM13.0488 7.464H13.0852C13.2288 7.464 13.3583 7.512 13.4888 7.599C13.6365 7.728 13.7559 7.887 13.8368 8.064C13.9278 8.263 13.9784 8.464 13.9916 8.731V8.735C13.9986 8.869 13.9976 8.935 13.9895 9.001V9.081C13.9592 9.088 13.9329 9.099 13.9056 9.105C13.7518 9.16 13.6284 9.24 13.508 9.305C13.5202 9.215 13.5212 9.125 13.5111 9.038V9.023C13.4989 8.89 13.4706 8.823 13.4281 8.69C13.3966 8.58808 13.3387 8.49606 13.2602 8.423C13.2353 8.40059 13.206 8.38337 13.1742 8.37238C13.1424 8.36138 13.1087 8.35683 13.0751 8.359H13.0538C12.982 8.365 12.9223 8.399 12.8657 8.491C12.8012 8.56842 12.7592 8.66177 12.7443 8.761C12.717 8.86879 12.7091 8.9805 12.721 9.091V9.106C12.7332 9.241 12.7585 9.306 12.802 9.44C12.8485 9.574 12.9011 9.64 12.9699 9.708C12.98 9.717 12.9901 9.726 13.0043 9.732C12.9335 9.789 12.8859 9.802 12.8262 9.868C12.7884 9.90108 12.7429 9.92444 12.6937 9.936C12.5886 9.81083 12.4954 9.67625 12.4156 9.534C12.3199 9.32386 12.2667 9.0973 12.2588 8.867C12.242 8.64126 12.2695 8.41445 12.3397 8.199C12.3954 8.00252 12.493 7.8201 12.626 7.664C12.7554 7.531 12.889 7.464 13.0488 7.464ZM14.4346 9.17C14.7705 9.17 15.1761 9.235 15.6647 9.569C15.9611 9.769 16.1937 9.838 16.7289 10.037H16.7319C16.9898 10.173 17.1416 10.303 17.2154 10.436V10.305C17.2517 10.3777 17.2719 10.4572 17.2747 10.5383C17.2775 10.6193 17.2628 10.7 17.2316 10.775C17.1072 11.085 16.7096 11.418 16.1563 11.617V11.619C15.8852 11.754 15.6495 11.952 15.3723 12.084C15.0932 12.219 14.7775 12.376 14.3486 12.351C14.1946 12.3589 14.0405 12.3361 13.8955 12.284C13.7834 12.2237 13.6747 12.1576 13.5697 12.086C13.3725 11.951 13.2025 11.754 12.9507 11.621V11.616H12.9456C12.541 11.37 12.3225 11.104 12.2517 10.906C12.1809 10.638 12.2466 10.436 12.4469 10.306C12.6735 10.171 12.8313 10.035 12.9355 9.97C13.0407 9.896 13.0801 9.868 13.1135 9.839H13.1156V9.836C13.2865 9.634 13.5566 9.366 13.9643 9.235C14.1049 9.199 14.2617 9.17 14.4356 9.17H14.4346ZM17.267 11.312C17.6291 12.729 18.4768 14.787 19.0221 15.785C19.3114 16.319 19.8869 17.444 20.1368 18.809C20.2946 18.804 20.4706 18.827 20.6557 18.873C21.3092 17.202 20.1034 15.406 19.5541 14.907C19.3316 14.707 19.3195 14.572 19.4297 14.572C20.0265 15.106 20.8105 16.144 21.0948 17.329C21.2263 17.864 21.2566 18.433 21.116 18.999C21.1838 19.027 21.2526 19.059 21.3234 19.066C22.3673 19.6 22.7527 20.004 22.5676 20.603V20.56C22.5069 20.557 22.4462 20.56 22.3855 20.56H22.3693C22.5221 20.093 22.1852 19.735 21.292 19.336C20.3664 18.936 19.627 19 19.5015 19.801C19.4935 19.844 19.4884 19.867 19.4833 19.936C19.4145 19.959 19.3427 19.989 19.2719 20C18.8369 20.268 18.6023 20.669 18.4698 21.187C18.3382 21.72 18.2978 22.343 18.2624 23.056V23.059C18.2421 23.393 18.0904 23.897 17.9397 24.409C16.4223 25.481 14.3183 25.947 12.5299 24.743C12.4176 24.5491 12.281 24.37 12.1232 24.21C12.0478 24.0859 11.9541 23.9736 11.845 23.877C12.0291 23.877 12.1869 23.847 12.3154 23.81C12.4609 23.7433 12.5747 23.6236 12.633 23.476C12.7423 23.209 12.633 22.779 12.284 22.313C11.9351 21.846 11.3423 21.318 10.4754 20.792C9.83809 20.392 9.47797 19.922 9.31208 19.396C9.14517 18.862 9.16743 18.311 9.29691 17.751C9.54474 16.681 10.18 15.641 10.5856 14.988C10.6939 14.923 10.6231 15.123 10.1729 15.962C9.77234 16.713 9.01974 18.459 10.0495 19.816C10.0884 18.8259 10.3102 17.8512 10.704 16.94C11.2745 15.662 12.4671 13.436 12.5612 11.672C12.6098 11.708 12.7807 11.807 12.8536 11.874C13.0741 12.007 13.238 12.207 13.4504 12.339C13.6628 12.54 13.9329 12.674 14.3365 12.674C14.376 12.677 14.4124 12.68 14.4478 12.68C14.8645 12.68 15.1862 12.546 15.4563 12.412C15.7497 12.278 15.9823 12.078 16.2049 12.012H16.2099C16.6823 11.877 17.0546 11.61 17.266 11.312H17.267ZM19.4773 20.27C19.5147 20.87 19.8242 21.515 20.3695 21.647C20.9643 21.781 21.82 21.314 22.1812 20.882L22.3946 20.872C22.7133 20.865 22.9783 20.882 23.2514 21.14L23.2544 21.143C23.4648 21.342 23.563 21.673 23.65 22.019C23.7359 22.419 23.8057 22.799 24.0637 23.085C24.5553 23.612 24.7161 23.991 24.707 24.225L24.7101 24.218V24.236L24.707 24.225C24.6919 24.487 24.5199 24.62 24.2033 24.819C23.566 25.22 22.4371 25.531 21.7179 26.389C21.0927 27.126 20.332 27.529 19.6583 27.58C18.9867 27.633 18.407 27.38 18.0661 26.682L18.0611 26.679C17.8487 26.279 17.9397 25.654 18.1177 24.989C18.2958 24.321 18.5507 23.645 18.5861 23.092C18.6235 22.378 18.663 21.757 18.7833 21.278C18.9047 20.813 19.0949 20.481 19.4317 20.294L19.4773 20.272V20.27ZM8.53823 20.319H8.54835C8.60196 20.319 8.65456 20.324 8.70716 20.333C9.08751 20.388 9.42133 20.666 9.74199 21.085L10.6625 22.749L10.6655 22.752C10.9114 23.285 11.4283 23.816 11.8683 24.389C12.3073 24.987 12.6472 25.52 12.6057 25.959V25.965C12.5481 26.709 12.1202 27.113 11.4677 27.259C10.8153 27.394 9.93014 27.261 9.04503 26.795C8.06583 26.259 6.90254 26.326 6.15499 26.193C5.78173 26.127 5.53794 25.993 5.42363 25.793C5.31236 25.593 5.30933 25.191 5.54806 24.563V24.559L5.55008 24.556C5.66843 24.222 5.58043 23.804 5.52277 23.438C5.46713 23.037 5.43881 22.728 5.56626 22.498C5.72811 22.164 5.96684 22.098 6.26424 21.965C6.56164 21.83 6.91164 21.763 7.18982 21.495H7.19184V21.493C7.4508 21.225 7.64199 20.892 7.86757 20.655C8.05976 20.454 8.25196 20.319 8.53823 20.319ZM15.78 11.245C15.34 11.446 14.8241 11.78 14.2748 11.78C13.7265 11.78 13.2936 11.513 12.98 11.314C12.8242 11.18 12.6968 11.046 12.6027 10.979C12.4368 10.845 12.457 10.646 12.5278 10.646C12.6381 10.662 12.6583 10.78 12.7291 10.846C12.8262 10.912 12.9466 11.046 13.0933 11.179C13.3887 11.379 13.7812 11.646 14.2738 11.646C14.7644 11.646 15.339 11.379 15.688 11.18C15.8852 11.045 16.1381 10.846 16.3434 10.713C16.5013 10.577 16.4942 10.446 16.6257 10.446C16.7552 10.462 16.6601 10.58 16.477 10.778C16.2526 10.9457 16.0196 11.102 15.779 11.246L15.78 11.245ZM14.6855 9.662V9.64C14.6794 9.62 14.6986 9.598 14.7148 9.59C14.7897 9.547 14.8969 9.563 14.9778 9.594C15.0416 9.594 15.1397 9.661 15.1296 9.729C15.1235 9.778 15.0436 9.795 14.993 9.795C14.9374 9.795 14.8999 9.752 14.8504 9.727C14.7978 9.709 14.7027 9.719 14.6855 9.662ZM14.1281 9.662C14.1079 9.72 14.0138 9.711 13.9602 9.728C13.9127 9.753 13.8732 9.796 13.8186 9.796C13.768 9.796 13.6871 9.776 13.681 9.728C13.6709 9.662 13.77 9.595 13.8327 9.595C13.9137 9.564 14.0189 9.548 14.0947 9.59C14.114 9.599 14.1312 9.62 14.1251 9.64V9.66H14.1281V9.662Z" fill="white"/>
</svg>
