<svg width="100" height="32" viewBox="0 0 100 32" fill="none" xmlns="http://www.w3.org/2000/svg">
<path d="M95 0H31V32H95C97.7614 32 100 29.7614 100 27V5C100 2.23858 97.7614 0 95 0Z" fill="#0F1418"/>
<path d="M50.46 20.126L47.16 12.218H47.112V19.472L48.174 19.712V20H45.528V19.712L46.596 19.472V11.378L45.528 11.15V10.862H48.174L51.06 17.774H51.12L54.024 10.862H56.586V11.15L55.536 11.378V19.472L56.586 19.712V20H53.118V19.712L54.18 19.472V12.302H54.132L50.82 20.126H50.46ZM59.0274 20.126C58.5994 20.126 58.2514 19.992 57.9834 19.724C57.7194 19.456 57.5874 19.108 57.5874 18.68C57.5874 18.328 57.6954 18.024 57.9114 17.768C58.1274 17.512 58.4754 17.288 58.9554 17.096C59.4394 16.9 60.0774 16.722 60.8694 16.562V15.44C60.8694 14.932 60.7994 14.576 60.6594 14.372C60.5234 14.168 60.2874 14.066 59.9514 14.066C59.6194 14.066 59.3554 14.146 59.1594 14.306C58.9634 14.466 58.8654 14.682 58.8654 14.954C58.8654 15.03 58.8694 15.106 58.8774 15.182C58.8894 15.254 58.8954 15.324 58.8954 15.392C58.8954 15.596 58.8334 15.764 58.7094 15.896C58.5894 16.028 58.4354 16.094 58.2474 16.094C58.0754 16.094 57.9354 16.038 57.8274 15.926C57.7234 15.814 57.6714 15.668 57.6714 15.488C57.6714 15.228 57.7834 14.962 58.0074 14.69C58.2354 14.414 58.5354 14.178 58.9074 13.982C59.4034 13.718 59.9414 13.586 60.5214 13.586C60.8694 13.586 61.1634 13.64 61.4034 13.748C61.6474 13.856 61.8234 14.01 61.9314 14.21C61.9954 14.346 62.0374 14.518 62.0574 14.726C62.0814 14.934 62.0934 15.282 62.0934 15.77V18.452C62.0934 18.84 62.1234 19.104 62.1834 19.244C62.2474 19.384 62.3654 19.454 62.5374 19.454C62.7334 19.454 62.9234 19.342 63.1074 19.118L63.3234 19.322C63.1274 19.606 62.9274 19.812 62.7234 19.94C62.5234 20.064 62.2894 20.126 62.0214 20.126C61.6974 20.126 61.4454 20.038 61.2654 19.862C61.0854 19.686 60.9654 19.418 60.9054 19.058H60.8694C60.6414 19.386 60.3654 19.646 60.0414 19.838C59.7174 20.03 59.3794 20.126 59.0274 20.126ZM59.6274 19.364C59.8754 19.364 60.1074 19.3 60.3234 19.172C60.5394 19.04 60.7214 18.858 60.8694 18.626V16.934C60.3334 17.038 59.9114 17.152 59.6034 17.276C59.2994 17.4 59.0834 17.552 58.9554 17.732C58.8314 17.908 58.7694 18.13 58.7694 18.398C58.7694 18.706 58.8414 18.944 58.9854 19.112C59.1334 19.28 59.3474 19.364 59.6274 19.364ZM66.6816 20.126C66.1376 20.126 65.6536 19.994 65.2296 19.73C64.8096 19.462 64.4796 19.092 64.2396 18.62C64.0036 18.144 63.8856 17.596 63.8856 16.976C63.8856 16.32 64.0156 15.738 64.2756 15.23C64.5396 14.718 64.9016 14.316 65.3616 14.024C65.8256 13.732 66.3556 13.586 66.9516 13.586C67.3716 13.586 67.7476 13.656 68.0796 13.796C68.4116 13.932 68.6736 14.114 68.8656 14.342C69.0616 14.566 69.1596 14.812 69.1596 15.08C69.1596 15.3 69.1036 15.47 68.9916 15.59C68.8796 15.71 68.7276 15.77 68.5356 15.77C68.3276 15.77 68.1716 15.708 68.0676 15.584C67.9636 15.46 67.8956 15.266 67.8636 15.002C67.8196 14.606 67.7336 14.34 67.6056 14.204C67.4776 14.068 67.2716 14 66.9876 14C66.4196 14 65.9776 14.244 65.6616 14.732C65.3496 15.216 65.1936 15.86 65.1936 16.664C65.1936 17.472 65.3576 18.092 65.6856 18.524C66.0136 18.956 66.4796 19.172 67.0836 19.172C67.4836 19.172 67.8416 19.098 68.1576 18.95C68.4736 18.802 68.7556 18.556 69.0036 18.212L69.2436 18.35C69.0236 18.918 68.6936 19.356 68.2536 19.664C67.8136 19.972 67.2896 20.126 66.6816 20.126ZM74.6423 20.126C74.0103 20.126 73.4283 20.008 72.8963 19.772C72.3683 19.532 71.9083 19.2 71.5163 18.776C71.1283 18.348 70.8263 17.85 70.6103 17.282C70.3983 16.71 70.2923 16.092 70.2923 15.428C70.2923 14.76 70.3983 14.142 70.6103 13.574C70.8263 13.006 71.1283 12.51 71.5163 12.086C71.9083 11.658 72.3683 11.326 72.8963 11.09C73.4283 10.854 74.0103 10.736 74.6423 10.736C75.2743 10.736 75.8563 10.854 76.3883 11.09C76.9203 11.326 77.3803 11.658 77.7683 12.086C78.1603 12.51 78.4643 13.006 78.6803 13.574C78.8963 14.142 79.0043 14.76 79.0043 15.428C79.0043 16.092 78.8963 16.71 78.6803 17.282C78.4643 17.85 78.1603 18.348 77.7683 18.776C77.3803 19.2 76.9203 19.532 76.3883 19.772C75.8563 20.008 75.2743 20.126 74.6423 20.126ZM74.6423 19.562C74.9983 19.562 75.3203 19.498 75.6083 19.37C75.9003 19.242 76.1563 19.058 76.3763 18.818C76.6003 18.574 76.7883 18.282 76.9403 17.942C77.0923 17.602 77.2063 17.218 77.2823 16.79C77.3583 16.362 77.3963 15.898 77.3963 15.398C77.3963 14.906 77.3583 14.45 77.2823 14.03C77.2063 13.606 77.0943 13.226 76.9463 12.89C76.7983 12.554 76.6123 12.268 76.3883 12.032C76.1683 11.792 75.9123 11.61 75.6203 11.486C75.3323 11.358 75.0103 11.294 74.6543 11.294C74.2983 11.294 73.9743 11.358 73.6823 11.486C73.3903 11.61 73.1323 11.792 72.9083 12.032C72.6883 12.272 72.5023 12.562 72.3503 12.902C72.2023 13.238 72.0903 13.618 72.0143 14.042C71.9383 14.466 71.9003 14.926 71.9003 15.422C71.9003 15.918 71.9383 16.378 72.0143 16.802C72.0903 17.226 72.2023 17.608 72.3503 17.948C72.5023 18.288 72.6883 18.578 72.9083 18.818C73.1283 19.058 73.3823 19.242 73.6703 19.37C73.9623 19.498 74.2863 19.562 74.6423 19.562ZM83.2409 20.108C82.9129 20.108 82.5929 20.06 82.2809 19.964C81.9729 19.868 81.6469 19.718 81.3029 19.514L80.8289 20H80.5829L80.3609 16.958L80.6849 16.892C80.9249 17.832 81.2409 18.514 81.6329 18.938C82.0289 19.362 82.5509 19.574 83.1989 19.574C83.7429 19.574 84.1729 19.444 84.4889 19.184C84.8049 18.92 84.9629 18.564 84.9629 18.116C84.9629 17.764 84.8529 17.45 84.6329 17.174C84.4169 16.894 84.0609 16.614 83.5649 16.334L82.6469 15.848C81.8989 15.444 81.3629 15.042 81.0389 14.642C80.7149 14.242 80.5529 13.776 80.5529 13.244C80.5529 12.764 80.6709 12.336 80.9069 11.96C81.1429 11.58 81.4649 11.282 81.8729 11.066C82.2849 10.846 82.7469 10.736 83.2589 10.736C83.9589 10.736 84.5689 10.982 85.0889 11.474L85.4549 10.85H85.7129L85.8209 13.472H85.4789C85.2909 12.724 85.0189 12.172 84.6629 11.816C84.3109 11.456 83.8609 11.276 83.3129 11.276C82.8689 11.276 82.5169 11.394 82.2569 11.63C82.0009 11.866 81.8729 12.19 81.8729 12.602C81.8729 12.974 81.9949 13.306 82.2389 13.598C82.4869 13.89 82.9029 14.19 83.4869 14.498L84.3809 14.978C84.9929 15.302 85.4349 15.662 85.7069 16.058C85.9829 16.454 86.1209 16.908 86.1209 17.42C86.1209 17.928 85.9929 18.386 85.7369 18.794C85.4849 19.198 85.1409 19.518 84.7049 19.754C84.2729 19.99 83.7849 20.108 83.2409 20.108Z" fill="white"/>
<path d="M31 0H5C2.23858 0 0 2.23858 0 5V27C0 29.7614 2.23858 32 5 32H31V0Z" fill="black"/>
<path d="M3 18.545H3.941V16.092C3.941 15.608 4.259 15.257 4.712 15.257C5.151 15.257 5.422 15.533 5.422 15.979V18.545H6.337V16.068C6.337 15.588 6.647 15.256 7.101 15.256C7.561 15.256 7.819 15.536 7.819 16.026V18.544H8.759V15.796C8.759 14.995 8.242 14.462 7.452 14.462C6.874 14.462 6.398 14.772 6.205 15.267H6.182C6.035 14.753 5.63 14.462 5.064 14.462C4.519 14.462 4.096 14.768 3.922 15.233H3.903V14.538H3V18.544V18.545ZM10.82 17.899C10.412 17.899 10.14 17.691 10.14 17.362C10.14 17.044 10.4 16.84 10.854 16.81L11.78 16.753V17.06C11.78 17.543 11.353 17.899 10.82 17.899ZM10.536 18.609C11.05 18.609 11.553 18.341 11.784 17.906H11.802V18.545H12.71V15.785C12.71 14.981 12.063 14.455 11.07 14.455C10.049 14.455 9.41 14.992 9.369 15.74H10.242C10.302 15.408 10.586 15.192 11.032 15.192C11.496 15.192 11.78 15.434 11.78 15.854V16.141L10.722 16.201C9.746 16.262 9.198 16.689 9.198 17.4C9.198 18.121 9.762 18.609 10.536 18.609ZM16.841 15.967C16.776 15.124 16.122 14.455 15.064 14.455C13.9 14.455 13.144 15.26 13.144 16.542C13.144 17.842 13.9 18.624 15.072 18.624C16.077 18.624 16.769 18.034 16.844 17.139H15.956C15.869 17.592 15.559 17.864 15.083 17.864C14.486 17.864 14.101 17.381 14.101 16.542C14.101 15.718 14.482 15.219 15.076 15.219C15.578 15.219 15.876 15.54 15.952 15.967H16.841ZM19.747 13C18.156 13 17.158 14.085 17.158 15.82C17.158 17.555 18.156 18.636 19.748 18.636C21.334 18.636 22.332 17.555 22.332 15.82C22.332 14.085 21.335 13 19.747 13ZM19.747 13.832C20.718 13.832 21.338 14.602 21.338 15.82C21.338 17.033 20.718 17.804 19.748 17.804C18.772 17.804 18.156 17.034 18.156 15.82C18.156 14.603 18.772 13.832 19.747 13.832ZM22.729 17.01C22.771 18.016 23.595 18.636 24.849 18.636C26.169 18.636 27 17.986 27 16.95C27 16.137 26.531 15.68 25.424 15.427L24.797 15.283C24.127 15.125 23.852 14.913 23.852 14.55C23.852 14.097 24.267 13.794 24.884 13.794C25.507 13.794 25.934 14.1 25.98 14.611H26.91C26.887 13.651 26.093 13.001 24.891 13.001C23.704 13.001 22.861 13.654 22.861 14.621C22.861 15.401 23.338 15.884 24.343 16.115L25.05 16.281C25.738 16.444 26.017 16.671 26.017 17.063C26.017 17.517 25.56 17.842 24.902 17.842C24.237 17.842 23.735 17.513 23.674 17.01H22.729Z" fill="#DDDDDD"/>
</svg>
