<svg width="131" height="32" viewBox="0 0 131 32" fill="none" xmlns="http://www.w3.org/2000/svg">
<path d="M123.754 0H31V32H123.754C127.756 32 131 29.7614 131 27V5C131 2.23858 127.756 0 123.754 0Z" fill="#0F1418"/>
<path d="M36.724 20V19.712C37.136 19.644 37.446 19.562 37.654 19.466C37.862 19.366 38.018 19.232 38.122 19.064C38.226 18.892 38.328 18.666 38.428 18.386L40.726 12.032L40.39 11.27L41.638 10.622L44.806 18.98C44.874 19.164 44.948 19.304 45.028 19.4C45.112 19.496 45.23 19.566 45.382 19.61C45.534 19.654 45.748 19.688 46.024 19.712V20H42.1V19.712C42.488 19.688 42.778 19.66 42.97 19.628C43.162 19.592 43.272 19.514 43.3 19.394C43.328 19.27 43.292 19.068 43.192 18.788L41.032 12.866H40.996L38.962 18.524C38.874 18.768 38.85 18.968 38.89 19.124C38.93 19.276 39.048 19.398 39.244 19.49C39.44 19.578 39.726 19.652 40.102 19.712V20H36.724ZM39.412 16.736V16.232H42.7V16.736H39.412ZM50.1665 20V19.736L51.0425 19.562V15.71C51.0425 15.234 50.9465 14.88 50.7545 14.648C50.5625 14.412 50.2525 14.294 49.8245 14.294C49.1965 14.294 48.6745 14.58 48.2585 15.152V14.654C48.5945 14.318 48.9625 14.056 49.3625 13.868C49.7625 13.68 50.1605 13.586 50.5565 13.586C51.6965 13.586 52.2665 14.124 52.2665 15.2V19.562L53.1545 19.736V20H50.1665ZM46.2605 20V19.736L47.1605 19.55V14.672L46.2725 14.342V14.168L48.1925 13.586H48.3245V14.648L48.3845 14.708V19.55L49.2665 19.736V20H46.2605ZM56.4423 20.126C55.9703 20.126 55.5463 19.988 55.1702 19.712C54.7943 19.436 54.4963 19.06 54.2763 18.584C54.0603 18.104 53.9523 17.562 53.9523 16.958C53.9523 16.294 54.0843 15.71 54.3483 15.206C54.6123 14.698 54.9803 14.302 55.4523 14.018C55.9243 13.73 56.4703 13.586 57.0903 13.586C57.5303 13.586 57.9623 13.652 58.3863 13.784V11.234L57.4983 10.892V10.724L59.4603 10.142H59.5983V19.046L60.4203 19.232V19.376L58.5663 20.126H58.4703V19.136L58.4163 19.118C58.1683 19.45 57.8743 19.702 57.5343 19.874C57.1983 20.042 56.8343 20.126 56.4423 20.126ZM56.9703 19.334C57.2663 19.334 57.5403 19.272 57.7923 19.148C58.0483 19.024 58.2463 18.856 58.3863 18.644V15.308C58.3863 14.88 58.2743 14.552 58.0503 14.324C57.8303 14.096 57.5123 13.982 57.0963 13.982C56.5603 13.982 56.1263 14.236 55.7943 14.744C55.4663 15.252 55.3023 15.926 55.3023 16.766C55.3023 17.558 55.4503 18.184 55.7463 18.644C56.0423 19.104 56.4503 19.334 56.9703 19.334ZM61.0908 20V19.736L61.9908 19.55V14.66L61.1147 14.33V14.156L63.0348 13.58H63.1668V14.876L63.2148 14.936V19.55L64.4508 19.736V20H61.0908ZM63.1248 15.428L63.1008 14.936C63.3968 14.5 63.6908 14.164 63.9828 13.928C64.2788 13.692 64.5548 13.574 64.8108 13.574C65.0308 13.574 65.2168 13.65 65.3688 13.802C65.5208 13.95 65.5968 14.13 65.5968 14.342C65.5968 14.538 65.5308 14.704 65.3988 14.84C65.2668 14.972 65.1028 15.038 64.9068 15.038C64.7068 15.038 64.5508 14.964 64.4388 14.816C64.3588 14.724 64.2908 14.662 64.2348 14.63C64.1788 14.594 64.1148 14.576 64.0428 14.576C63.9268 14.576 63.7808 14.654 63.6048 14.81C63.4328 14.962 63.2728 15.168 63.1248 15.428ZM69.2952 20.126C68.6792 20.126 68.1332 19.984 67.6572 19.7C67.1812 19.412 66.8072 19.022 66.5352 18.53C66.2672 18.034 66.1332 17.476 66.1332 16.856C66.1332 16.232 66.2672 15.674 66.5352 15.182C66.8072 14.69 67.1812 14.302 67.6572 14.018C68.1332 13.73 68.6792 13.586 69.2952 13.586C69.9112 13.586 70.4552 13.73 70.9272 14.018C71.4032 14.302 71.7772 14.69 72.0492 15.182C72.3212 15.674 72.4572 16.232 72.4572 16.856C72.4572 17.476 72.3212 18.034 72.0492 18.53C71.7772 19.022 71.4032 19.412 70.9272 19.7C70.4552 19.984 69.9112 20.126 69.2952 20.126ZM69.2832 19.574C69.5752 19.574 69.8332 19.51 70.0572 19.382C70.2812 19.25 70.4692 19.064 70.6212 18.824C70.7772 18.58 70.8952 18.292 70.9752 17.96C71.0552 17.624 71.0952 17.252 71.0952 16.844C71.0952 16.44 71.0552 16.072 70.9752 15.74C70.8992 15.408 70.7852 15.122 70.6332 14.882C70.4812 14.642 70.2932 14.458 70.0692 14.33C69.8452 14.198 69.5872 14.132 69.2952 14.132C69.0032 14.132 68.7452 14.198 68.5212 14.33C68.2972 14.458 68.1092 14.642 67.9572 14.882C67.8052 15.122 67.6892 15.41 67.6092 15.746C67.5332 16.078 67.4952 16.448 67.4952 16.856C67.4952 17.264 67.5332 17.634 67.6092 17.966C67.6892 18.298 67.8052 18.584 67.9572 18.824C68.1092 19.064 68.2952 19.25 68.5152 19.382C68.7392 19.51 68.9952 19.574 69.2832 19.574ZM73.3366 20V19.736L74.2486 19.55V14.66L73.3546 14.342V14.156L75.3466 13.586H75.4786V19.55L76.3786 19.736V20H73.3366ZM74.8546 12.326C74.6106 12.326 74.4166 12.248 74.2726 12.092C74.1286 11.936 74.0566 11.754 74.0566 11.546C74.0566 11.318 74.1286 11.126 74.2726 10.97C74.4166 10.814 74.6106 10.736 74.8546 10.736C75.1026 10.736 75.2986 10.814 75.4426 10.97C75.5906 11.126 75.6646 11.318 75.6646 11.546C75.6646 11.754 75.5906 11.936 75.4426 12.092C75.2986 12.248 75.1026 12.326 74.8546 12.326ZM79.6688 20.126C79.1968 20.126 78.7728 19.988 78.3968 19.712C78.0208 19.436 77.7228 19.06 77.5028 18.584C77.2868 18.104 77.1788 17.562 77.1788 16.958C77.1788 16.294 77.3108 15.71 77.5748 15.206C77.8388 14.698 78.2068 14.302 78.6788 14.018C79.1508 13.73 79.6968 13.586 80.3168 13.586C80.7568 13.586 81.1888 13.652 81.6128 13.784V11.234L80.7248 10.892V10.724L82.6868 10.142H82.8248V19.046L83.6468 19.232V19.376L81.7928 20.126H81.6968V19.136L81.6428 19.118C81.3948 19.45 81.1008 19.702 80.7608 19.874C80.4248 20.042 80.0608 20.126 79.6688 20.126ZM80.1968 19.334C80.4928 19.334 80.7668 19.272 81.0188 19.148C81.2748 19.024 81.4728 18.856 81.6128 18.644V15.308C81.6128 14.88 81.5008 14.552 81.2768 14.324C81.0568 14.096 80.7388 13.982 80.3228 13.982C79.7868 13.982 79.3528 14.236 79.0208 14.744C78.6928 15.252 78.5288 15.926 78.5288 16.766C78.5288 17.558 78.6768 18.184 78.9728 18.644C79.2688 19.104 79.6768 19.334 80.1968 19.334ZM90.7565 20.108C90.4285 20.108 90.1085 20.06 89.7965 19.964C89.4885 19.868 89.1625 19.718 88.8185 19.514L88.3445 20H88.0985L87.8765 16.958L88.2005 16.892C88.4405 17.832 88.7565 18.514 89.1485 18.938C89.5445 19.362 90.0665 19.574 90.7145 19.574C91.2585 19.574 91.6885 19.444 92.0045 19.184C92.3205 18.92 92.4785 18.564 92.4785 18.116C92.4785 17.764 92.3685 17.45 92.1485 17.174C91.9325 16.894 91.5765 16.614 91.0805 16.334L90.1625 15.848C89.4145 15.444 88.8785 15.042 88.5545 14.642C88.2305 14.242 88.0685 13.776 88.0685 13.244C88.0685 12.764 88.1865 12.336 88.4225 11.96C88.6585 11.58 88.9805 11.282 89.3885 11.066C89.8005 10.846 90.2625 10.736 90.7745 10.736C91.4745 10.736 92.0845 10.982 92.6045 11.474L92.9705 10.85H93.2285L93.3365 13.472H92.9945C92.8065 12.724 92.5345 12.172 92.1785 11.816C91.8265 11.456 91.3765 11.276 90.8285 11.276C90.3845 11.276 90.0325 11.394 89.7725 11.63C89.5165 11.866 89.3885 12.19 89.3885 12.602C89.3885 12.974 89.5105 13.306 89.7545 13.598C90.0025 13.89 90.4185 14.19 91.0025 14.498L91.8965 14.978C92.5085 15.302 92.9505 15.662 93.2225 16.058C93.4985 16.454 93.6365 16.908 93.6365 17.42C93.6365 17.928 93.5085 18.386 93.2525 18.794C93.0005 19.198 92.6565 19.518 92.2205 19.754C91.7885 19.99 91.3005 20.108 90.7565 20.108ZM96.8301 20.126C96.3861 20.126 96.0481 20 95.8161 19.748C95.5841 19.496 95.4681 19.134 95.4681 18.662V14.15H94.6881L94.6521 13.934L96.4521 12.146L96.6861 12.17V13.706H98.4021L98.3001 14.15H96.6861V18.542C96.6861 19.198 96.9221 19.526 97.3941 19.526C97.5541 19.526 97.7121 19.484 97.8681 19.4C98.0281 19.316 98.1641 19.2 98.2761 19.052L98.4861 19.238C98.3021 19.51 98.0621 19.726 97.7661 19.886C97.4741 20.046 97.1621 20.126 96.8301 20.126ZM101.456 20.126C100.856 20.126 100.418 19.988 100.142 19.712C99.8663 19.432 99.7283 19.028 99.7283 18.5V14.156L98.8403 13.97V13.706H100.952V18.02C100.952 18.544 101.044 18.904 101.228 19.1C101.416 19.296 101.712 19.394 102.116 19.394C102.392 19.394 102.662 19.322 102.926 19.178C103.19 19.034 103.434 18.808 103.658 18.5V18.98C103.354 19.352 103.012 19.636 102.632 19.832C102.252 20.028 101.86 20.126 101.456 20.126ZM103.616 20.126V18.944L103.55 18.92V14.156L102.668 13.97V13.706H104.774V19.088L105.59 19.376V19.538L103.718 20.126H103.616ZM109.001 20.126C108.529 20.126 108.105 19.988 107.729 19.712C107.353 19.436 107.055 19.06 106.835 18.584C106.619 18.104 106.511 17.562 106.511 16.958C106.511 16.294 106.643 15.71 106.907 15.206C107.171 14.698 107.539 14.302 108.011 14.018C108.483 13.73 109.029 13.586 109.649 13.586C110.089 13.586 110.521 13.652 110.945 13.784V11.234L110.057 10.892V10.724L112.019 10.142H112.157V19.046L112.979 19.232V19.376L111.125 20.126H111.029V19.136L110.975 19.118C110.727 19.45 110.433 19.702 110.093 19.874C109.757 20.042 109.393 20.126 109.001 20.126ZM109.529 19.334C109.825 19.334 110.099 19.272 110.351 19.148C110.607 19.024 110.805 18.856 110.945 18.644V15.308C110.945 14.88 110.833 14.552 110.609 14.324C110.389 14.096 110.071 13.982 109.655 13.982C109.119 13.982 108.685 14.236 108.353 14.744C108.025 15.252 107.861 15.926 107.861 16.766C107.861 17.558 108.009 18.184 108.305 18.644C108.601 19.104 109.009 19.334 109.529 19.334ZM113.637 20V19.736L114.549 19.55V14.66L113.655 14.342V14.156L115.647 13.586H115.779V19.55L116.679 19.736V20H113.637ZM115.155 12.326C114.911 12.326 114.717 12.248 114.573 12.092C114.429 11.936 114.357 11.754 114.357 11.546C114.357 11.318 114.429 11.126 114.573 10.97C114.717 10.814 114.911 10.736 115.155 10.736C115.403 10.736 115.599 10.814 115.743 10.97C115.891 11.126 115.965 11.318 115.965 11.546C115.965 11.754 115.891 11.936 115.743 12.092C115.599 12.248 115.403 12.326 115.155 12.326ZM120.612 20.126C119.996 20.126 119.45 19.984 118.974 19.7C118.498 19.412 118.124 19.022 117.852 18.53C117.584 18.034 117.45 17.476 117.45 16.856C117.45 16.232 117.584 15.674 117.852 15.182C118.124 14.69 118.498 14.302 118.974 14.018C119.45 13.73 119.996 13.586 120.612 13.586C121.228 13.586 121.772 13.73 122.244 14.018C122.72 14.302 123.094 14.69 123.366 15.182C123.638 15.674 123.774 16.232 123.774 16.856C123.774 17.476 123.638 18.034 123.366 18.53C123.094 19.022 122.72 19.412 122.244 19.7C121.772 19.984 121.228 20.126 120.612 20.126ZM120.6 19.574C120.892 19.574 121.15 19.51 121.374 19.382C121.598 19.25 121.786 19.064 121.938 18.824C122.094 18.58 122.212 18.292 122.292 17.96C122.372 17.624 122.412 17.252 122.412 16.844C122.412 16.44 122.372 16.072 122.292 15.74C122.216 15.408 122.102 15.122 121.95 14.882C121.798 14.642 121.61 14.458 121.386 14.33C121.162 14.198 120.904 14.132 120.612 14.132C120.32 14.132 120.062 14.198 119.838 14.33C119.614 14.458 119.426 14.642 119.274 14.882C119.122 15.122 119.006 15.41 118.926 15.746C118.85 16.078 118.812 16.448 118.812 16.856C118.812 17.264 118.85 17.634 118.926 17.966C119.006 18.298 119.122 18.584 119.274 18.824C119.426 19.064 119.612 19.25 119.832 19.382C120.056 19.51 120.312 19.574 120.6 19.574Z" fill="white"/>
<path d="M31 0H5C2.23858 0 0 2.23858 0 5V27C0 29.7614 2.23858 32 5 32H31V0Z" fill="#3DDC84"/>
<path d="M22.1597 14.3368C21.8276 14.3368 21.5571 14.6073 21.5571 14.9399V24.7723H19.8192L16.4837 17.8327C16.9597 17.294 17.1634 16.5467 17.008 15.8318C16.9364 15.4785 16.7823 15.1471 16.5582 14.8648C16.3342 14.5824 16.0465 14.357 15.7187 14.207V13.3946C15.7308 13.1075 15.5761 12.8159 15.3144 12.6539C15.1753 12.5714 15.026 12.5305 14.8742 12.5305C14.7223 12.5305 14.5732 12.5713 14.4424 12.6487C14.1723 12.8158 14.0176 13.1074 14.0301 13.4149L14.0298 14.1359C13.0149 14.5027 12.3679 15.5512 12.5431 16.6556C12.614 17.1094 12.8202 17.5312 13.1347 17.8659L9.92513 24.7723H6.98323C5.88833 24.7653 5.00353 23.8775 5.00003 22.7827V9.016C4.99453 10.1184 5.88363 11.0166 6.98593 11.0222C7.03015 11.0224 7.07438 11.0212 7.11853 11.0185H21.8638C21.8638 11.0185 24.3981 10.7996 24.7257 12.5577C24.4766 12.5864 24.2808 12.7898 24.2808 13.0466C24.2808 13.7581 23.7017 14.3367 22.978 14.3367L22.1597 14.3368ZM20.1124 26.5366C20.3471 27.0203 20.1453 27.6026 19.6617 27.8373C19.5321 27.9002 19.3951 27.9268 19.2599 27.93C19.1517 27.9327 19.0437 27.9173 18.9405 27.8845C18.9165 27.8767 18.8945 27.8636 18.8711 27.854C18.7896 27.8205 18.713 27.7761 18.6434 27.7219C18.6187 27.7027 18.5939 27.6839 18.571 27.6621C18.4885 27.5838 18.4136 27.4949 18.361 27.3864L17.1056 24.7721L15.5471 21.5269C15.4848 21.394 15.3859 21.2817 15.262 21.203C15.1381 21.1243 14.9944 21.0826 14.8476 21.0826H14.8452C14.6975 21.0832 14.5528 21.1252 14.4277 21.2037C14.3025 21.2822 14.2018 21.3941 14.1369 21.5269L12.626 24.7721L11.3939 27.4185C11.3246 27.5776 11.2141 27.7152 11.0736 27.8171C10.9332 27.919 10.7681 27.9814 10.5954 27.998C10.5328 28.0033 10.4716 27.9956 10.4104 27.9893C10.376 27.9857 10.3414 27.984 10.3079 27.9769C10.259 27.9666 10.2125 27.9491 10.1659 27.9317C10.1358 27.9204 10.1046 27.912 10.0758 27.8978C10.0262 27.8734 9.98103 27.8413 9.93613 27.8089C9.91443 27.7933 9.89043 27.7814 9.86993 27.7639C9.80582 27.7099 9.74886 27.6479 9.70043 27.5795C9.60233 27.4363 9.54408 27.2696 9.53164 27.0965C9.5192 26.9234 9.55301 26.75 9.62963 26.5943L10.4765 24.772L13.7441 17.7406C13.3648 17.4605 13.1108 17.0426 13.0369 16.5769C12.8814 15.597 13.5498 14.6766 14.5297 14.521V13.3946C14.5272 13.3319 14.5413 13.2696 14.5707 13.2142C14.6002 13.1588 14.6438 13.1121 14.6971 13.0791C14.7507 13.0473 14.8119 13.0305 14.8742 13.0305C14.9365 13.0305 14.9976 13.0473 15.0512 13.0791C15.1046 13.1121 15.1482 13.1588 15.1776 13.2142C15.207 13.2696 15.2212 13.3319 15.2186 13.3946V14.5536L15.2315 14.56C15.5525 14.6484 15.8427 14.8239 16.07 15.0672C16.2973 15.3104 16.4528 15.6118 16.5193 15.938C16.5906 16.2658 16.568 16.607 16.4541 16.9225C16.3402 17.238 16.1396 17.5149 15.8754 17.7216L19.2643 24.7723L20.1124 26.5366ZM15.8745 16.306C15.8787 15.6979 15.3891 15.2016 14.781 15.1975C14.4871 15.1976 14.2049 15.3132 13.9954 15.5194C13.7904 15.7241 13.6744 16.0013 13.6724 16.291C13.6682 16.8991 14.1578 17.3954 14.7659 17.3995H14.7736C15.3782 17.3995 15.8703 16.9115 15.8745 16.306ZM14.8475 21.5828C14.7356 21.5833 14.6354 21.646 14.5904 21.7381L13.1777 24.7723H16.551L15.0946 21.7395C15.0725 21.6927 15.0375 21.6531 14.9937 21.6254C14.95 21.5977 14.8993 21.5829 14.8475 21.5828ZM22.9907 14.8369L22.9778 14.8368H22.1601C22.1466 14.8368 22.1332 14.8395 22.1207 14.8446C22.1082 14.8498 22.0969 14.8574 22.0873 14.867C22.0777 14.8765 22.0701 14.8879 22.065 14.9004C22.0598 14.9129 22.0571 14.9263 22.0571 14.9398V27.8501C22.0571 27.8763 22.067 27.9016 22.085 27.9208C22.1029 27.9399 22.1275 27.9515 22.1537 27.9531H22.9972C23.9833 27.9496 24.7808 27.1491 24.7808 26.1631V13.0468C24.7808 14.0355 23.9794 14.8369 22.9907 14.8369ZM5.50023 9.0161V9.0351C5.50413 9.8511 6.17213 10.5181 6.98763 10.522C7.03125 10.5206 7.07489 10.5195 7.11853 10.5186H8.24713C8.44433 9.2036 9.00782 7.9936 9.88513 7.0327H6.98973C6.06313 7.0358 5.29263 7.6728 5.07063 8.5302C5.31233 8.5657 5.50023 8.7652 5.50023 9.0161ZM11.8383 6.1184L10.8016 4.3284C10.7824 4.29512 10.7723 4.25737 10.7723 4.21895C10.7723 4.18053 10.7824 4.14278 10.8016 4.1095C10.8219 4.0778 10.8494 4.05135 10.8819 4.03232C10.9143 4.01329 10.9509 4.00221 10.9884 4C11.0264 4.0005 11.0635 4.01085 11.0962 4.03003C11.129 4.04921 11.1561 4.07656 11.1751 4.1094L12.2247 5.9252C13.061 5.54961 13.9673 5.35542 14.884 5.35542C15.8007 5.35542 16.7071 5.54961 17.5433 5.9252L18.5864 4.1094C18.6194 4.06872 18.6658 4.0412 18.7174 4.03184C18.7689 4.02248 18.822 4.03189 18.8672 4.05837C18.9124 4.08485 18.9466 4.12664 18.9635 4.17617C18.9805 4.22569 18.9792 4.27967 18.9598 4.3283L17.9296 6.1183C19.5967 7.0308 20.727 8.6622 21.0271 10.5201L8.74113 10.5187C9.04152 8.6615 10.1716 7.0307 11.8383 6.1184ZM17.2157 8.7386C17.2173 8.80623 17.2322 8.87288 17.2595 8.93475C17.2869 8.99662 17.3262 9.0525 17.3751 9.09919C17.4241 9.14589 17.4817 9.18248 17.5448 9.20688C17.6079 9.23128 17.6752 9.24301 17.7428 9.2414C17.8105 9.24141 17.8775 9.2281 17.94 9.20222C18.0025 9.17634 18.0593 9.13839 18.1071 9.09056C18.1549 9.04273 18.1929 8.98594 18.2187 8.92344C18.2446 8.86093 18.2579 8.79395 18.2579 8.7263C18.2573 8.62362 18.2264 8.52341 18.1691 8.43823C18.1118 8.35305 18.0306 8.2867 17.9357 8.2475C17.8408 8.2083 17.7364 8.198 17.6357 8.21789C17.5349 8.23778 17.4423 8.28697 17.3694 8.3593C17.3193 8.40867 17.2797 8.46779 17.2533 8.53303C17.2269 8.59827 17.2141 8.66823 17.2157 8.7386ZM11.4979 8.7319C11.4987 8.79955 11.5127 8.86638 11.5393 8.9286C11.5658 8.99081 11.6044 9.04719 11.6527 9.0945C11.7011 9.14181 11.7583 9.17914 11.8211 9.20434C11.8839 9.22955 11.951 9.24214 12.0186 9.2414C12.0866 9.24249 12.1541 9.22995 12.2171 9.20451C12.2802 9.17907 12.3375 9.14126 12.3856 9.0933C12.4418 9.04709 12.4877 8.98964 12.5203 8.92463C12.553 8.85963 12.5717 8.78852 12.5752 8.71586C12.5787 8.64321 12.567 8.57062 12.5408 8.50276C12.5146 8.4349 12.4745 8.37327 12.4231 8.32183C12.3717 8.27039 12.31 8.23028 12.2422 8.20408C12.1743 8.17787 12.1017 8.16615 12.0291 8.16967C11.9564 8.17319 11.8853 8.19187 11.8203 8.22451C11.7553 8.25715 11.6978 8.30303 11.6516 8.3592C11.6023 8.40779 11.5632 8.46585 11.5368 8.52989C11.5104 8.59392 11.4972 8.66263 11.4979 8.7319Z" fill="white"/>
</svg>
