<svg width="146" height="32" viewBox="0 0 146 32" fill="none" xmlns="http://www.w3.org/2000/svg">
<path d="M137.667 0H31V32H137.667C142.269 32 146 29.7614 146 27V5C146 2.23858 142.269 0 137.667 0Z" fill="#0F1418"/>
<path d="M35.724 20V19.712C36.136 19.644 36.446 19.562 36.654 19.466C36.862 19.366 37.018 19.232 37.122 19.064C37.226 18.892 37.328 18.666 37.428 18.386L39.726 12.032L39.39 11.27L40.638 10.622L43.806 18.98C43.874 19.164 43.948 19.304 44.028 19.4C44.112 19.496 44.23 19.566 44.382 19.61C44.534 19.654 44.748 19.688 45.024 19.712V20H41.1V19.712C41.488 19.688 41.778 19.66 41.97 19.628C42.162 19.592 42.272 19.514 42.3 19.394C42.328 19.27 42.292 19.068 42.192 18.788L40.032 12.866H39.996L37.962 18.524C37.874 18.768 37.85 18.968 37.89 19.124C37.93 19.276 38.048 19.398 38.244 19.49C38.44 19.578 38.726 19.652 39.102 19.712V20H35.724ZM38.412 16.736V16.232H41.7V16.736H38.412ZM45.3505 20V19.664L49.0345 14.114H46.4845C46.2845 14.646 46.1405 15.058 46.0525 15.35C45.9645 15.642 45.9005 15.882 45.8605 16.07L45.5845 16.04L45.7345 13.706H50.5825V14.036L46.8565 19.598H49.5505C49.6905 19.254 49.8125 18.91 49.9165 18.566C50.0245 18.222 50.1025 17.934 50.1505 17.702L50.4265 17.726L50.3485 20H45.3505ZM53.968 20.126C53.368 20.126 52.93 19.988 52.654 19.712C52.378 19.432 52.24 19.028 52.24 18.5V14.156L51.352 13.97V13.706H53.464V18.02C53.464 18.544 53.556 18.904 53.74 19.1C53.928 19.296 54.224 19.394 54.628 19.394C54.904 19.394 55.174 19.322 55.438 19.178C55.702 19.034 55.946 18.808 56.17 18.5V18.98C55.866 19.352 55.524 19.636 55.144 19.832C54.764 20.028 54.372 20.126 53.968 20.126ZM56.128 20.126V18.944L56.062 18.92V14.156L55.18 13.97V13.706H57.286V19.088L58.102 19.376V19.538L56.23 20.126H56.128ZM58.8486 20V19.736L59.7486 19.55V14.66L58.8726 14.33V14.156L60.7926 13.58H60.9246V14.876L60.9726 14.936V19.55L62.2086 19.736V20H58.8486ZM60.8826 15.428L60.8586 14.936C61.1546 14.5 61.4486 14.164 61.7406 13.928C62.0366 13.692 62.3126 13.574 62.5686 13.574C62.7886 13.574 62.9746 13.65 63.1266 13.802C63.2786 13.95 63.3546 14.13 63.3546 14.342C63.3546 14.538 63.2886 14.704 63.1566 14.84C63.0246 14.972 62.8606 15.038 62.6646 15.038C62.4646 15.038 62.3086 14.964 62.1966 14.816C62.1166 14.724 62.0486 14.662 61.9926 14.63C61.9366 14.594 61.8726 14.576 61.8006 14.576C61.6846 14.576 61.5386 14.654 61.3626 14.81C61.1906 14.962 61.0306 15.168 60.8826 15.428ZM66.825 20.126C66.245 20.126 65.735 19.994 65.295 19.73C64.859 19.462 64.519 19.09 64.275 18.614C64.035 18.134 63.915 17.58 63.915 16.952C63.915 16.284 64.049 15.698 64.317 15.194C64.589 14.69 64.967 14.296 65.451 14.012C65.939 13.728 66.503 13.586 67.143 13.586C67.935 13.586 68.541 13.816 68.961 14.276C69.385 14.736 69.605 15.41 69.621 16.298L69.537 16.37H64.887V16.022L68.247 15.902C68.275 15.798 68.289 15.64 68.289 15.428C68.289 14.468 67.867 13.988 67.023 13.988C66.443 13.988 65.995 14.216 65.679 14.672C65.367 15.124 65.211 15.766 65.211 16.598C65.211 18.338 65.887 19.208 67.239 19.208C68.119 19.208 68.793 18.888 69.261 18.248L69.483 18.386C69.275 18.938 68.937 19.366 68.469 19.67C68.005 19.974 67.457 20.126 66.825 20.126ZM73.8531 20V19.7L74.8731 19.472V11.378L73.8531 11.15V10.862H76.8471C77.4871 10.862 78.0371 10.89 78.4971 10.946C78.9611 11.002 79.3651 11.094 79.7091 11.222C80.0571 11.346 80.3711 11.514 80.6511 11.726C81.1951 12.13 81.6151 12.656 81.9111 13.304C82.2071 13.948 82.3551 14.662 82.3551 15.446C82.3551 16.254 82.1971 16.998 81.8811 17.678C81.5651 18.354 81.1291 18.894 80.5731 19.298C80.2211 19.55 79.8371 19.73 79.4211 19.838C79.0051 19.946 78.4971 20 77.8971 20H73.8531ZM77.4531 19.526C78.0211 19.526 78.4871 19.454 78.8511 19.31C79.2151 19.162 79.5371 18.92 79.8171 18.584C80.1251 18.2 80.3591 17.73 80.5191 17.174C80.6831 16.614 80.7651 15.996 80.7651 15.32C80.7651 14.644 80.6831 14.046 80.5191 13.526C80.3551 13.006 80.1131 12.57 79.7931 12.218C79.5011 11.91 79.1531 11.69 78.7491 11.558C78.3451 11.422 77.8211 11.354 77.1771 11.354H76.2231V18.812C76.2231 19.08 76.3131 19.266 76.4931 19.37C76.6731 19.474 76.9931 19.526 77.4531 19.526ZM85.0079 20.126C84.5799 20.126 84.2319 19.992 83.9639 19.724C83.6999 19.456 83.5679 19.108 83.5679 18.68C83.5679 18.328 83.6759 18.024 83.8919 17.768C84.1079 17.512 84.4559 17.288 84.9359 17.096C85.4199 16.9 86.0579 16.722 86.8499 16.562V15.44C86.8499 14.932 86.7799 14.576 86.6399 14.372C86.5039 14.168 86.2679 14.066 85.9319 14.066C85.5999 14.066 85.3359 14.146 85.1399 14.306C84.9439 14.466 84.8459 14.682 84.8459 14.954C84.8459 15.03 84.8499 15.106 84.8579 15.182C84.8699 15.254 84.8759 15.324 84.8759 15.392C84.8759 15.596 84.8139 15.764 84.6899 15.896C84.5699 16.028 84.4159 16.094 84.2279 16.094C84.0559 16.094 83.9159 16.038 83.8079 15.926C83.7039 15.814 83.6519 15.668 83.6519 15.488C83.6519 15.228 83.7639 14.962 83.9879 14.69C84.2159 14.414 84.5159 14.178 84.8879 13.982C85.3839 13.718 85.9219 13.586 86.5019 13.586C86.8499 13.586 87.1439 13.64 87.3839 13.748C87.6279 13.856 87.8039 14.01 87.9119 14.21C87.9759 14.346 88.0179 14.518 88.0379 14.726C88.0619 14.934 88.0739 15.282 88.0739 15.77V18.452C88.0739 18.84 88.1039 19.104 88.1639 19.244C88.2279 19.384 88.3459 19.454 88.5179 19.454C88.7139 19.454 88.9039 19.342 89.0879 19.118L89.3039 19.322C89.1079 19.606 88.9079 19.812 88.7039 19.94C88.5039 20.064 88.2699 20.126 88.0019 20.126C87.6779 20.126 87.4259 20.038 87.2459 19.862C87.0659 19.686 86.9459 19.418 86.8859 19.058H86.8499C86.6219 19.386 86.3459 19.646 86.0219 19.838C85.6979 20.03 85.3599 20.126 85.0079 20.126ZM85.6079 19.364C85.8559 19.364 86.0879 19.3 86.3039 19.172C86.5199 19.04 86.7019 18.858 86.8499 18.626V16.934C86.3139 17.038 85.8919 17.152 85.5839 17.276C85.2799 17.4 85.0639 17.552 84.9359 17.732C84.8119 17.908 84.7499 18.13 84.7499 18.398C84.7499 18.706 84.8219 18.944 84.9659 19.112C85.1139 19.28 85.3279 19.364 85.6079 19.364ZM91.834 20.126C91.39 20.126 91.052 20 90.82 19.748C90.588 19.496 90.472 19.134 90.472 18.662V14.15H89.692L89.656 13.934L91.456 12.146L91.69 12.17V13.706H93.406L93.304 14.15H91.69V18.542C91.69 19.198 91.926 19.526 92.398 19.526C92.558 19.526 92.716 19.484 92.872 19.4C93.032 19.316 93.168 19.2 93.28 19.052L93.49 19.238C93.306 19.51 93.066 19.726 92.77 19.886C92.478 20.046 92.166 20.126 91.834 20.126ZM95.5782 20.126C95.1502 20.126 94.8022 19.992 94.5342 19.724C94.2702 19.456 94.1382 19.108 94.1382 18.68C94.1382 18.328 94.2462 18.024 94.4622 17.768C94.6782 17.512 95.0262 17.288 95.5062 17.096C95.9902 16.9 96.6282 16.722 97.4202 16.562V15.44C97.4202 14.932 97.3502 14.576 97.2102 14.372C97.0742 14.168 96.8382 14.066 96.5022 14.066C96.1702 14.066 95.9062 14.146 95.7102 14.306C95.5142 14.466 95.4162 14.682 95.4162 14.954C95.4162 15.03 95.4202 15.106 95.4282 15.182C95.4402 15.254 95.4462 15.324 95.4462 15.392C95.4462 15.596 95.3842 15.764 95.2602 15.896C95.1402 16.028 94.9862 16.094 94.7982 16.094C94.6262 16.094 94.4862 16.038 94.3782 15.926C94.2742 15.814 94.2222 15.668 94.2222 15.488C94.2222 15.228 94.3342 14.962 94.5582 14.69C94.7862 14.414 95.0862 14.178 95.4582 13.982C95.9542 13.718 96.4922 13.586 97.0722 13.586C97.4202 13.586 97.7142 13.64 97.9542 13.748C98.1982 13.856 98.3742 14.01 98.4822 14.21C98.5462 14.346 98.5882 14.518 98.6082 14.726C98.6322 14.934 98.6442 15.282 98.6442 15.77V18.452C98.6442 18.84 98.6742 19.104 98.7342 19.244C98.7982 19.384 98.9162 19.454 99.0882 19.454C99.2842 19.454 99.4742 19.342 99.6582 19.118L99.8742 19.322C99.6782 19.606 99.4782 19.812 99.2742 19.94C99.0742 20.064 98.8402 20.126 98.5722 20.126C98.2482 20.126 97.9962 20.038 97.8162 19.862C97.6362 19.686 97.5162 19.418 97.4562 19.058H97.4202C97.1922 19.386 96.9162 19.646 96.5922 19.838C96.2682 20.03 95.9302 20.126 95.5782 20.126ZM96.1782 19.364C96.4262 19.364 96.6582 19.3 96.8742 19.172C97.0902 19.04 97.2722 18.858 97.4202 18.626V16.934C96.8842 17.038 96.4622 17.152 96.1542 17.276C95.8502 17.4 95.6342 17.552 95.5062 17.732C95.3822 17.908 95.3202 18.13 95.3202 18.398C95.3202 18.706 95.3922 18.944 95.5362 19.112C95.6842 19.28 95.8982 19.364 96.1782 19.364ZM106.573 20.108C106.245 20.108 105.925 20.06 105.613 19.964C105.305 19.868 104.979 19.718 104.635 19.514L104.161 20H103.915L103.693 16.958L104.017 16.892C104.257 17.832 104.573 18.514 104.965 18.938C105.361 19.362 105.883 19.574 106.531 19.574C107.075 19.574 107.505 19.444 107.821 19.184C108.137 18.92 108.295 18.564 108.295 18.116C108.295 17.764 108.185 17.45 107.965 17.174C107.749 16.894 107.393 16.614 106.897 16.334L105.979 15.848C105.231 15.444 104.695 15.042 104.371 14.642C104.047 14.242 103.885 13.776 103.885 13.244C103.885 12.764 104.003 12.336 104.239 11.96C104.475 11.58 104.797 11.282 105.205 11.066C105.617 10.846 106.079 10.736 106.591 10.736C107.291 10.736 107.901 10.982 108.421 11.474L108.787 10.85H109.045L109.153 13.472H108.811C108.623 12.724 108.351 12.172 107.995 11.816C107.643 11.456 107.193 11.276 106.645 11.276C106.201 11.276 105.849 11.394 105.589 11.63C105.333 11.866 105.205 12.19 105.205 12.602C105.205 12.974 105.327 13.306 105.571 13.598C105.819 13.89 106.235 14.19 106.819 14.498L107.713 14.978C108.325 15.302 108.767 15.662 109.039 16.058C109.315 16.454 109.453 16.908 109.453 17.42C109.453 17.928 109.325 18.386 109.069 18.794C108.817 19.198 108.473 19.518 108.037 19.754C107.605 19.99 107.117 20.108 106.573 20.108ZM112.647 20.126C112.203 20.126 111.865 20 111.633 19.748C111.401 19.496 111.285 19.134 111.285 18.662V14.15H110.505L110.469 13.934L112.269 12.146L112.503 12.17V13.706H114.219L114.117 14.15H112.503V18.542C112.503 19.198 112.739 19.526 113.211 19.526C113.371 19.526 113.529 19.484 113.685 19.4C113.845 19.316 113.981 19.2 114.093 19.052L114.303 19.238C114.119 19.51 113.879 19.726 113.583 19.886C113.291 20.046 112.979 20.126 112.647 20.126ZM117.273 20.126C116.673 20.126 116.235 19.988 115.959 19.712C115.683 19.432 115.545 19.028 115.545 18.5V14.156L114.657 13.97V13.706H116.769V18.02C116.769 18.544 116.861 18.904 117.045 19.1C117.233 19.296 117.529 19.394 117.933 19.394C118.209 19.394 118.479 19.322 118.743 19.178C119.007 19.034 119.251 18.808 119.475 18.5V18.98C119.171 19.352 118.829 19.636 118.449 19.832C118.069 20.028 117.677 20.126 117.273 20.126ZM119.433 20.126V18.944L119.367 18.92V14.156L118.485 13.97V13.706H120.591V19.088L121.407 19.376V19.538L119.535 20.126H119.433ZM124.817 20.126C124.345 20.126 123.921 19.988 123.545 19.712C123.169 19.436 122.871 19.06 122.651 18.584C122.435 18.104 122.327 17.562 122.327 16.958C122.327 16.294 122.459 15.71 122.723 15.206C122.987 14.698 123.355 14.302 123.827 14.018C124.299 13.73 124.845 13.586 125.465 13.586C125.905 13.586 126.337 13.652 126.761 13.784V11.234L125.873 10.892V10.724L127.835 10.142H127.973V19.046L128.795 19.232V19.376L126.941 20.126H126.845V19.136L126.791 19.118C126.543 19.45 126.249 19.702 125.909 19.874C125.573 20.042 125.209 20.126 124.817 20.126ZM125.345 19.334C125.641 19.334 125.915 19.272 126.167 19.148C126.423 19.024 126.621 18.856 126.761 18.644V15.308C126.761 14.88 126.649 14.552 126.425 14.324C126.205 14.096 125.887 13.982 125.471 13.982C124.935 13.982 124.501 14.236 124.169 14.744C123.841 15.252 123.677 15.926 123.677 16.766C123.677 17.558 123.825 18.184 124.121 18.644C124.417 19.104 124.825 19.334 125.345 19.334ZM129.454 20V19.736L130.366 19.55V14.66L129.472 14.342V14.156L131.464 13.586H131.596V19.55L132.496 19.736V20H129.454ZM130.972 12.326C130.728 12.326 130.534 12.248 130.39 12.092C130.246 11.936 130.174 11.754 130.174 11.546C130.174 11.318 130.246 11.126 130.39 10.97C130.534 10.814 130.728 10.736 130.972 10.736C131.22 10.736 131.416 10.814 131.56 10.97C131.708 11.126 131.782 11.318 131.782 11.546C131.782 11.754 131.708 11.936 131.56 12.092C131.416 12.248 131.22 12.326 130.972 12.326ZM136.428 20.126C135.812 20.126 135.266 19.984 134.79 19.7C134.314 19.412 133.94 19.022 133.668 18.53C133.4 18.034 133.266 17.476 133.266 16.856C133.266 16.232 133.4 15.674 133.668 15.182C133.94 14.69 134.314 14.302 134.79 14.018C135.266 13.73 135.812 13.586 136.428 13.586C137.044 13.586 137.588 13.73 138.06 14.018C138.536 14.302 138.91 14.69 139.182 15.182C139.454 15.674 139.59 16.232 139.59 16.856C139.59 17.476 139.454 18.034 139.182 18.53C138.91 19.022 138.536 19.412 138.06 19.7C137.588 19.984 137.044 20.126 136.428 20.126ZM136.416 19.574C136.708 19.574 136.966 19.51 137.19 19.382C137.414 19.25 137.602 19.064 137.754 18.824C137.91 18.58 138.028 18.292 138.108 17.96C138.188 17.624 138.228 17.252 138.228 16.844C138.228 16.44 138.188 16.072 138.108 15.74C138.032 15.408 137.918 15.122 137.766 14.882C137.614 14.642 137.426 14.458 137.202 14.33C136.978 14.198 136.72 14.132 136.428 14.132C136.136 14.132 135.878 14.198 135.654 14.33C135.43 14.458 135.242 14.642 135.09 14.882C134.938 15.122 134.822 15.41 134.742 15.746C134.666 16.078 134.628 16.448 134.628 16.856C134.628 17.264 134.666 17.634 134.742 17.966C134.822 18.298 134.938 18.584 135.09 18.824C135.242 19.064 135.428 19.25 135.648 19.382C135.872 19.51 136.128 19.574 136.416 19.574Z" fill="white"/>
<path d="M31 0H5C2.23858 0 0 2.23858 0 5V27C0 29.7614 2.23858 32 5 32H31V0Z" fill="#6BBCDA"/>
<path d="M22.275 8.09892H22.2017C22.0156 5.80141 20.2814 4 18.1586 4C16.7167 4 15.4528 4.83774 14.7311 6.09901C14.4839 6.04138 14.2314 6.01109 13.9778 6.00866C11.9844 6.00866 10.3722 7.8016 10.3722 10.0178C10.3722 12.2337 11.9844 14.0264 13.9778 14.0264H22.275C23.7414 14.0264 24.9406 12.7021 24.9406 11.0628C24.9406 9.42315 23.7417 8.09892 22.275 8.09892Z" fill="white"/>
<path d="M15.8414 7.24311C16.1247 7.24311 16.4083 7.27896 16.6758 7.34193C17.3647 5.95473 18.6933 5.00885 20.2247 5.00885C20.4108 5.00885 20.5975 5.02692 20.7758 5.05402C20.0628 4.39614 19.1553 4 18.1583 4C16.7167 4 15.4528 4.83774 14.7311 6.09901C14.4839 6.04138 14.2314 6.01109 13.9778 6.00866C11.9844 6.00866 10.3722 7.8016 10.3722 10.0178C10.3722 11.6122 11.2147 12.9904 12.43 13.639C12.1222 13.0263 11.9522 12.3147 11.9522 11.5671C11.96 9.17073 13.6942 7.24311 15.8414 7.24311Z" fill="white"/>
<path d="M5 12.684V24.5033C5 26.4939 7.82778 28.1067 11.32 28.1158V15.3867L5 12.684Z" fill="white"/>
<path d="M9.48889 10.0178C9.48889 9.8464 9.49694 9.68461 9.51306 9.51322C6.90417 9.94551 5 11.2875 5 12.8823C5 14.8282 7.82778 16.4046 11.32 16.4046V14.0444C10.21 13.1256 9.48889 11.6662 9.48889 10.0178ZM16.3761 15.0084H13.9778C12.9811 15.0084 12.0656 14.6481 11.32 14.0354V16.3959H11.3283C13.3944 16.4046 15.2256 15.8552 16.3761 15.0084Z" fill="white"/>
<path d="M15.9247 21.9359L15.9569 21.8549L16.2569 21.053L16.2892 20.972L16.6053 20.1432L17.3508 20.4945L17.4236 20.5306L17.5856 20.6026V15.0259H16.3056C15.1467 15.8729 13.3236 16.4224 11.2575 16.4224H11.2494V22.0887H15.8681L15.9247 21.9359ZM16.3194 26.1336L16.0194 25.3233L15.9872 25.242L15.6792 24.4042L16.4328 24.0617L16.5058 24.0259L16.8136 23.8819C16.8053 23.7825 16.8053 23.6927 16.8053 23.5933C16.8053 23.4855 16.8053 23.3861 16.8136 23.2782L16.5058 23.1342L16.4489 23.1068H11.32V28.0887H11.3283C13.4511 28.0887 15.3308 27.494 16.4814 26.5752L16.3436 26.1969L16.3194 26.1336Z" fill="white"/>
<path d="M23.9358 24.4853C24.0006 24.2057 24.0331 23.9087 24.0331 23.6114C24.0324 23.3239 24.0026 23.0372 23.9442 22.7559L24.8353 22.3501L24.9081 22.3143L24.8758 22.2332L24.5758 21.4223L24.5433 21.3413L24.4706 21.3774L23.5792 21.7826C23.3173 21.2904 22.942 20.87 22.4853 20.5575L22.8581 19.5664L22.8906 19.4856L22.8178 19.4495L22.0964 19.1163L22.0236 19.0802L21.9911 19.1612L21.6183 20.1523C21.3625 20.0799 21.0981 20.0435 20.8325 20.0441C20.565 20.0441 20.3139 20.0803 20.0631 20.143L19.6981 19.1522L19.6656 19.0712L19.5928 19.1073L18.8636 19.4405L18.7906 19.4766L18.8231 19.5576L19.1875 20.5487C18.7339 20.8457 18.3611 21.2693 18.0858 21.7648L17.6644 21.5666L17.1944 21.3503L17.1214 21.3142L17.0892 21.3952L16.7892 22.1971L16.7569 22.2781L16.8297 22.3143L17.7211 22.7288C17.6967 22.8276 17.6806 22.9179 17.6644 23.0168C17.6481 23.1249 17.64 23.233 17.6319 23.3415V23.3499C17.6236 23.4312 17.6236 23.5123 17.6236 23.5933C17.6236 23.6566 17.6236 23.7195 17.6319 23.7735C17.6319 23.8006 17.6319 23.8277 17.6403 23.8545C17.6403 23.8816 17.6481 23.9087 17.6481 23.9448C17.6564 24.0617 17.6725 24.1789 17.6967 24.2871C17.705 24.3413 17.7131 24.3952 17.7292 24.4404L17.6806 24.4582L16.8381 24.8456L16.765 24.8817L16.7975 24.9627L17.0972 25.7734L17.1297 25.8544L17.2025 25.8185L18.0939 25.4131C18.3556 25.9054 18.7309 26.3259 19.1875 26.6385L18.815 27.6293L18.7825 27.7103L18.8556 27.7462L19.5767 28.0796L19.6494 28.1158L19.6819 28.0344L20.0547 27.0437C20.3107 27.116 20.5752 27.1524 20.8408 27.1518C21.1003 27.1509 21.3588 27.1177 21.6103 27.0527L21.975 28.0438L22.0072 28.1248L22.0803 28.0887L22.8094 27.7555L22.8825 27.7193L22.85 27.6383L22.4853 26.6472C22.9392 26.3499 23.3119 25.9267 23.5875 25.4312L24.4786 25.8456L24.5517 25.8815L24.5842 25.8005L24.8839 24.9986L24.9161 24.9176L24.8433 24.8817L23.9358 24.4853ZM20.8244 26.089C19.5928 26.089 18.5883 24.9808 18.5883 23.6024C18.5867 23.0579 18.7506 22.5262 19.0578 22.0802L19.0661 22.0709C19.4711 21.4943 20.1114 21.125 20.8244 21.125C22.0561 21.125 23.0606 22.2332 23.0606 23.6114C23.0528 24.9808 22.0561 26.089 20.8244 26.089Z" fill="white"/>
<path d="M19.0742 22.0709H19.0661L19.0578 22.0802C19.0578 22.0802 19.0578 22.0889 19.05 22.0889L19.0742 22.0709Z" fill="white"/>
<path d="M16.4328 23.1161L15.6872 22.7646L15.9467 22.0709H10.7692L10.0397 24.044L7.83583 17.2872L6.22361 22.1522H5V23.0077H6.85556L7.87639 19.864L10.1047 26.7732L11.2797 23.1252H16.4486L16.4328 23.1161Z" fill="#6BBCDA"/>
</svg>
