<svg width="120" height="32" viewBox="0 0 120 32" fill="none" xmlns="http://www.w3.org/2000/svg">
<path d="M113.551 0H31V32H113.551C117.113 32 120 29.7614 120 27V5C120 2.23858 117.113 0 113.551 0Z" fill="#0F1418"/>
<path d="M42.986 20.126C42.134 20.126 41.38 19.932 40.724 19.544C40.072 19.152 39.56 18.61 39.188 17.918C38.82 17.226 38.636 16.432 38.636 15.536C38.636 14.844 38.748 14.208 38.972 13.628C39.196 13.044 39.51 12.536 39.914 12.104C40.318 11.668 40.794 11.332 41.342 11.096C41.89 10.856 42.488 10.736 43.136 10.736C43.604 10.736 44.042 10.8 44.45 10.928C44.858 11.056 45.196 11.236 45.464 11.468H45.506L46.13 10.862H46.406V13.616H46.1C45.844 13.04 45.584 12.584 45.32 12.248C45.056 11.908 44.762 11.664 44.438 11.516C44.118 11.368 43.738 11.294 43.298 11.294C42.298 11.294 41.542 11.652 41.03 12.368C40.518 13.08 40.262 14.134 40.262 15.53C40.262 16.882 40.502 17.892 40.982 18.56C41.462 19.224 42.19 19.556 43.166 19.556C43.546 19.556 43.884 19.496 44.18 19.376C44.476 19.252 44.696 19.07 44.84 18.83C44.884 18.774 44.912 18.708 44.924 18.632C44.936 18.552 44.942 18.412 44.942 18.212V15.938L43.874 15.71V15.422H47.354V15.71L46.298 15.938V19.034C46.074 19.246 45.782 19.434 45.422 19.598C45.062 19.762 44.67 19.892 44.246 19.988C43.822 20.08 43.402 20.126 42.986 20.126ZM51.346 20.126C50.73 20.126 50.184 19.984 49.708 19.7C49.232 19.412 48.858 19.022 48.586 18.53C48.318 18.034 48.184 17.476 48.184 16.856C48.184 16.232 48.318 15.674 48.586 15.182C48.858 14.69 49.232 14.302 49.708 14.018C50.184 13.73 50.73 13.586 51.346 13.586C51.962 13.586 52.506 13.73 52.978 14.018C53.454 14.302 53.828 14.69 54.1 15.182C54.372 15.674 54.508 16.232 54.508 16.856C54.508 17.476 54.372 18.034 54.1 18.53C53.828 19.022 53.454 19.412 52.978 19.7C52.506 19.984 51.962 20.126 51.346 20.126ZM51.334 19.574C51.626 19.574 51.884 19.51 52.108 19.382C52.332 19.25 52.52 19.064 52.672 18.824C52.828 18.58 52.946 18.292 53.026 17.96C53.106 17.624 53.146 17.252 53.146 16.844C53.146 16.44 53.106 16.072 53.026 15.74C52.95 15.408 52.836 15.122 52.684 14.882C52.532 14.642 52.344 14.458 52.12 14.33C51.896 14.198 51.638 14.132 51.346 14.132C51.054 14.132 50.796 14.198 50.572 14.33C50.348 14.458 50.16 14.642 50.008 14.882C49.856 15.122 49.74 15.41 49.66 15.746C49.584 16.078 49.546 16.448 49.546 16.856C49.546 17.264 49.584 17.634 49.66 17.966C49.74 18.298 49.856 18.584 50.008 18.824C50.16 19.064 50.346 19.25 50.566 19.382C50.79 19.51 51.046 19.574 51.334 19.574ZM58.7053 20.126C58.0893 20.126 57.5433 19.984 57.0673 19.7C56.5913 19.412 56.2173 19.022 55.9453 18.53C55.6773 18.034 55.5433 17.476 55.5433 16.856C55.5433 16.232 55.6773 15.674 55.9453 15.182C56.2173 14.69 56.5913 14.302 57.0673 14.018C57.5433 13.73 58.0893 13.586 58.7053 13.586C59.3213 13.586 59.8653 13.73 60.3373 14.018C60.8133 14.302 61.1873 14.69 61.4593 15.182C61.7313 15.674 61.8673 16.232 61.8673 16.856C61.8673 17.476 61.7313 18.034 61.4593 18.53C61.1873 19.022 60.8133 19.412 60.3373 19.7C59.8653 19.984 59.3213 20.126 58.7053 20.126ZM58.6933 19.574C58.9853 19.574 59.2433 19.51 59.4673 19.382C59.6913 19.25 59.8793 19.064 60.0313 18.824C60.1873 18.58 60.3053 18.292 60.3853 17.96C60.4653 17.624 60.5053 17.252 60.5053 16.844C60.5053 16.44 60.4653 16.072 60.3853 15.74C60.3093 15.408 60.1953 15.122 60.0433 14.882C59.8913 14.642 59.7033 14.458 59.4793 14.33C59.2553 14.198 58.9973 14.132 58.7053 14.132C58.4133 14.132 58.1553 14.198 57.9313 14.33C57.7073 14.458 57.5193 14.642 57.3673 14.882C57.2153 15.122 57.0993 15.41 57.0193 15.746C56.9433 16.078 56.9053 16.448 56.9053 16.856C56.9053 17.264 56.9433 17.634 57.0193 17.966C57.0993 18.298 57.2153 18.584 57.3673 18.824C57.5193 19.064 57.7053 19.25 57.9253 19.382C58.1493 19.51 58.4053 19.574 58.6933 19.574ZM66.7907 14.03C66.8587 13.834 66.9487 13.634 67.0607 13.43C67.1727 13.222 67.3127 13.046 67.4807 12.902C67.6487 12.758 67.8467 12.686 68.0747 12.686C68.2627 12.686 68.4267 12.74 68.5667 12.848C68.7067 12.956 68.7767 13.104 68.7767 13.292C68.7767 13.452 68.7227 13.59 68.6147 13.706C68.5067 13.818 68.3727 13.874 68.2127 13.874C68.0967 13.874 68.0107 13.848 67.9547 13.796C67.8987 13.744 67.8467 13.692 67.7987 13.64C67.7547 13.588 67.6827 13.562 67.5827 13.562C67.4747 13.562 67.3767 13.632 67.2887 13.772C67.2007 13.908 67.1387 14.064 67.1027 14.24L66.7907 14.03ZM65.5007 17.594C65.8047 17.594 66.0407 17.496 66.2087 17.3C66.3807 17.104 66.5007 16.862 66.5687 16.574C66.6367 16.282 66.6707 16 66.6707 15.728C66.6707 15.556 66.6547 15.37 66.6227 15.17C66.5947 14.966 66.5407 14.774 66.4607 14.594C66.3847 14.41 66.2727 14.26 66.1247 14.144C65.9807 14.024 65.7947 13.964 65.5667 13.964C65.3267 13.964 65.1307 14.028 64.9787 14.156C64.8267 14.28 64.7087 14.442 64.6247 14.642C64.5407 14.838 64.4827 15.044 64.4507 15.26C64.4187 15.476 64.4027 15.674 64.4027 15.854C64.4027 16.082 64.4307 16.332 64.4867 16.604C64.5427 16.872 64.6487 17.104 64.8047 17.3C64.9647 17.496 65.1967 17.594 65.5007 17.594ZM65.5067 17.99C65.0827 17.99 64.7587 18.04 64.5347 18.14C64.3107 18.236 64.1987 18.386 64.1987 18.59C64.1987 18.734 64.2987 18.854 64.4987 18.95C64.7027 19.042 65.0967 19.132 65.6807 19.22L66.5387 19.37C67.2347 19.478 67.7467 19.662 68.0747 19.922C68.4067 20.178 68.5727 20.526 68.5727 20.966C68.5727 21.33 68.4707 21.646 68.2667 21.914C68.0627 22.182 67.7887 22.402 67.4447 22.574C67.1047 22.75 66.7247 22.88 66.3047 22.964C65.8847 23.048 65.4587 23.09 65.0267 23.09C64.7107 23.09 64.4007 23.06 64.0967 23C63.7927 22.944 63.5167 22.854 63.2687 22.73C63.0247 22.606 62.8287 22.446 62.6807 22.25C62.5327 22.054 62.4587 21.816 62.4587 21.536C62.4587 21.208 62.5807 20.912 62.8247 20.648C63.0687 20.388 63.4887 20.138 64.0847 19.898L64.4507 20.048C64.1467 20.164 63.9087 20.344 63.7367 20.588C63.5647 20.836 63.4787 21.102 63.4787 21.386C63.4787 21.678 63.5607 21.918 63.7247 22.106C63.8887 22.298 64.1067 22.44 64.3787 22.532C64.6547 22.628 64.9527 22.676 65.2727 22.676C65.6607 22.676 66.0307 22.632 66.3827 22.544C66.7387 22.456 67.0287 22.32 67.2527 22.136C67.4807 21.952 67.5947 21.716 67.5947 21.428C67.5947 21.28 67.5467 21.146 67.4507 21.026C67.3547 20.906 67.1687 20.792 66.8927 20.684C66.6207 20.58 66.2187 20.478 65.6867 20.378L64.6967 20.192C64.1727 20.092 63.7787 19.936 63.5147 19.724C63.2547 19.512 63.1247 19.258 63.1247 18.962C63.1247 18.826 63.1667 18.68 63.2507 18.524C63.3387 18.368 63.5067 18.222 63.7547 18.086C64.0027 17.946 64.3687 17.842 64.8527 17.774L65.5067 17.99ZM65.5067 17.99C65.0387 17.99 64.6247 17.9 64.2647 17.72C63.9047 17.536 63.6227 17.28 63.4187 16.952C63.2147 16.62 63.1127 16.234 63.1127 15.794C63.1127 15.37 63.2167 14.992 63.4247 14.66C63.6367 14.328 63.9247 14.066 64.2887 13.874C64.6527 13.682 65.0647 13.586 65.5247 13.586C65.9807 13.586 66.3927 13.68 66.7607 13.868C67.1287 14.052 67.4207 14.308 67.6367 14.636C67.8527 14.964 67.9607 15.338 67.9607 15.758C67.9607 16.154 67.8587 16.522 67.6547 16.862C67.4507 17.198 67.1647 17.47 66.7967 17.678C66.4287 17.886 65.9987 17.99 65.5067 17.99ZM68.9788 20V19.736L69.8908 19.55V11.21L68.9908 10.892V10.706L70.9888 10.142H71.1148V19.55L72.0148 19.736V20H68.9788ZM75.7273 20.126C75.1473 20.126 74.6373 19.994 74.1973 19.73C73.7613 19.462 73.4213 19.09 73.1773 18.614C72.9373 18.134 72.8173 17.58 72.8173 16.952C72.8173 16.284 72.9513 15.698 73.2193 15.194C73.4913 14.69 73.8693 14.296 74.3533 14.012C74.8413 13.728 75.4053 13.586 76.0453 13.586C76.8373 13.586 77.4433 13.816 77.8633 14.276C78.2873 14.736 78.5073 15.41 78.5233 16.298L78.4393 16.37H73.7893V16.022L77.1493 15.902C77.1773 15.798 77.1913 15.64 77.1913 15.428C77.1913 14.468 76.7693 13.988 75.9253 13.988C75.3453 13.988 74.8973 14.216 74.5813 14.672C74.2693 15.124 74.1133 15.766 74.1133 16.598C74.1133 18.338 74.7893 19.208 76.1413 19.208C77.0213 19.208 77.6953 18.888 78.1633 18.248L78.3853 18.386C78.1773 18.938 77.8393 19.366 77.3713 19.67C76.9073 19.974 76.3593 20.126 75.7273 20.126ZM82.7554 20V19.7L83.7754 19.472V11.378L82.7554 11.15V10.862H85.7494C86.3894 10.862 86.9394 10.89 87.3994 10.946C87.8634 11.002 88.2674 11.094 88.6114 11.222C88.9594 11.346 89.2734 11.514 89.5534 11.726C90.0974 12.13 90.5174 12.656 90.8134 13.304C91.1094 13.948 91.2574 14.662 91.2574 15.446C91.2574 16.254 91.0994 16.998 90.7834 17.678C90.4674 18.354 90.0314 18.894 89.4754 19.298C89.1234 19.55 88.7394 19.73 88.3234 19.838C87.9074 19.946 87.3994 20 86.7994 20H82.7554ZM86.3554 19.526C86.9234 19.526 87.3894 19.454 87.7534 19.31C88.1174 19.162 88.4394 18.92 88.7194 18.584C89.0274 18.2 89.2614 17.73 89.4214 17.174C89.5854 16.614 89.6674 15.996 89.6674 15.32C89.6674 14.644 89.5854 14.046 89.4214 13.526C89.2574 13.006 89.0154 12.57 88.6954 12.218C88.4034 11.91 88.0554 11.69 87.6514 11.558C87.2474 11.422 86.7234 11.354 86.0794 11.354H85.1254V18.812C85.1254 19.08 85.2154 19.266 85.3954 19.37C85.5754 19.474 85.8954 19.526 86.3554 19.526ZM92.29 20V19.736L93.19 19.55V14.66L92.314 14.33V14.156L94.234 13.58H94.366V14.876L94.414 14.936V19.55L95.65 19.736V20H92.29ZM94.324 15.428L94.3 14.936C94.596 14.5 94.89 14.164 95.182 13.928C95.478 13.692 95.754 13.574 96.01 13.574C96.23 13.574 96.416 13.65 96.568 13.802C96.72 13.95 96.796 14.13 96.796 14.342C96.796 14.538 96.73 14.704 96.598 14.84C96.466 14.972 96.302 15.038 96.106 15.038C95.906 15.038 95.75 14.964 95.638 14.816C95.558 14.724 95.49 14.662 95.434 14.63C95.378 14.594 95.314 14.576 95.242 14.576C95.126 14.576 94.98 14.654 94.804 14.81C94.632 14.962 94.472 15.168 94.324 15.428ZM97.3288 20V19.736L98.2408 19.55V14.66L97.3468 14.342V14.156L99.3388 13.586H99.4708V19.55L100.371 19.736V20H97.3288ZM98.8468 12.326C98.6028 12.326 98.4088 12.248 98.2648 12.092C98.1208 11.936 98.0488 11.754 98.0488 11.546C98.0488 11.318 98.1208 11.126 98.2648 10.97C98.4088 10.814 98.6028 10.736 98.8468 10.736C99.0948 10.736 99.2908 10.814 99.4348 10.97C99.5828 11.126 99.6568 11.318 99.6568 11.546C99.6568 11.754 99.5828 11.936 99.4348 12.092C99.2908 12.248 99.0948 12.326 98.8468 12.326ZM103.454 20.126L101.282 14.48C101.21 14.292 101.122 14.166 101.018 14.102C100.914 14.034 100.712 13.99 100.412 13.97V13.706H103.502V13.97C103.162 13.982 102.938 14.012 102.83 14.06C102.722 14.104 102.668 14.174 102.668 14.27C102.668 14.362 102.692 14.474 102.74 14.606L104.096 18.452H104.144L105.41 14.864C105.482 14.66 105.518 14.504 105.518 14.396C105.518 14.28 105.466 14.194 105.362 14.138C105.258 14.078 105.03 14.022 104.678 13.97V13.706H107.138V13.97C106.842 14.018 106.618 14.076 106.466 14.144C106.314 14.208 106.2 14.298 106.124 14.414C106.052 14.53 105.98 14.686 105.908 14.882L104.024 20.126H103.454ZM110.11 20.126C109.53 20.126 109.02 19.994 108.58 19.73C108.144 19.462 107.804 19.09 107.56 18.614C107.32 18.134 107.2 17.58 107.2 16.952C107.2 16.284 107.334 15.698 107.602 15.194C107.874 14.69 108.252 14.296 108.736 14.012C109.224 13.728 109.788 13.586 110.428 13.586C111.22 13.586 111.826 13.816 112.246 14.276C112.67 14.736 112.89 15.41 112.906 16.298L112.822 16.37H108.172V16.022L111.532 15.902C111.56 15.798 111.574 15.64 111.574 15.428C111.574 14.468 111.152 13.988 110.308 13.988C109.728 13.988 109.28 14.216 108.964 14.672C108.652 15.124 108.496 15.766 108.496 16.598C108.496 18.338 109.172 19.208 110.524 19.208C111.404 19.208 112.078 18.888 112.546 18.248L112.768 18.386C112.56 18.938 112.222 19.366 111.754 19.67C111.29 19.974 110.742 20.126 110.11 20.126Z" fill="white"/>
<path d="M31 0H5C2.23858 0 0 2.23858 0 5V27C0 29.7614 2.23858 32 5 32H31V0Z" fill="#4285F4"/>
<path d="M15.01 5C12.928 5 11.256 5.02 11.267 5.047C11.277 5.067 12.975 8.048 15.041 11.667L18.801 18.241H22.561C24.642 18.241 26.314 18.221 26.303 18.194C26.298 18.174 24.595 15.193 22.528 11.574L18.768 5H15.01ZM10.25 6.73C9.03029 8.83074 7.82028 10.9371 6.62 13.049L3 19.383L4.89 22.681L6.775 25.978L10.395 19.643L14.013 13.313L12.133 10.026C11.1 8.219 10.255 6.736 10.25 6.73ZM12.509 19.383L12.306 19.731C12.192 19.929 11.346 21.403 10.426 23.018C9.864 24.0103 9.29799 25.0003 8.728 25.988C8.718 26.014 11.968 26.03 15.95 26.03H23.194L24.99 22.873C25.982 21.139 26.84 19.643 26.896 19.55L27 19.383H19.751H12.509Z" fill="white"/>
</svg>
