<svg width="158" height="32" viewBox="0 0 158 32" fill="none" xmlns="http://www.w3.org/2000/svg">
<path d="M148.797 0H31V32H148.797C153.88 32 158 29.7614 158 27V5C158 2.23858 153.88 0 148.797 0Z" fill="#0F1418"/>
<path d="M43.46 20.126L40.16 12.218H40.112V19.472L41.174 19.712V20H38.528V19.712L39.596 19.472V11.378L38.528 11.15V10.862H41.174L44.06 17.774H44.12L47.024 10.862H49.586V11.15L48.536 11.378V19.472L49.586 19.712V20H46.118V19.712L47.18 19.472V12.302H47.132L43.82 20.126H43.46ZM53.5139 20.126C52.8979 20.126 52.3519 19.984 51.8759 19.7C51.3999 19.412 51.0259 19.022 50.7539 18.53C50.4859 18.034 50.3519 17.476 50.3519 16.856C50.3519 16.232 50.4859 15.674 50.7539 15.182C51.0259 14.69 51.3999 14.302 51.8759 14.018C52.3519 13.73 52.8979 13.586 53.5139 13.586C54.1299 13.586 54.6739 13.73 55.1459 14.018C55.6219 14.302 55.9959 14.69 56.2679 15.182C56.5399 15.674 56.6759 16.232 56.6759 16.856C56.6759 17.476 56.5399 18.034 56.2679 18.53C55.9959 19.022 55.6219 19.412 55.1459 19.7C54.6739 19.984 54.1299 20.126 53.5139 20.126ZM53.5019 19.574C53.7939 19.574 54.0519 19.51 54.2759 19.382C54.4999 19.25 54.6879 19.064 54.8399 18.824C54.9959 18.58 55.1139 18.292 55.1939 17.96C55.2739 17.624 55.3139 17.252 55.3139 16.844C55.3139 16.44 55.2739 16.072 55.1939 15.74C55.1179 15.408 55.0039 15.122 54.8519 14.882C54.6999 14.642 54.5119 14.458 54.2879 14.33C54.0639 14.198 53.8059 14.132 53.5139 14.132C53.2219 14.132 52.9639 14.198 52.7399 14.33C52.5159 14.458 52.3279 14.642 52.1759 14.882C52.0239 15.122 51.9079 15.41 51.8279 15.746C51.7519 16.078 51.7139 16.448 51.7139 16.856C51.7139 17.264 51.7519 17.634 51.8279 17.966C51.9079 18.298 52.0239 18.584 52.1759 18.824C52.3279 19.064 52.5139 19.25 52.7339 19.382C52.9579 19.51 53.2139 19.574 53.5019 19.574ZM61.4673 20V19.736L62.3433 19.562V15.71C62.3433 15.234 62.2473 14.88 62.0553 14.648C61.8633 14.412 61.5533 14.294 61.1253 14.294C60.4973 14.294 59.9753 14.58 59.5593 15.152V14.654C59.8953 14.318 60.2633 14.056 60.6633 13.868C61.0633 13.68 61.4613 13.586 61.8573 13.586C62.9973 13.586 63.5673 14.124 63.5673 15.2V19.562L64.4553 19.736V20H61.4673ZM57.5613 20V19.736L58.4613 19.55V14.672L57.5733 14.342V14.168L59.4933 13.586H59.6253V14.648L59.6853 14.708V19.55L60.5673 19.736V20H57.5613ZM69.111 14.03C69.179 13.834 69.269 13.634 69.381 13.43C69.493 13.222 69.633 13.046 69.801 12.902C69.969 12.758 70.167 12.686 70.395 12.686C70.583 12.686 70.747 12.74 70.887 12.848C71.027 12.956 71.097 13.104 71.097 13.292C71.097 13.452 71.043 13.59 70.935 13.706C70.827 13.818 70.693 13.874 70.533 13.874C70.417 13.874 70.331 13.848 70.275 13.796C70.219 13.744 70.167 13.692 70.119 13.64C70.075 13.588 70.003 13.562 69.903 13.562C69.795 13.562 69.697 13.632 69.609 13.772C69.521 13.908 69.459 14.064 69.423 14.24L69.111 14.03ZM67.821 17.594C68.125 17.594 68.361 17.496 68.529 17.3C68.701 17.104 68.821 16.862 68.889 16.574C68.957 16.282 68.991 16 68.991 15.728C68.991 15.556 68.975 15.37 68.943 15.17C68.915 14.966 68.861 14.774 68.781 14.594C68.705 14.41 68.593 14.26 68.445 14.144C68.301 14.024 68.115 13.964 67.887 13.964C67.647 13.964 67.451 14.028 67.299 14.156C67.147 14.28 67.029 14.442 66.945 14.642C66.861 14.838 66.803 15.044 66.771 15.26C66.739 15.476 66.723 15.674 66.723 15.854C66.723 16.082 66.751 16.332 66.807 16.604C66.863 16.872 66.969 17.104 67.125 17.3C67.285 17.496 67.517 17.594 67.821 17.594ZM67.827 17.99C67.403 17.99 67.079 18.04 66.855 18.14C66.631 18.236 66.519 18.386 66.519 18.59C66.519 18.734 66.619 18.854 66.819 18.95C67.023 19.042 67.417 19.132 68.001 19.22L68.859 19.37C69.555 19.478 70.067 19.662 70.395 19.922C70.727 20.178 70.893 20.526 70.893 20.966C70.893 21.33 70.791 21.646 70.587 21.914C70.383 22.182 70.109 22.402 69.765 22.574C69.425 22.75 69.045 22.88 68.625 22.964C68.205 23.048 67.779 23.09 67.347 23.09C67.031 23.09 66.721 23.06 66.417 23C66.113 22.944 65.837 22.854 65.589 22.73C65.345 22.606 65.149 22.446 65.001 22.25C64.853 22.054 64.779 21.816 64.779 21.536C64.779 21.208 64.901 20.912 65.145 20.648C65.389 20.388 65.809 20.138 66.405 19.898L66.771 20.048C66.467 20.164 66.229 20.344 66.057 20.588C65.885 20.836 65.799 21.102 65.799 21.386C65.799 21.678 65.881 21.918 66.045 22.106C66.209 22.298 66.427 22.44 66.699 22.532C66.975 22.628 67.273 22.676 67.593 22.676C67.981 22.676 68.351 22.632 68.703 22.544C69.059 22.456 69.349 22.32 69.573 22.136C69.801 21.952 69.915 21.716 69.915 21.428C69.915 21.28 69.867 21.146 69.771 21.026C69.675 20.906 69.489 20.792 69.213 20.684C68.941 20.58 68.539 20.478 68.007 20.378L67.017 20.192C66.493 20.092 66.099 19.936 65.835 19.724C65.575 19.512 65.445 19.258 65.445 18.962C65.445 18.826 65.487 18.68 65.571 18.524C65.659 18.368 65.827 18.222 66.075 18.086C66.323 17.946 66.689 17.842 67.173 17.774L67.827 17.99ZM67.827 17.99C67.359 17.99 66.945 17.9 66.585 17.72C66.225 17.536 65.943 17.28 65.739 16.952C65.535 16.62 65.433 16.234 65.433 15.794C65.433 15.37 65.537 14.992 65.745 14.66C65.957 14.328 66.245 14.066 66.609 13.874C66.973 13.682 67.385 13.586 67.845 13.586C68.301 13.586 68.713 13.68 69.081 13.868C69.449 14.052 69.741 14.308 69.957 14.636C70.173 14.964 70.281 15.338 70.281 15.758C70.281 16.154 70.179 16.522 69.975 16.862C69.771 17.198 69.485 17.47 69.117 17.678C68.749 17.886 68.319 17.99 67.827 17.99ZM74.6546 20.126C74.0386 20.126 73.4926 19.984 73.0166 19.7C72.5406 19.412 72.1666 19.022 71.8946 18.53C71.6266 18.034 71.4926 17.476 71.4926 16.856C71.4926 16.232 71.6266 15.674 71.8946 15.182C72.1666 14.69 72.5406 14.302 73.0166 14.018C73.4926 13.73 74.0386 13.586 74.6546 13.586C75.2706 13.586 75.8146 13.73 76.2866 14.018C76.7626 14.302 77.1366 14.69 77.4086 15.182C77.6806 15.674 77.8166 16.232 77.8166 16.856C77.8166 17.476 77.6806 18.034 77.4086 18.53C77.1366 19.022 76.7626 19.412 76.2866 19.7C75.8146 19.984 75.2706 20.126 74.6546 20.126ZM74.6426 19.574C74.9346 19.574 75.1926 19.51 75.4166 19.382C75.6406 19.25 75.8286 19.064 75.9806 18.824C76.1366 18.58 76.2546 18.292 76.3346 17.96C76.4146 17.624 76.4546 17.252 76.4546 16.844C76.4546 16.44 76.4146 16.072 76.3346 15.74C76.2586 15.408 76.1446 15.122 75.9926 14.882C75.8406 14.642 75.6526 14.458 75.4286 14.33C75.2046 14.198 74.9466 14.132 74.6546 14.132C74.3626 14.132 74.1046 14.198 73.8806 14.33C73.6566 14.458 73.4686 14.642 73.3166 14.882C73.1646 15.122 73.0486 15.41 72.9686 15.746C72.8926 16.078 72.8546 16.448 72.8546 16.856C72.8546 17.264 72.8926 17.634 72.9686 17.966C73.0486 18.298 73.1646 18.584 73.3166 18.824C73.4686 19.064 73.6546 19.25 73.8746 19.382C74.0986 19.51 74.3546 19.574 74.6426 19.574ZM78.6187 20V19.7L79.6387 19.472V11.378L78.6187 11.15V10.862H81.6127C82.2527 10.862 82.8027 10.89 83.2627 10.946C83.7267 11.002 84.1307 11.094 84.4747 11.222C84.8227 11.346 85.1367 11.514 85.4167 11.726C85.9607 12.13 86.3807 12.656 86.6767 13.304C86.9727 13.948 87.1207 14.662 87.1207 15.446C87.1207 16.254 86.9627 16.998 86.6467 17.678C86.3307 18.354 85.8947 18.894 85.3387 19.298C84.9867 19.55 84.6027 19.73 84.1867 19.838C83.7707 19.946 83.2627 20 82.6627 20H78.6187ZM82.2187 19.526C82.7867 19.526 83.2527 19.454 83.6167 19.31C83.9807 19.162 84.3027 18.92 84.5827 18.584C84.8907 18.2 85.1247 17.73 85.2847 17.174C85.4487 16.614 85.5307 15.996 85.5307 15.32C85.5307 14.644 85.4487 14.046 85.2847 13.526C85.1207 13.006 84.8787 12.57 84.5587 12.218C84.2667 11.91 83.9187 11.69 83.5147 11.558C83.1107 11.422 82.5867 11.354 81.9427 11.354H80.9887V18.812C80.9887 19.08 81.0787 19.266 81.2587 19.37C81.4387 19.474 81.7587 19.526 82.2187 19.526ZM88.2163 20V19.712L89.2363 19.472V11.384L88.2163 11.15V10.862H91.8043C92.3563 10.862 92.8143 10.902 93.1783 10.982C93.5463 11.058 93.8523 11.178 94.0963 11.342C94.3803 11.538 94.6023 11.788 94.7623 12.092C94.9223 12.396 95.0023 12.724 95.0023 13.076C95.0023 13.588 94.8303 14.02 94.4863 14.372C94.1463 14.724 93.6563 14.964 93.0163 15.092V15.134C93.4963 15.186 93.9163 15.324 94.2763 15.548C94.6363 15.768 94.9143 16.052 95.1103 16.4C95.3103 16.748 95.4103 17.14 95.4103 17.576C95.4103 17.94 95.3383 18.28 95.1943 18.596C95.0503 18.912 94.8523 19.172 94.6003 19.376C94.3243 19.6 93.9863 19.76 93.5863 19.856C93.1863 19.952 92.6583 20 92.0023 20H88.2163ZM91.6183 19.526C92.4023 19.526 92.9803 19.36 93.3523 19.028C93.7283 18.692 93.9163 18.174 93.9163 17.474C93.9163 16.758 93.7223 16.232 93.3343 15.896C92.9463 15.556 92.3403 15.386 91.5163 15.386H90.5863V18.818C90.5863 19.094 90.6583 19.282 90.8023 19.382C90.9503 19.478 91.2223 19.526 91.6183 19.526ZM90.5863 14.894H91.2463C91.4623 14.894 91.6423 14.892 91.7863 14.888C91.9343 14.88 92.0703 14.87 92.1943 14.858C92.6343 14.81 92.9723 14.632 93.2083 14.324C93.4443 14.012 93.5623 13.59 93.5623 13.058C93.5623 12.774 93.5263 12.536 93.4543 12.344C93.3823 12.148 93.2683 11.974 93.1123 11.822C92.9403 11.646 92.7323 11.524 92.4883 11.456C92.2483 11.384 91.9183 11.348 91.4983 11.348H90.5863V14.894ZM104.228 20.126C103.368 20.126 102.61 19.93 101.954 19.538C101.302 19.146 100.792 18.602 100.424 17.906C100.06 17.206 99.8785 16.4 99.8785 15.488C99.8785 14.792 99.9845 14.154 100.196 13.574C100.412 12.994 100.716 12.492 101.108 12.068C101.5 11.644 101.964 11.316 102.5 11.084C103.036 10.852 103.624 10.736 104.264 10.736C104.736 10.736 105.194 10.8 105.638 10.928C106.086 11.052 106.49 11.232 106.85 11.468H106.898L107.474 10.862H107.708V13.616H107.318C107.25 13.396 107.174 13.198 107.09 13.022C107.01 12.846 106.924 12.684 106.832 12.536C106.552 12.088 106.222 11.768 105.842 11.576C105.462 11.384 105.01 11.288 104.486 11.288C103.518 11.288 102.772 11.642 102.248 12.35C101.728 13.058 101.468 14.074 101.468 15.398C101.468 16.722 101.73 17.746 102.254 18.47C102.782 19.194 103.526 19.556 104.486 19.556C104.962 19.556 105.392 19.462 105.776 19.274C106.16 19.082 106.48 18.802 106.736 18.434C106.884 18.226 107.01 17.99 107.114 17.726C107.222 17.462 107.304 17.174 107.36 16.862H107.708V20H107.402L106.862 19.22C106.438 19.536 106.014 19.766 105.59 19.91C105.17 20.054 104.716 20.126 104.228 20.126ZM112.155 20.126C111.539 20.126 110.993 19.984 110.517 19.7C110.041 19.412 109.667 19.022 109.395 18.53C109.127 18.034 108.993 17.476 108.993 16.856C108.993 16.232 109.127 15.674 109.395 15.182C109.667 14.69 110.041 14.302 110.517 14.018C110.993 13.73 111.539 13.586 112.155 13.586C112.771 13.586 113.315 13.73 113.787 14.018C114.263 14.302 114.637 14.69 114.909 15.182C115.181 15.674 115.317 16.232 115.317 16.856C115.317 17.476 115.181 18.034 114.909 18.53C114.637 19.022 114.263 19.412 113.787 19.7C113.315 19.984 112.771 20.126 112.155 20.126ZM112.143 19.574C112.435 19.574 112.693 19.51 112.917 19.382C113.141 19.25 113.329 19.064 113.481 18.824C113.637 18.58 113.755 18.292 113.835 17.96C113.915 17.624 113.955 17.252 113.955 16.844C113.955 16.44 113.915 16.072 113.835 15.74C113.759 15.408 113.645 15.122 113.493 14.882C113.341 14.642 113.153 14.458 112.929 14.33C112.705 14.198 112.447 14.132 112.155 14.132C111.863 14.132 111.605 14.198 111.381 14.33C111.157 14.458 110.969 14.642 110.817 14.882C110.665 15.122 110.549 15.41 110.469 15.746C110.393 16.078 110.355 16.448 110.355 16.856C110.355 17.264 110.393 17.634 110.469 17.966C110.549 18.298 110.665 18.584 110.817 18.824C110.969 19.064 111.155 19.25 111.375 19.382C111.599 19.51 111.855 19.574 112.143 19.574ZM116.202 20V19.736L117.096 19.55V14.672L116.214 14.342V14.168L118.11 13.586H118.266V14.624L118.326 14.684V19.55L119.208 19.736V20H116.202ZM119.994 20V19.736L120.882 19.562V15.896C120.882 15.328 120.792 14.92 120.612 14.672C120.436 14.42 120.152 14.294 119.76 14.294C119.456 14.294 119.166 14.37 118.89 14.522C118.618 14.67 118.38 14.884 118.176 15.164V14.66C118.512 14.32 118.882 14.056 119.286 13.868C119.694 13.68 120.094 13.586 120.486 13.586C121.034 13.586 121.44 13.73 121.704 14.018C121.968 14.302 122.1 14.746 122.1 15.35V19.562L122.988 19.736V20H119.994ZM123.774 20V19.736L124.656 19.562V15.86C124.656 15.292 124.57 14.89 124.398 14.654C124.23 14.414 123.944 14.294 123.54 14.294C123.216 14.294 122.92 14.37 122.652 14.522C122.388 14.67 122.156 14.884 121.956 15.164V14.66C122.264 14.304 122.626 14.036 123.042 13.856C123.458 13.676 123.878 13.586 124.302 13.586C124.838 13.586 125.23 13.732 125.478 14.024C125.726 14.316 125.858 14.776 125.874 15.404V19.562L126.762 19.736V20H123.774ZM127.25 22.97V22.736L128.162 22.538V14.66L127.28 14.342V14.156L129.194 13.586H129.338V14.612H129.386C129.626 14.256 129.92 13.996 130.268 13.832C130.62 13.668 130.976 13.586 131.336 13.586C131.836 13.586 132.274 13.724 132.65 14C133.03 14.272 133.326 14.646 133.538 15.122C133.754 15.598 133.862 16.142 133.862 16.754C133.862 17.414 133.722 17.998 133.442 18.506C133.162 19.014 132.772 19.412 132.272 19.7C131.776 19.984 131.196 20.126 130.532 20.126C130.34 20.126 130.15 20.11 129.962 20.078C129.774 20.05 129.584 20.004 129.392 19.94V22.538L130.616 22.736V22.97H127.25ZM130.58 19.724C130.968 19.724 131.308 19.606 131.6 19.37C131.892 19.134 132.118 18.808 132.278 18.392C132.442 17.972 132.524 17.49 132.524 16.946C132.524 16.15 132.362 15.524 132.038 15.068C131.718 14.612 131.28 14.384 130.724 14.384C130.48 14.384 130.23 14.45 129.974 14.582C129.718 14.71 129.538 14.872 129.434 15.068V18.542C129.434 18.886 129.544 19.17 129.764 19.394C129.988 19.614 130.26 19.724 130.58 19.724ZM136.402 20.126C135.974 20.126 135.626 19.992 135.358 19.724C135.094 19.456 134.962 19.108 134.962 18.68C134.962 18.328 135.07 18.024 135.286 17.768C135.502 17.512 135.85 17.288 136.33 17.096C136.814 16.9 137.452 16.722 138.244 16.562V15.44C138.244 14.932 138.174 14.576 138.034 14.372C137.898 14.168 137.662 14.066 137.326 14.066C136.994 14.066 136.73 14.146 136.534 14.306C136.338 14.466 136.24 14.682 136.24 14.954C136.24 15.03 136.244 15.106 136.252 15.182C136.264 15.254 136.27 15.324 136.27 15.392C136.27 15.596 136.208 15.764 136.084 15.896C135.964 16.028 135.81 16.094 135.622 16.094C135.45 16.094 135.31 16.038 135.202 15.926C135.098 15.814 135.046 15.668 135.046 15.488C135.046 15.228 135.158 14.962 135.382 14.69C135.61 14.414 135.91 14.178 136.282 13.982C136.778 13.718 137.316 13.586 137.896 13.586C138.244 13.586 138.538 13.64 138.778 13.748C139.022 13.856 139.198 14.01 139.306 14.21C139.37 14.346 139.412 14.518 139.432 14.726C139.456 14.934 139.468 15.282 139.468 15.77V18.452C139.468 18.84 139.498 19.104 139.558 19.244C139.622 19.384 139.74 19.454 139.912 19.454C140.108 19.454 140.298 19.342 140.482 19.118L140.698 19.322C140.502 19.606 140.302 19.812 140.098 19.94C139.898 20.064 139.664 20.126 139.396 20.126C139.072 20.126 138.82 20.038 138.64 19.862C138.46 19.686 138.34 19.418 138.28 19.058H138.244C138.016 19.386 137.74 19.646 137.416 19.838C137.092 20.03 136.754 20.126 136.402 20.126ZM137.002 19.364C137.25 19.364 137.482 19.3 137.698 19.172C137.914 19.04 138.096 18.858 138.244 18.626V16.934C137.708 17.038 137.286 17.152 136.978 17.276C136.674 17.4 136.458 17.552 136.33 17.732C136.206 17.908 136.144 18.13 136.144 18.398C136.144 18.706 136.216 18.944 136.36 19.112C136.508 19.28 136.722 19.364 137.002 19.364ZM143.145 20.126C142.889 20.126 142.605 20.1 142.293 20.048C141.985 20 141.715 19.938 141.483 19.862L141.405 17.936H141.717C141.769 18.528 141.921 18.976 142.173 19.28C142.425 19.58 142.775 19.73 143.223 19.73C143.571 19.73 143.849 19.634 144.057 19.442C144.269 19.246 144.375 18.99 144.375 18.674C144.375 18.41 144.297 18.184 144.141 17.996C143.985 17.804 143.715 17.61 143.331 17.414L142.833 17.168C142.321 16.912 141.955 16.644 141.735 16.364C141.515 16.08 141.405 15.738 141.405 15.338C141.405 14.778 141.599 14.346 141.987 14.042C142.379 13.738 142.937 13.586 143.661 13.586C143.941 13.586 144.211 13.606 144.471 13.646C144.735 13.682 144.941 13.732 145.089 13.796V15.44H144.813C144.697 14.464 144.243 13.976 143.451 13.976C143.143 13.976 142.895 14.06 142.707 14.228C142.523 14.392 142.431 14.616 142.431 14.9C142.431 15.148 142.511 15.36 142.671 15.536C142.835 15.712 143.111 15.894 143.499 16.082L144.045 16.346C144.517 16.578 144.857 16.834 145.065 17.114C145.273 17.394 145.377 17.748 145.377 18.176C145.377 18.772 145.177 19.246 144.777 19.598C144.377 19.95 143.833 20.126 143.145 20.126ZM148.371 20.126C148.115 20.126 147.831 20.1 147.519 20.048C147.211 20 146.941 19.938 146.709 19.862L146.631 17.936H146.943C146.995 18.528 147.147 18.976 147.399 19.28C147.651 19.58 148.001 19.73 148.449 19.73C148.797 19.73 149.075 19.634 149.283 19.442C149.495 19.246 149.601 18.99 149.601 18.674C149.601 18.41 149.523 18.184 149.367 17.996C149.211 17.804 148.941 17.61 148.557 17.414L148.059 17.168C147.547 16.912 147.181 16.644 146.961 16.364C146.741 16.08 146.631 15.738 146.631 15.338C146.631 14.778 146.825 14.346 147.213 14.042C147.605 13.738 148.163 13.586 148.887 13.586C149.167 13.586 149.437 13.606 149.697 13.646C149.961 13.682 150.167 13.732 150.315 13.796V15.44H150.039C149.923 14.464 149.469 13.976 148.677 13.976C148.369 13.976 148.121 14.06 147.933 14.228C147.749 14.392 147.657 14.616 147.657 14.9C147.657 15.148 147.737 15.36 147.897 15.536C148.061 15.712 148.337 15.894 148.725 16.082L149.271 16.346C149.743 16.578 150.083 16.834 150.291 17.114C150.499 17.394 150.603 17.748 150.603 18.176C150.603 18.772 150.403 19.246 150.003 19.598C149.603 19.95 149.059 20.126 148.371 20.126Z" fill="white"/>
<path d="M31 0H5C2.23858 0 0 2.23858 0 5V27C0 29.7614 2.23858 32 5 32H31V0Z" fill="#47A248"/>
<path d="M20.5836 13.555C19.3196 7.975 16.3316 6.141 16.0106 5.44C15.7306 5.046 15.4806 4.486 15.2756 4C15.2396 4.495 15.2206 4.685 14.7526 5.184C14.0296 5.75 10.3146 8.866 10.0126 15.204C9.73056 21.116 14.2826 24.639 14.9006 25.088L14.9706 25.138C15.0993 26.0898 15.2093 27.0439 15.3006 28H15.7816C15.8956 26.968 16.0656 25.944 16.2916 24.93C16.7086 24.634 16.8956 24.467 17.1416 24.237C18.3065 23.1593 19.2323 21.8491 19.8592 20.3911C20.486 18.9332 20.7999 17.3599 20.7806 15.773C20.7906 14.959 20.6776 14.111 20.5836 13.555ZM15.2476 21.75C15.2476 21.75 15.2476 13.459 15.5226 13.46C15.7356 13.46 16.0126 24.155 16.0126 24.155C15.6316 24.11 15.2476 22.395 15.2476 21.75Z" fill="white"/>
</svg>
