<svg width="149" height="32" viewBox="0 0 149 32" fill="none" xmlns="http://www.w3.org/2000/svg">
<path d="M140.449 0H31V32H140.449C145.172 32 149 29.7614 149 27V5C149 2.23858 145.172 0 140.449 0Z" fill="#0F1418"/>
<path d="M39.242 20.126L36.104 11.876C36.04 11.696 35.966 11.558 35.882 11.462C35.802 11.362 35.686 11.29 35.534 11.246C35.382 11.202 35.168 11.17 34.892 11.15V10.862H38.882V11.15C38.458 11.174 38.152 11.206 37.964 11.246C37.78 11.282 37.678 11.35 37.658 11.45C37.642 11.546 37.67 11.7 37.742 11.912L39.758 17.714L39.83 17.708L41.672 12.446C41.776 12.158 41.814 11.93 41.786 11.762C41.758 11.594 41.646 11.464 41.45 11.372C41.258 11.28 40.964 11.206 40.568 11.15V10.862H43.952V11.15C43.54 11.21 43.228 11.288 43.016 11.384C42.808 11.48 42.652 11.614 42.548 11.786C42.444 11.954 42.342 12.182 42.242 12.47L39.488 20.126H39.242ZM44.0084 20V19.736L44.9204 19.55V14.66L44.0264 14.342V14.156L46.0184 13.586H46.1504V19.55L47.0504 19.736V20H44.0084ZM45.5264 12.326C45.2824 12.326 45.0884 12.248 44.9444 12.092C44.8004 11.936 44.7284 11.754 44.7284 11.546C44.7284 11.318 44.8004 11.126 44.9444 10.97C45.0884 10.814 45.2824 10.736 45.5264 10.736C45.7744 10.736 45.9704 10.814 46.1144 10.97C46.2624 11.126 46.3364 11.318 46.3364 11.546C46.3364 11.754 46.2624 11.936 46.1144 12.092C45.9704 12.248 45.7744 12.326 45.5264 12.326ZM49.7227 20.126C49.4667 20.126 49.1827 20.1 48.8707 20.048C48.5627 20 48.2927 19.938 48.0607 19.862L47.9827 17.936H48.2947C48.3467 18.528 48.4987 18.976 48.7507 19.28C49.0027 19.58 49.3527 19.73 49.8007 19.73C50.1487 19.73 50.4267 19.634 50.6347 19.442C50.8467 19.246 50.9527 18.99 50.9527 18.674C50.9527 18.41 50.8747 18.184 50.7187 17.996C50.5627 17.804 50.2927 17.61 49.9087 17.414L49.4107 17.168C48.8987 16.912 48.5327 16.644 48.3127 16.364C48.0927 16.08 47.9827 15.738 47.9827 15.338C47.9827 14.778 48.1767 14.346 48.5647 14.042C48.9567 13.738 49.5147 13.586 50.2387 13.586C50.5187 13.586 50.7887 13.606 51.0487 13.646C51.3127 13.682 51.5187 13.732 51.6667 13.796V15.44H51.3907C51.2747 14.464 50.8207 13.976 50.0287 13.976C49.7207 13.976 49.4727 14.06 49.2847 14.228C49.1007 14.392 49.0087 14.616 49.0087 14.9C49.0087 15.148 49.0887 15.36 49.2487 15.536C49.4127 15.712 49.6887 15.894 50.0767 16.082L50.6227 16.346C51.0947 16.578 51.4347 16.834 51.6427 17.114C51.8507 17.394 51.9547 17.748 51.9547 18.176C51.9547 18.772 51.7547 19.246 51.3547 19.598C50.9547 19.95 50.4107 20.126 49.7227 20.126ZM55.4173 20.126C54.8173 20.126 54.3793 19.988 54.1033 19.712C53.8273 19.432 53.6893 19.028 53.6893 18.5V14.156L52.8013 13.97V13.706H54.9133V18.02C54.9133 18.544 55.0053 18.904 55.1893 19.1C55.3773 19.296 55.6733 19.394 56.0773 19.394C56.3533 19.394 56.6233 19.322 56.8873 19.178C57.1513 19.034 57.3953 18.808 57.6193 18.5V18.98C57.3153 19.352 56.9733 19.636 56.5933 19.832C56.2133 20.028 55.8213 20.126 55.4173 20.126ZM57.5773 20.126V18.944L57.5113 18.92V14.156L56.6293 13.97V13.706H58.7353V19.088L59.5513 19.376V19.538L57.6793 20.126H57.5773ZM61.9298 20.126C61.5018 20.126 61.1538 19.992 60.8858 19.724C60.6218 19.456 60.4898 19.108 60.4898 18.68C60.4898 18.328 60.5978 18.024 60.8138 17.768C61.0298 17.512 61.3778 17.288 61.8578 17.096C62.3418 16.9 62.9798 16.722 63.7718 16.562V15.44C63.7718 14.932 63.7018 14.576 63.5618 14.372C63.4258 14.168 63.1898 14.066 62.8538 14.066C62.5218 14.066 62.2578 14.146 62.0618 14.306C61.8658 14.466 61.7678 14.682 61.7678 14.954C61.7678 15.03 61.7718 15.106 61.7798 15.182C61.7918 15.254 61.7978 15.324 61.7978 15.392C61.7978 15.596 61.7358 15.764 61.6118 15.896C61.4918 16.028 61.3378 16.094 61.1498 16.094C60.9778 16.094 60.8378 16.038 60.7298 15.926C60.6258 15.814 60.5738 15.668 60.5738 15.488C60.5738 15.228 60.6858 14.962 60.9098 14.69C61.1378 14.414 61.4378 14.178 61.8098 13.982C62.3058 13.718 62.8438 13.586 63.4238 13.586C63.7718 13.586 64.0658 13.64 64.3058 13.748C64.5498 13.856 64.7258 14.01 64.8338 14.21C64.8978 14.346 64.9398 14.518 64.9598 14.726C64.9838 14.934 64.9958 15.282 64.9958 15.77V18.452C64.9958 18.84 65.0258 19.104 65.0858 19.244C65.1498 19.384 65.2678 19.454 65.4398 19.454C65.6358 19.454 65.8258 19.342 66.0098 19.118L66.2258 19.322C66.0298 19.606 65.8298 19.812 65.6258 19.94C65.4258 20.064 65.1918 20.126 64.9238 20.126C64.5998 20.126 64.3478 20.038 64.1678 19.862C63.9878 19.686 63.8678 19.418 63.8078 19.058H63.7718C63.5438 19.386 63.2678 19.646 62.9438 19.838C62.6198 20.03 62.2818 20.126 61.9298 20.126ZM62.5298 19.364C62.7778 19.364 63.0098 19.3 63.2258 19.172C63.4418 19.04 63.6238 18.858 63.7718 18.626V16.934C63.2358 17.038 62.8138 17.152 62.5058 17.276C62.2018 17.4 61.9858 17.552 61.8578 17.732C61.7338 17.908 61.6718 18.13 61.6718 18.398C61.6718 18.706 61.7438 18.944 61.8878 19.112C62.0358 19.28 62.2498 19.364 62.5298 19.364ZM66.5179 20V19.736L67.4299 19.55V11.21L66.5299 10.892V10.706L68.5279 10.142H68.6539V19.55L69.5539 19.736V20H66.5179ZM76.6276 20.108C76.2996 20.108 75.9796 20.06 75.6676 19.964C75.3596 19.868 75.0336 19.718 74.6896 19.514L74.2156 20H73.9696L73.7476 16.958L74.0716 16.892C74.3116 17.832 74.6276 18.514 75.0196 18.938C75.4156 19.362 75.9376 19.574 76.5856 19.574C77.1296 19.574 77.5596 19.444 77.8756 19.184C78.1916 18.92 78.3496 18.564 78.3496 18.116C78.3496 17.764 78.2396 17.45 78.0196 17.174C77.8036 16.894 77.4476 16.614 76.9516 16.334L76.0336 15.848C75.2856 15.444 74.7496 15.042 74.4256 14.642C74.1016 14.242 73.9396 13.776 73.9396 13.244C73.9396 12.764 74.0576 12.336 74.2936 11.96C74.5296 11.58 74.8516 11.282 75.2596 11.066C75.6716 10.846 76.1336 10.736 76.6456 10.736C77.3456 10.736 77.9556 10.982 78.4756 11.474L78.8416 10.85H79.0996L79.2076 13.472H78.8656C78.6776 12.724 78.4056 12.172 78.0496 11.816C77.6976 11.456 77.2476 11.276 76.6996 11.276C76.2556 11.276 75.9036 11.394 75.6436 11.63C75.3876 11.866 75.2596 12.19 75.2596 12.602C75.2596 12.974 75.3816 13.306 75.6256 13.598C75.8736 13.89 76.2896 14.19 76.8736 14.498L77.7676 14.978C78.3796 15.302 78.8216 15.662 79.0936 16.058C79.3696 16.454 79.5076 16.908 79.5076 17.42C79.5076 17.928 79.3796 18.386 79.1236 18.794C78.8716 19.198 78.5276 19.518 78.0916 19.754C77.6596 19.99 77.1716 20.108 76.6276 20.108ZM82.7012 20.126C82.2572 20.126 81.9192 20 81.6872 19.748C81.4552 19.496 81.3392 19.134 81.3392 18.662V14.15H80.5592L80.5232 13.934L82.3232 12.146L82.5572 12.17V13.706H84.2732L84.1712 14.15H82.5572V18.542C82.5572 19.198 82.7932 19.526 83.2652 19.526C83.4252 19.526 83.5832 19.484 83.7392 19.4C83.8992 19.316 84.0352 19.2 84.1472 19.052L84.3572 19.238C84.1732 19.51 83.9332 19.726 83.6372 19.886C83.3452 20.046 83.0332 20.126 82.7012 20.126ZM87.3274 20.126C86.7274 20.126 86.2894 19.988 86.0134 19.712C85.7374 19.432 85.5994 19.028 85.5994 18.5V14.156L84.7114 13.97V13.706H86.8234V18.02C86.8234 18.544 86.9154 18.904 87.0994 19.1C87.2874 19.296 87.5834 19.394 87.9874 19.394C88.2634 19.394 88.5334 19.322 88.7974 19.178C89.0614 19.034 89.3054 18.808 89.5294 18.5V18.98C89.2254 19.352 88.8834 19.636 88.5034 19.832C88.1234 20.028 87.7314 20.126 87.3274 20.126ZM89.4874 20.126V18.944L89.4214 18.92V14.156L88.5394 13.97V13.706H90.6454V19.088L91.4614 19.376V19.538L89.5894 20.126H89.4874ZM94.8719 20.126C94.3999 20.126 93.9759 19.988 93.5999 19.712C93.2239 19.436 92.9259 19.06 92.7059 18.584C92.4899 18.104 92.3819 17.562 92.3819 16.958C92.3819 16.294 92.5139 15.71 92.7779 15.206C93.0419 14.698 93.4099 14.302 93.8819 14.018C94.3539 13.73 94.8999 13.586 95.5199 13.586C95.9599 13.586 96.3919 13.652 96.8159 13.784V11.234L95.9279 10.892V10.724L97.8899 10.142H98.0279V19.046L98.8499 19.232V19.376L96.9959 20.126H96.8999V19.136L96.8459 19.118C96.5979 19.45 96.3039 19.702 95.9639 19.874C95.6279 20.042 95.2639 20.126 94.8719 20.126ZM95.3999 19.334C95.6959 19.334 95.9699 19.272 96.2219 19.148C96.4779 19.024 96.6759 18.856 96.8159 18.644V15.308C96.8159 14.88 96.7039 14.552 96.4799 14.324C96.2599 14.096 95.9419 13.982 95.5259 13.982C94.9899 13.982 94.5559 14.236 94.2239 14.744C93.8959 15.252 93.7319 15.926 93.7319 16.766C93.7319 17.558 93.8799 18.184 94.1759 18.644C94.4719 19.104 94.8799 19.334 95.3999 19.334ZM99.5084 20V19.736L100.42 19.55V14.66L99.5264 14.342V14.156L101.518 13.586H101.65V19.55L102.55 19.736V20H99.5084ZM101.026 12.326C100.782 12.326 100.588 12.248 100.444 12.092C100.3 11.936 100.228 11.754 100.228 11.546C100.228 11.318 100.3 11.126 100.444 10.97C100.588 10.814 100.782 10.736 101.026 10.736C101.274 10.736 101.47 10.814 101.614 10.97C101.762 11.126 101.836 11.318 101.836 11.546C101.836 11.754 101.762 11.936 101.614 12.092C101.47 12.248 101.274 12.326 101.026 12.326ZM106.483 20.126C105.867 20.126 105.321 19.984 104.845 19.7C104.369 19.412 103.995 19.022 103.723 18.53C103.455 18.034 103.321 17.476 103.321 16.856C103.321 16.232 103.455 15.674 103.723 15.182C103.995 14.69 104.369 14.302 104.845 14.018C105.321 13.73 105.867 13.586 106.483 13.586C107.099 13.586 107.643 13.73 108.115 14.018C108.591 14.302 108.965 14.69 109.237 15.182C109.509 15.674 109.645 16.232 109.645 16.856C109.645 17.476 109.509 18.034 109.237 18.53C108.965 19.022 108.591 19.412 108.115 19.7C107.643 19.984 107.099 20.126 106.483 20.126ZM106.471 19.574C106.763 19.574 107.021 19.51 107.245 19.382C107.469 19.25 107.657 19.064 107.809 18.824C107.965 18.58 108.083 18.292 108.163 17.96C108.243 17.624 108.283 17.252 108.283 16.844C108.283 16.44 108.243 16.072 108.163 15.74C108.087 15.408 107.973 15.122 107.821 14.882C107.669 14.642 107.481 14.458 107.257 14.33C107.033 14.198 106.775 14.132 106.483 14.132C106.191 14.132 105.933 14.198 105.709 14.33C105.485 14.458 105.297 14.642 105.145 14.882C104.993 15.122 104.877 15.41 104.797 15.746C104.721 16.078 104.683 16.448 104.683 16.856C104.683 17.264 104.721 17.634 104.797 17.966C104.877 18.298 104.993 18.584 105.145 18.824C105.297 19.064 105.483 19.25 105.703 19.382C105.927 19.51 106.183 19.574 106.471 19.574ZM118.361 20.126C117.501 20.126 116.743 19.93 116.087 19.538C115.435 19.146 114.925 18.602 114.557 17.906C114.193 17.206 114.011 16.4 114.011 15.488C114.011 14.792 114.117 14.154 114.329 13.574C114.545 12.994 114.849 12.492 115.241 12.068C115.633 11.644 116.097 11.316 116.633 11.084C117.169 10.852 117.757 10.736 118.397 10.736C118.869 10.736 119.327 10.8 119.771 10.928C120.219 11.052 120.623 11.232 120.983 11.468H121.031L121.607 10.862H121.841V13.616H121.451C121.383 13.396 121.307 13.198 121.223 13.022C121.143 12.846 121.057 12.684 120.965 12.536C120.685 12.088 120.355 11.768 119.975 11.576C119.595 11.384 119.143 11.288 118.619 11.288C117.651 11.288 116.905 11.642 116.381 12.35C115.861 13.058 115.601 14.074 115.601 15.398C115.601 16.722 115.863 17.746 116.387 18.47C116.915 19.194 117.659 19.556 118.619 19.556C119.095 19.556 119.525 19.462 119.909 19.274C120.293 19.082 120.613 18.802 120.869 18.434C121.017 18.226 121.143 17.99 121.247 17.726C121.355 17.462 121.437 17.174 121.493 16.862H121.841V20H121.535L120.995 19.22C120.571 19.536 120.147 19.766 119.723 19.91C119.303 20.054 118.849 20.126 118.361 20.126ZM126.287 20.126C125.671 20.126 125.125 19.984 124.649 19.7C124.173 19.412 123.799 19.022 123.527 18.53C123.259 18.034 123.125 17.476 123.125 16.856C123.125 16.232 123.259 15.674 123.527 15.182C123.799 14.69 124.173 14.302 124.649 14.018C125.125 13.73 125.671 13.586 126.287 13.586C126.903 13.586 127.447 13.73 127.919 14.018C128.395 14.302 128.769 14.69 129.041 15.182C129.313 15.674 129.449 16.232 129.449 16.856C129.449 17.476 129.313 18.034 129.041 18.53C128.769 19.022 128.395 19.412 127.919 19.7C127.447 19.984 126.903 20.126 126.287 20.126ZM126.275 19.574C126.567 19.574 126.825 19.51 127.049 19.382C127.273 19.25 127.461 19.064 127.613 18.824C127.769 18.58 127.887 18.292 127.967 17.96C128.047 17.624 128.087 17.252 128.087 16.844C128.087 16.44 128.047 16.072 127.967 15.74C127.891 15.408 127.777 15.122 127.625 14.882C127.473 14.642 127.285 14.458 127.061 14.33C126.837 14.198 126.579 14.132 126.287 14.132C125.995 14.132 125.737 14.198 125.513 14.33C125.289 14.458 125.101 14.642 124.949 14.882C124.797 15.122 124.681 15.41 124.601 15.746C124.525 16.078 124.487 16.448 124.487 16.856C124.487 17.264 124.525 17.634 124.601 17.966C124.681 18.298 124.797 18.584 124.949 18.824C125.101 19.064 125.287 19.25 125.507 19.382C125.731 19.51 125.987 19.574 126.275 19.574ZM133.005 20.126C132.533 20.126 132.109 19.988 131.733 19.712C131.357 19.436 131.059 19.06 130.839 18.584C130.623 18.104 130.515 17.562 130.515 16.958C130.515 16.294 130.647 15.71 130.911 15.206C131.175 14.698 131.543 14.302 132.015 14.018C132.487 13.73 133.033 13.586 133.653 13.586C134.093 13.586 134.525 13.652 134.949 13.784V11.234L134.061 10.892V10.724L136.023 10.142H136.161V19.046L136.983 19.232V19.376L135.129 20.126H135.033V19.136L134.979 19.118C134.731 19.45 134.437 19.702 134.097 19.874C133.761 20.042 133.397 20.126 133.005 20.126ZM133.533 19.334C133.829 19.334 134.103 19.272 134.355 19.148C134.611 19.024 134.809 18.856 134.949 18.644V15.308C134.949 14.88 134.837 14.552 134.613 14.324C134.393 14.096 134.075 13.982 133.659 13.982C133.123 13.982 132.689 14.236 132.357 14.744C132.029 15.252 131.865 15.926 131.865 16.766C131.865 17.558 132.013 18.184 132.309 18.644C132.605 19.104 133.013 19.334 133.533 19.334ZM140.731 20.126C140.151 20.126 139.641 19.994 139.201 19.73C138.765 19.462 138.425 19.09 138.181 18.614C137.941 18.134 137.821 17.58 137.821 16.952C137.821 16.284 137.955 15.698 138.223 15.194C138.495 14.69 138.873 14.296 139.357 14.012C139.845 13.728 140.409 13.586 141.049 13.586C141.841 13.586 142.447 13.816 142.867 14.276C143.291 14.736 143.511 15.41 143.527 16.298L143.443 16.37H138.793V16.022L142.153 15.902C142.181 15.798 142.195 15.64 142.195 15.428C142.195 14.468 141.773 13.988 140.929 13.988C140.349 13.988 139.901 14.216 139.585 14.672C139.273 15.124 139.117 15.766 139.117 16.598C139.117 18.338 139.793 19.208 141.145 19.208C142.025 19.208 142.699 18.888 143.167 18.248L143.389 18.386C143.181 18.938 142.843 19.366 142.375 19.67C141.911 19.974 141.363 20.126 140.731 20.126Z" fill="white"/>
<path d="M31 0H5C2.23858 0 0 2.23858 0 5V27C0 29.7614 2.23858 32 5 32H31V0Z" fill="#2FABEF"/>
<path d="M20.7512 6.83759C20.7512 6.17837 20.0131 6.17837 19.6851 6.26077C20.1443 5.8982 20.6829 5.9861 20.8742 6.09597L25.3092 8.2706C25.7318 8.47781 25.9998 8.90895 25.9998 9.38143V23.6873C25.9998 24.1661 25.7247 24.6019 25.2935 24.8057L21.1203 26.7791C20.8332 26.9026 20.2099 27.2075 19.6851 26.779C20.3412 26.9026 20.6965 26.4357 20.7512 26.1198V6.83759Z" fill="white"/>
<path d="M19.7384 6.24892C20.0866 6.18013 20.7514 6.21203 20.7514 6.83764V11.7619L7.30519 21.934C7.07017 22.1118 6.7394 22.0822 6.53922 21.8657L5.1534 20.3661C4.9363 20.1312 4.95149 19.7635 5.18722 19.5475L19.6852 6.26081L19.7384 6.24892Z" fill="white"/>
<path d="M20.7514 21.2781L7.30519 11.106C7.07017 10.9282 6.7394 10.9577 6.53922 11.1743L5.1534 12.6739C4.9363 12.9088 4.95149 13.2765 5.18722 13.4926L19.6852 26.7792C20.3413 26.9028 20.6967 26.4358 20.7514 26.1199V21.2781Z" fill="white"/>
</svg>
